<?xml version="1.0" encoding="UTF-8" standalone="no"?>
<svg
   xmlns:dc="http://purl.org/dc/elements/1.1/"
   xmlns:cc="http://creativecommons.org/ns#"
   xmlns:rdf="http://www.w3.org/1999/02/22-rdf-syntax-ns#"
   xmlns:svg="http://www.w3.org/2000/svg"
   xmlns="http://www.w3.org/2000/svg"
   xmlns:sodipodi="http://sodipodi.sourceforge.net/DTD/sodipodi-0.dtd"
   xmlns:inkscape="http://www.inkscape.org/namespaces/inkscape"
   viewBox="0 0 800 250"
   preserveAspectRatio="xMidYMid meet"
   class="css-1y5supu"
   id="adfdggaf"
   version="1.1"
   sodipodi:docname="vizweb_logo_2.svg"
   inkscape:version="0.92.4 (33fec40, 2019-01-16)">
  <metadata
     id="metadata20">
    <rdf:RDF>
      <cc:Work
         rdf:about="">
        <dc:format>image/svg+xml</dc:format>
        <dc:type
           rdf:resource="http://purl.org/dc/dcmitype/StillImage" />
      </cc:Work>
    </rdf:RDF>
  </metadata>
  <sodipodi:namedview
     pagecolor="#ffffff"
     bordercolor="#666666"
     borderopacity="1"
     objecttolerance="10"
     gridtolerance="10"
     guidetolerance="10"
     inkscape:pageopacity="0"
     inkscape:pageshadow="2"
     inkscape:window-width="1920"
     inkscape:window-height="1056"
     id="namedview18"
     showgrid="false"
     inkscape:zoom="0.78405316"
     inkscape:cx="375.98093"
     inkscape:cy="150.5"
     inkscape:window-x="1600"
     inkscape:window-y="24"
     inkscape:window-maximized="1"
     inkscape:current-layer="adfdggaf" />
  <defs
     id="SvgjsDefs1242" />
  <g
     id="SvgjsG1246"
     featurekey="text1"
     transform="matrix(11.746763,0,0,11.746763,5.9856291,-34.526266)"
     style="fill:#2d388a">
    <path
       d="m 0.16602,3.437375 h 3.2617 q 0.2246094,0 0.5371094,2.6660156 1.9042968,11.3964844 1.9042968,11.8457034 h 0.058594 Q 7.4511577,8.2908906 8.2617046,3.5447969 l 0.16602,-0.10742 h 3.2031004 v 0.058594 l -0.10742,0.15625 q 0.107422,0.1367187 0.107422,0.2246093 -0.04883,0.15625 -0.107422,0.15625 0.107422,0.4785157 0.107422,0.7617188 Q 8.2030921,23.740111 8.154264,23.87683 l -0.16602,0.10742 h -4.2383 q -0.234375,0 -0.6542969,-3.046875 Q -5.6e-5,4.0037815 -5.6e-5,3.5447971 Z m 0.15625,0.869 v 0.10742 Q 1.5234419,3.7790294 1.9043013,3.71067 V 3.652076 h -0.27344 l -1.19140005,0.48828 z m 8.26173,-0.654 v 0.058594 q 0.5371094,0.029297 2.724609,1.796875 V 5.341824 Q 10.341813,4.404324 8.9160313,3.6523709 h -0.33203 z m 2.559,0 q 0,0.068359 0.273438,0.2246094 h 0.04883 v -0.058594 q -0.04883,-0.1074219 -0.04883,-0.1660157 h -0.27344 z m -10.70355,1.309 Q 0.4882781,5.059031 0.4882781,5.2348125 2.5976531,4.0336406 3.4277313,4.0336406 v -0.15625 Q 1.5722625,4.3461406 0.43945,4.961375 Z m 7.92965,-0.762 v 0.10742 l 2.2852,1.5234 q 0,0.029297 0.488281,0.4296875 v -0.10742 Q 10.263675,5.1270719 8.3691437,4.1993375 Z m -7.7148,1.631 q 0,-0.058594 -0.0585938,-0.058594 v 0.1074201 q 0,0.068359 1.2011718,1.2011718 0.5957032,0.6933594 0.5957032,0.7617188 0,0.1660156 -0.7617188,0.4296875 l -0.65429995,-0.42969 v 0.16602 Q 1.25,8.330375 1.4160156,8.330375 v 0.10742 l -0.16602,0.21484 -0.10742,-0.048828 h -0.058594 q 0.058594,0.097656 0.058594,0.2734375 h 0.048828 q 1.2695312,-0.9960937 2.8320312,-1.25 0,-0.1171875 -0.1074218,-0.1171875 -0.1660157,0 -1.3085938,0.2734375 Q 2.4999971,7.6077133 2.4999971,7.4612289 3.6425753,6.8655258 3.857419,6.8655258 v -0.22461 Q 2.4999971,7.129197 2.2851534,7.3538064 1.8457003,6.9143533 1.8457003,6.8069314 q 0,-0.3613281 1.8457031,-1.0351563 v -0.15625 l -2.168,0.91797 h -0.10742 q 0,-0.1367187 -0.3808594,-0.4296875 v -0.058594 q 0,-0.3222656 2.1191406,-1.0839843 Q 3.535124,4.9026355 3.535124,4.7952136 v -0.048828 q -0.5078125,0 -2.83203125,1.0839844 h -0.048828 z m 7.5488,-0.762 v 0.10742 q 0.019531,0.068359 1.2011719,0.6542969 1.1425781,0.8105468 1.5722651,1.25 0,-0.058594 0.05859,-0.1660157 Q 10.585912,6.4160294 9.6777094,5.87892 9.3652094,5.6543106 8.2616937,5.0683731 h -0.058594 z m -0.1074,0.869 v 0.16602 q 0.8691406,0.3125 2.724609,1.7871094 h 0.04883 v -0.10742 Q 9.6777311,6.620975 8.0956999,5.9373812 Z m -0.1562,0.977 v 0.10742 q 0,0.068359 1.0839844,0.4882812 0.8398437,0.5175782 1.6894526,1.2011719 v -0.10742 Q 9.4824687,7.4221875 7.9395,6.914375 Z m -0.1661,0.927 v 0.048828 q 0,0.068359 1.0839844,0.4980469 0.8203125,0.4394531 1.5820316,1.2988281 v 0.058594 q 0.107421,0 0.107421,-0.1074219 v -0.11719 Q 9.3944937,8.3296539 7.7734,7.8413726 Z m -6.416,2.286 Q 3.3007594,8.7406563 4.1894312,8.6527656 v -0.10742 h -0.058594 q -0.6542968,0 -2.7734375,1.3574219 v 0.2246105 z m 6.3086,-1.475 q 0,0.058594 -0.058594,0.1660156 1.09375,0 1.9042968,1.0839844 0.1757813,0.712891 0.2734375,0.712891 h 0.4882807 q 0.09766,0 0.166015,-0.38086 h -0.05859 q -0.205078,0.15625 -0.3808594,0.15625 h -0.10742 Q 9.6874848,9.6191719 8.9648285,9.0332344 8.1933441,8.652375 7.7148285,8.652375 Z m -6.0937,2.451 v 0.16602 Q 2.7344094,10.146348 4.3457375,9.7459575 v -0.16602 q -0.2929688,0 -1.953125,0.7617185 Q 1.7969094,10.790875 1.5723,11.103375 Z m 5.8203,-0.976 h 0.54688 q 0.390625,0 0.7617188,0.488281 v 0.10742 h -0.058594 l -1.2500001,-0.33203 h -0.058594 v 0.11719 q 0,0.06836 0.8691407,0.263672 0.4785156,0.22461 0.546875,0.332031 l 0.10742,-0.05859 h 0.10742 q 0.3808594,0 0.3808594,0.332032 -0.3808594,0 -0.6445313,0.595703 h -0.11719 Q 8.0957232,11.562924 7.2265826,11.269955 v 0.10742 q 0,0.08789 0.4882813,0.214844 0.4785156,0.253906 0.7128906,0.654296 0.2929687,0 0.3808594,0.214844 0,0.126953 -0.058594,0.214844 0.7128906,0.869141 0.8203125,2.070312 h 0.048828 Q 9.6777544,14.268 9.6777544,14.19964 l -0.21484,-0.92773 0.32227,-0.26367 -0.10742,-0.33203 q 0.1757812,-0.595703 0.4296876,-0.595703 v -0.21484 q -0.5957033,0.361328 -0.5957033,0.761719 l 0.058594,0.32227 -0.10742,0.05859 h -0.16602 q -0.068359,0 -0.2734375,-0.273437 v -0.16602 l 0.16602,-0.21484 v -0.10742 q -0.3320312,0 -0.3320312,-0.166016 0,-0.488281 0.8203125,-0.546875 v -0.04883 q 0,-0.341797 -0.7128906,-0.761719 -0.3125,-0.8203124 -1.1328125,-0.8203124 h -0.11719 q -0.2636719,0 -0.3222657,0.2246094 z m -5.5957,2.168 v 0.33203 h 0.048828 q 0.3710938,-1.025391 2.5,-2.070312 h 0.10742 v -0.16602 q -1.8261719,0.615234 -2.65625,1.904296 z m 0.2148,1.416 0.058594,0.27344 h 0.048828 q 0.2148437,-0.751953 1.3085937,-1.904297 0.068359,0 0.6445313,-0.488281 0.4101562,-0.273438 0.546875,-0.273438 -0.039063,-0.214843 -0.1074219,-0.214843 -1.6015625,0.878906 -2.5,2.607422 z m 0.7031,1.523 v 0.04883 q 0,0.400391 0.3320313,1.416016 -0.2734375,0.234375 -0.3808594,0.654296 0.15625,1.035157 0.2148437,1.035157 1.2207032,1.083984 2.5,1.083984 h 0.21484 q 0.1660156,0.488281 0.1660156,0.654297 v 0.10742 l -0.38086,0.05859 h -0.21484 q -0.78125,0 -2.0703124,-0.654297 v 0.15625 q 0,0.224609 1.9628906,0.654297 h 0.32227 q 0.3027343,0 0.8203125,-0.107422 0.1074218,0.05859 0.15625,0.05859 0.4882812,0 0.4882812,-0.927735 0.1953125,-0.166015 0.6542969,-0.166015 0.3710937,0 0.5957031,0.439453 v 0.04883 q 0,0.742187 -2.6074219,1.523437 h -0.16602 q -0.7519531,0 -2.0605468,-0.595703 v 0.05859 q 0,0.292969 1.1425781,0.595703 0,0.107422 0.7617187,0.166016 1.1523438,0 2.9296876,-1.201172 0,-0.107422 0.2246093,-0.107422 v 0.21484 q 0,0.585938 -1.3671875,1.09375 Q 6.5331587,21.865229 4.67769,21.865229 H 4.619096 q -0.4101563,0 -1.1914062,-0.214844 v 0.04883 q 0,0.332031 0.9179687,0.332031 0,0.04883 0.6542969,0.04883 h 0.10742 q 1.3867187,0 2.9882812,-0.703125 0.4882813,-0.527344 0.4882813,-1.142579 -0.2832031,-0.976562 -0.703125,-0.976562 0,-0.06836 -0.4882813,-0.166016 -0.8105469,0 -0.8105469,0.703125 -0.058594,0 -0.058594,0.332032 -0.058594,0 -0.1660156,0.04883 -0.46875,0 -0.5371094,-0.703125 v -0.32227 q 0,-0.05859 0.048828,-0.05859 0,-0.703125 -0.4882812,-0.703125 Q 4.5116722,18.12499 4.5116722,17.734365 4.023391,17.675771 4.023391,17.568349 q 0.1757812,-0.322265 0.5957031,-0.322265 0.2832031,0 0.9765625,0.322265 v -0.21484 Q 4.882766,17.031244 4.5116722,17.031244 3.7499535,17.255853 3.7499535,17.783197 v 0.11719 h 0.058594 q 0.46875,-0.05859 0.5371094,-0.05859 l 0.10742,0.32227 q 0,0.332032 -0.703125,0.332032 h -0.10742 q -0.3125,0 -0.4882813,-0.546875 -0.3320312,0 -0.3320312,-0.429688 v -0.05859 q 0,-0.546875 0.7617187,-0.703125 0.3613282,-0.654297 1.3085938,-0.654297 0.2441406,0 0.4882812,0.107422 v -0.05859 l -0.16602,-0.75195 v -0.38086 q 0,-0.117187 -0.1074219,-0.117187 l -0.048828,0.38086 v 0.49805 q 0,0.107421 -0.1074218,0.107421 h -0.27344 q -0.058594,-0.302734 -0.058594,-0.439453 0,-0.361328 0.4394531,-1.191406 v -0.16602 q -0.6542968,0.791016 -0.6542968,1.357422 v 0.38086 Q 4.3358845,16.044925 3.9159626,16.044925 3.6913532,15.556643 3.6913532,15.283206 3.984322,13.496097 4.453072,13.496097 4.7948689,13.222659 4.8925251,13.222659 v -0.21484 Q 4.1991657,13.232428 3.8085407,13.87696 l -0.33203,1.25 q 0,0.527343 0.2734375,1.02539 -0.1855468,0.439453 -0.4296875,0.439453 -0.3808593,-0.449218 -0.3808593,-1.25 0,-1.875 1.5136718,-2.773437 0.1171875,0 0.3320313,-0.214844 Q 4.7265107,12.187506 4.6776826,12.187506 2.714792,13.232428 2.714792,15.234381 Z m 4.3555,-3.047 v 0.10742 q 0.5761719,0.351562 1.0253906,0.761719 0.8691407,0.976562 0.8691407,2.392578 -0.039063,0.927734 -0.2148438,0.927734 h -0.27344 q -0.078125,0 -0.15625,-0.224609 0,-0.01953 0.048828,-0.703125 0,-1.484375 -1.3574219,-2.333984 h -0.10742 v 0.10742 q 0.6933594,0.449218 0.9765625,1.191406 0.2734375,0.371094 0.2734375,1.09375 0,0.86914 -0.3222656,1.357422 0,0.478515 -0.6054687,0.595703 0,0.107422 -0.2734375,0.107422 -0.078125,0 -0.15625,-0.166016 v -0.04883 Q 7.7148306,16.38659 7.7148306,15.829949 v -0.38086 q 0,-0.976562 -0.8691406,-1.679687 H 6.796862 v 0.21484 q 0.7617187,0.761719 0.7617187,1.572266 0,0.888671 -0.9277343,1.523437 l -0.16602,-0.21484 v -0.16602 q 0.7128906,-0.566406 0.7128906,-1.298828 0,-0.546875 -0.4882813,-0.927734 v 0.21484 q 0.2636719,0.351562 0.2636719,0.546875 v 0.16602 q 0,0.537109 -0.5957031,1.132812 0,0.136719 -0.048828,0.439453 0.087891,0 0.3808593,0.703125 0.1367188,0.166016 0.3222657,0.166016 0.4492187,-0.273438 0.5957031,-0.273438 0.15625,0.107422 0.3808594,0.107422 0,-0.04883 0.058594,-0.04883 L 7.9882636,17.5194 v -0.38086 q 0.1074219,-0.546875 0.546875,-0.546875 h 0.10742 q 0.4394531,0 0.4394531,0.654297 l -0.11719,0.38086 h 0.11719 q 0.048828,-0.46875 0.15625,-0.820313 l -0.15625,-0.32227 q 0,-0.05859 0.1074219,-0.927734 0,-1.640625 -0.7617187,-2.333984 Q 7.8710742,12.490099 7.070293,12.187365 Z m 2.8809,0.215 v 0.16602 h 0.048828 v -0.16602 z m -3.75,5.2246 q 0,0.117188 -0.058594,0.214844 0.1074219,0.0293 0.2148438,0.273437 0,0.06836 -0.3222656,0.38086 v 0.16602 q 0.2929687,-0.273438 1.0839843,-0.273438 -0.00977,-0.126953 -0.5371093,-0.332031 0,-0.205078 -0.3320313,-0.429688 h -0.048828 z m -1.4746,0.7031 q 0.7910156,0.332031 0.9765625,0.332031 v 0.15625 q 0,0.439453 -0.3222656,0.439453 h -0.21484 q -0.4003906,0 -1.3574219,-0.380859 v -0.10742 q 0.7324219,-0.136719 0.9179688,-0.439453 z m 0.4394,5.10742 H 4.78514 q -0.3808594,0 -1.0351562,-0.15625 v 0.21484 q 0.8593749,0.166016 1.4160156,0.166016 2.5,-0.371094 2.5,-0.654297 0.5371094,-0.263672 0.5371094,-0.546875 -0.078125,0 -0.7031251,0.488281 -1.484375,0.488281 -2.3339843,0.488281 z m 2.666,0.27344 v 0.05859 h 0.10742 l 0.048828,-0.10742 q -0.1074219,0.04883 -0.15625,0.04883 z m 6.074246,-20.27356 h 2.8809 q 0.38086,0 0.38086,0.3808594 V 23.818234 q 0,0.08789 -0.15625,0.166016 h -3.1543 q -0.08789,0 -0.166016,-0.166016 V 3.6522344 q 0,-0.078125 0.214844,-0.2148438 z m 0,0.322 v 0.43945 q 0.898438,0.3515625 2.988282,2.8808594 v -0.27344 q 0,-0.3808594 -2.65625,-2.8222657 h 0.21484 q 1.005859,0.5566407 2.441406,2.3339844 v -0.21484 q -0.625,-0.9375 -1.953125,-2.1191406 0.166015,-0.1074219 0.380859,-0.1074219 0.498047,0 1.191406,0.7519531 l 0.38086,0.33203 v -0.16602 l -0.70313,-0.81055 0.21484,-0.10742 q 0.244141,0 0.488282,0.2148438 v -0.33203 l -0.38086,-0.048828 h -0.26367 q -0.69336,0 -1.523438,0.048828 -0.410156,-0.1074219 -0.439453,-0.1074219 -0.214844,0.1074219 -0.380859,0.1074219 z m 0,1.094 v 0.15625 q 2.109375,1.6210937 2.939453,3.3789063 v 0.048828 h 0.04883 v -0.38086 Q 16.357418,6.9041555 14.833981,5.5076711 Z m 0,2.168 v 0.16602 q 1.142578,1.171875 2.011719,2.4511719 -0.04883,0.1074218 -0.04883,0.15625 h -0.05859 q -0.302734,0 -0.654297,-0.703125 -1.152344,-1.2402344 -1.25,-1.25 v 0.21484 q 1.357422,1.2695312 1.357422,1.8457031 -0.175781,0.117187 -0.322266,0.117187 -0.0293,-0.1367183 -1.035156,-1.1425776 v 0.21484 q 0.820313,0.8398437 0.820313,0.9765626 l -0.16602,0.10742 h -0.10742 l -0.54688,-0.4882801 v 0.21484 l 0.22461,0.3320301 v 0.10742 l -0.22461,0.21484 v 0.16602 h 0.05859 q 0.625,-0.449219 1.630859,-0.703125 0.117187,0 1.298828,-0.2734376 v -0.22461 l -0.76172,0.11719 q -0.03906,-0.3125 -2.167969,-2.6171875 h -0.05859 z m 0.71289,5 q -0.371093,-0.214844 -0.654297,-0.214844 h -0.05859 v 0.21484 q 0.439454,0 0.546875,0.332032 0.117188,0.322265 0.214844,0.322265 h 0.05859 q 0,-0.537109 0.38086,-0.810547 h 0.32227 q 0.419921,0 0.703124,0.53711 0,0.185547 -0.644531,0.439453 -0.224609,0.429687 -0.224609,0.761719 l 0.11719,0.04883 q 0.195312,-0.107422 0.429687,-0.107422 h 0.10742 l 0.16602,0.10742 q -0.205078,0.332031 -0.273437,0.820312 0.380859,0.722656 0.380859,0.927735 -0.05859,0.08789 -0.05859,0.214843 0.166015,0.06836 0.761718,0.654297 v -0.33203 l -0.10742,-0.15625 v -0.16602 h 0.10742 v -0.21484 h -0.04883 q -0.166015,0 -0.439453,0.107422 v -0.38086 q 0,-0.126953 0.488281,-0.273438 v -0.166019 q -0.527343,0.107421 -0.595703,0.107421 -0.273437,-0.322265 -0.273437,-0.380859 0,-0.263672 0.86914,-0.488281 v -0.15625 l -0.38086,0.04883 h -0.15625 q 0,-0.38086 -0.439453,-0.654297 0,-0.214844 0.976563,-0.263672 v -0.22461 h -0.42969 q -0.107422,0 -0.107422,-0.107422 0,-0.429687 0.537109,-0.429687 v -0.22461 h -0.04883 q -0.107422,0 -0.546875,0.107422 -0.24414,-0.08789 -0.380859,-0.322266 v -0.16602 q 0.908203,-0.292969 0.976562,-0.380859 v -0.04883 q -2.27539,0.55664 -2.27539,0.917968 z m -0.71289,1.143 v 0.22461 q 0.166016,0.488281 0.166016,0.537109 v 0.43945 q 0.488281,0.04883 0.488281,0.15625 -0.55664,0.22461 -0.654297,0.22461 v 0.38086 q 0.332032,-0.273438 0.712891,-0.273438 0.488281,0.166016 0.644531,0.166016 0,-0.517578 -0.917969,-0.927734 -0.234375,-0.927735 -0.439453,-0.927735 z m 0,3.0466 q 0,0.244141 0.05859,0.322266 -0.05859,1.005859 -0.05859,1.689453 v 0.86914 h 0.05859 q 0.146485,-0.839844 1.142578,-1.572266 0.351563,-0.117187 0.488282,-0.117187 h 0.27344 q 0.332031,0 0.810547,0.380859 h 0.16602 v -0.15625 q -0.625,-0.410156 -0.927735,-0.488281 v -0.82031 q 0,-0.585938 -0.976562,-0.869141 -0.566407,0 -0.927735,0.761719 h -0.10742 z m 1.09376,-0.4883 q 0.390625,0 0.761719,0.654297 0,0.917969 -0.654297,0.917969 0,0.05859 -0.107422,0.05859 l -0.05859,-0.10742 v -0.86914 q 0,-0.380859 -0.107422,-0.595703 0.04883,0 0.166016,-0.05859 z m -0.33204,0.0586 h 0.05859 v 0.32227 q 0,0.283203 0.04883,0.488281 0,1.113281 -0.488281,1.416016 -0.253906,0.380859 -0.322266,0.380859 v -0.22461 q 0.166016,-0.849609 0.273438,-1.894531 0.146484,-0.380859 0.429687,-0.488281 z m -0.04883,4.2383 h -0.33203 q -0.322265,-0.195313 -0.322265,-0.605469 h -0.05859 v 0.33203 q 0,0.488281 0.654297,0.488281 0.654296,0 0.6543,-0.70313 0.214843,-0.380859 0.546875,-0.439453 v 0.05859 q -0.205079,0.69336 -0.986329,1.894532 -0.800781,0.751953 -0.86914,1.201171 v 0.27344 h 0.43945 q 1.601562,0 2.392578,-1.474609 0.15625,-0.566406 0.15625,-0.703125 v -0.5957 q 0,-0.644531 -0.761719,-1.035156 -1.02539,0.273437 -1.02539,0.820312 -0.166016,0.488282 -0.488282,0.488282 z m 1.51367,-1.0938 q 0.126953,0 0.332032,0.332031 -0.06836,0.869141 -1.738282,2.822266 -0.332031,0.214844 -0.439453,0.214844 -0.107422,-0.04883 -0.15625,-0.04883 v -0.16602 q 1.71875,-2.109375 1.845703,-2.929688 0.04883,0 0.15625,-0.224609 z m 0.4981,0.7129 q 0.107422,0.175781 0.107422,0.322266 v 0.21484 q -0.08789,0.673828 -0.605469,1.416015 -0.810547,0.546875 -1.02539,0.546875 0,-0.05859 -0.05859,-0.05859 l 1.2012,-1.7871 q 0.283203,-0.654296 0.380859,-0.654296 z m -2.72466,1.084 v 0.10742 q 0.107422,0 0.273438,-0.488281 h -0.04883 q -0.22461,0.07813 -0.22461,0.380859 z m 1.58206,2.93943 h 0.27344 q 1.132813,-1.025391 1.132813,-1.367188 v -0.04883 z m -1.09377,0 h 0.16602 q 0.07813,0 0.166016,-0.166016 v -0.10742 h -0.05859 q -0.06836,0 -0.273438,0.273438 z m 2.23637,0 h 0.26367 v -0.27344 q -0.06836,0 -0.263672,0.273437 z m 2.050735,-20.28273 h 9.1113 v 0.058594 h -0.22461 q 0.224609,0.3320312 0.224609,0.4980469 v 0.22461 q 0,0.1074218 -0.390625,0.2148437 -0.517578,-0.8691406 -0.664062,-0.9375 h -0.16602 q 0.146484,0.1464844 0.664062,0.9960938 0,0.1660156 -0.449219,0.4492187 h -0.04883 l -0.88867,-1.4453 h -0.22461 Q 26.181609,4.1020446 26.51364,4.9907165 26.455046,5.2153259 25.957,5.4887634 25.703093,4.4926696 24.628875,3.4379821 h -0.283201 q 1.083985,0.8984375 1.386719,2.0507813 0,0.058594 0.05859,0.1660156 -0.0293,0 -0.332031,0.3320312 h -0.16602 Q 25.107389,5.0200134 23.56442,3.4379821 h -0.27344 q 1.835938,1.8261719 1.835938,2.8808594 -0.117188,0.2539062 -0.22461,0.2832031 h -0.05859 Q 24.736292,6.5825134 24.238246,5.4887634 23.955042,4.951654 22.343714,3.4379821 h -0.33203 v 0.048828 q 0.38086,0 1.894532,1.8945313 0.664062,0.9863281 0.664062,1.6601562 Q 24.482387,7.266107 24.404262,7.266107 24.238247,7.0414976 24.238247,6.9340757 l 0.16602,-0.39063 h -5.7227 V 3.3793458 Z m 0.55664,0.058 q 1.679687,1.5820312 2.5,2.8808594 0.126953,0.1660156 0.166015,0.1660156 h 0.10742 V 6.435422 q -0.488281,-1.015625 -2.5,-2.9980469 h -0.27344 z m 0.99606,0 q 1.65039,1.2988281 2.109375,2.2167969 0.351562,0.3027343 0.507812,0.8300781 h 0.21484 V 6.435422 Q 22.968712,5.9471407 20.956993,3.7108126 l -0.39063,-0.27344 h -0.33203 z m 1.0547,0 v 0.048828 q 0.810546,0.6054687 1.611328,1.6699219 0.888672,1.328125 0.947265,1.328125 h 0.10742 v -0.048828 q -0.07813,-0.5664063 -2.27539,-2.9492188 l -0.27344,-0.048828 h -0.11719 z m -2.548806,0.381 v 0.2832 q 0.439453,0.390625 1.49414,1.71875 l 0.61523,0.66406 h 0.16602 Q 19.169922,4.1992287 18.740235,3.8183694 Z m 9.052706,0.557 v 1.8359 q -0.283204,0.029297 -1.113282,0.8300781 v 0.058594 q 0.166016,0 1.113282,-0.7226562 v 0.058594 q 0,0.1367187 -0.166016,0.6640625 l -0.11719,-0.058594 q -0.273438,0.2246093 -0.273438,0.2832031 -1.542968,-0.2246094 -1.777343,-0.2246094 -0.38086,0.058594 -0.615235,0.058594 0.351563,-1.015625 2.783203,-2.6171875 0,-0.078125 0.166016,-0.1660157 z m -9.052706,0.166 v 0.2832 q 0.986328,1.0449219 1.328125,1.6601562 h 0.2832 Q 20.156247,5.8694969 18.740231,4.5413719 Z m 0,1.005 v 0.27344 q 0.478515,0.6542969 0.55664,0.6640625 h 0.21484 q -0.292969,-0.5371094 -0.771484,-0.9375 z m 5.439406,1.495 h 0.05859 v 0.11719 h -0.05859 z m 3.3301,0.058 h 0.05859 v 0.10742 h -0.05859 z m -3.3886,0.059 h 0.05859 v 0.16602 h -0.05859 z m 3.3398,0.049 h 0.04883 v 0.16602 h -0.04883 z m -3.3887,0.117 h 0.04883 v 0.10742 h -0.04883 z m 1.8262,0 h 0.16602 q 0.458984,0 1.279296,0.2246094 0,-0.058594 0.05859,-0.058594 v 0.10742 Q 26.943363,8.6427323 26.9043,8.8771073 h -0.05859 q 0,-0.2246094 -1.162109,-0.2246094 -1.298828,0 -2.333984,0.6152344 v -0.11719 Q 23.955085,7.724761 23.955085,7.5978079 h 0.05859 v 0.11719 q 1.09375,-0.390625 1.884766,-0.390625 z m 1.5039,0.049 h 0.05859 v 0.11719 h -0.05859 z m -3.3887,0.058 h 0.05859 v 0.16602 h -0.05859 z m 1.5039,1.446 q 0.283203,0 1.269531,0.1074219 v -0.10742 h 0.05859 v 0.10742 q -0.615235,1.4453121 -0.615235,1.6113281 h -0.04883 v -0.21484 h -0.94727 q -0.341796,0 -0.664062,-0.4492187 0,-0.1660157 1.162109,-0.1660157 h 0.67383 q 0.107422,0 0.107422,-0.1074218 -0.458984,-0.1171875 -0.996094,-0.1171875 -0.9375,0 -1.396484,0.2246093 -0.566406,-0.2734375 -0.605469,-0.4394531 v -0.058594 q 0.195313,0 1.113282,-0.3320312 0.566406,-0.058594 0.888671,-0.058594 z m -2.2265,0.39 h 0.05859 v 0.10742 h -0.05859 z m -0.0586,0.108 h 0.05859 q 0,0.15625 1.054687,0.664063 0.761719,0.615234 1.503906,1.33789 v -0.10742 h 0.04883 v 0.10742 q -0.439453,1.015625 -0.439453,1.16211 -1.621094,-1.435547 -2.783203,-1.611329 0.556641,-1.4355465 0.556641,-1.552734 z m 2.832,1.22 h 0.11719 v 0.05859 q -0.22461,0.449219 -0.22461,0.615234 h -0.05859 q 0,-0.08789 -0.332031,-0.507812 v -0.04883 q 0.361328,-0.117188 0.498047,-0.117188 z m -3.4375,0.332 h 0.04883 q 0,0.263672 0.888671,0.507813 1.064454,0.566406 1.728516,1.328125 v -0.10742 h 0.04883 v 0.10742 q -0.214844,0.449218 -0.214844,0.615234 h -0.05859 q 0,-0.410156 -1.162109,-1.054688 -0.253906,-0.263671 -1.445313,-0.78125 0,0.05859 -0.05859,0.05859 v -0.05859 q 0.224609,-0.439453 0.22461,-0.615234 z m -0.2832,0.674 h 0.05859 q 0,0.166016 1.33789,0.771484 l 1.2695,1.0547 q 0,-0.04883 0.05859,-0.04883 v 0.04883 q -0.273438,0.644532 -0.273438,0.78125 h -0.05859 q 0,-0.683593 -2.5,-1.884765 h -0.10742 q 0.214844,-0.625 0.214844,-0.722657 z m -0.2734,0.723 h 0.05859 v 0.16602 q -0.05859,0 -0.05859,0.04883 0.947265,0.04883 2.441406,1.503906 0,0.166016 0.224609,0.166016 l -0.2832,0.83008 h -0.04883 v -0.16602 q 0.04883,0 0.04883,-0.04883 -1.728516,-1.5625 -2.666016,-1.5625 l -0.04883,0.11719 q 0.722656,0.0098 2.382812,1.386719 l 0.2832,0.33203 q -0.224609,0.498047 -0.224609,0.664062 h -0.05859 q 0,-0.3125 -1.054687,-1.054687 -0.917969,-0.556641 -1.611329,-0.605469 l -0.04883,0.10742 v 0.05859 q 0.839844,0.107422 2.109375,0.9375 0.498047,0.507812 0.498047,0.615234 l 0.10742,-0.05859 v 0.05859 q -0.273437,0.585938 -0.273437,0.78125 h -0.05859 q -0.654297,-1.396484 -1.279297,-1.396484 -0.693359,-0.04883 -1.386719,-0.332031 v 0.11719 h -0.04883 v -0.11719 q 0.888672,-2.138672 0.996094,-2.548828 z m 3.2715,0.215 h 0.05859 v 0.11719 h -0.05859 z m -4.3262,2.4509 q 0.15625,0.117188 0.55664,0.214844 v 0.05859 q -0.185547,0.332031 -0.390625,0.390625 -0.332031,0 -0.332031,-0.22461 0.166016,-0.322265 0.166016,-0.439453 z m 1.2207,0.3808 q 0.751953,0 0.888671,0.673828 0.136719,0 0.22461,0.439453 v 0.33203 q -1.054688,0.22461 -1.054688,0.673828 0.107422,0.175782 0.107422,0.273438 0,0.08789 -0.498047,0.722656 -0.117187,0.419922 -0.117187,0.78125 v 0.21484 q 0,0.05859 -0.04883,0.05859 0.263672,1.142578 0.332031,1.220703 0.09766,0.05859 0.224609,0.05859 h 5.498 v 0.72266 q 0,0.175781 -0.117187,0.771484 0.117187,0.361328 0.117187,0.507813 v 0.99609 q -0.166015,0 -0.390625,0.05859 v 0.04883 h 0.39063 v 0.05859 h -9.1113 v -3.1641 l 0.10742,0.05859 q -0.04883,-0.117187 -0.04883,-0.175781 v -0.04883 h 0.04883 v 0.10742 q 0.527344,-0.605469 0.947266,-1.552734 h 0.05859 q 0.107422,0.175781 0.107422,0.332031 v 0.22461 q -0.07813,0.673828 -0.605469,1.445312 -0.439453,0.283204 -0.556641,0.332032 v 0.27344 q 1.220704,-0.634766 1.220704,-1.494141 0.09766,0 0.166015,-0.615234 0,-0.830078 -0.449219,-1.16211 0,0.04883 -0.04883,0.04883 v -0.10742 q 0.722657,-1.71875 0.722657,-1.835937 l 0.10742,0.05859 q 0.371093,-0.615234 0.78125,-0.615234 0.332031,-0.722657 0.996093,-0.722657 z m -1.4453,0.1758 h 0.05859 v 0.10742 h -0.05859 z m -0.0586,0.1074 h 0.05859 q 0,0.166016 0.107421,0.166016 v 0.05859 q -0.01953,0.107422 -0.273437,0.214843 v -0.10742 q 0.107422,-0.175781 0.107422,-0.332031 z m -0.166,0.4395 h 0.05859 v 0.11719 h -0.05859 z m -0.0489,0.1172 h 0.04883 v 0.16602 h -0.04883 z m -0.0586,0.166 h 0.05859 v 0.10742 h -0.05859 z m -0.0585,0.1074 h 0.05859 v 0.16602 h -0.05859 z m 3.3398,0.1172 h 0.04883 v 0.10742 h -0.04883 z m 0,0.1074 v 0.10742 q -0.22461,0.449219 -0.22461,0.615234 h -0.05859 q 0,-0.136718 -0.107422,-0.283203 0.107422,0 0.390625,-0.439453 z m -0.8398,0.4981 q 0.429687,0.332031 0.498047,0.332031 l -0.16602,0.55664 q -0.605469,-0.46875 -0.605469,-0.830078 z m 0.498,0.2246 h 0.05859 v 0.10742 h -0.05859 z m -0.6641,0.498 q 0.224609,0.234375 0.224609,0.449219 -0.08789,0.214843 -0.166016,0.214843 -0.205078,-0.04883 -0.332031,-0.380859 0,-0.15625 0.273438,-0.283203 z m 0.3907,0.166 h 0.05859 v 0.16602 h -0.05859 z m -0.0586,0.166 h 0.05859 v 0.11719 h -0.05859 z m -0.0489,0.1172 h 0.04883 v 0.16602 h -0.04883 z m -0.7226,0.0489 0.16602,0.22461 v 0.16602 q 0,0.09766 -0.390625,0.332031 v -0.33203 q 0,-0.302734 0.224609,-0.390625 z m 0.664,0.1171 h 0.05859 v 0.10742 h -0.05859 z m -3.38863,0.0489 h 0.05859 v 0.11719 h -0.05859 z m 3.33013,0.0586 h 0.05859 v 0.16602 h -0.05859 z m -3.38872,0.0586 h 0.05859 q 0,0.107422 0.05859,0.107422 -0.3125,1.02539 -0.615234,1.33789 v -0.05859 z m 3.38872,0.1074 v 0.05859 q -0.664063,1.640625 -0.664063,1.71875 h -0.05859 q -0.166015,-0.947266 -0.166015,-0.996094 0.517578,-0.595703 0.888672,-0.78125 z m -3.94536,1.3379 h 0.05859 v 0.10742 h -0.05859 z m -0.04883,0.1074 h 0.04883 v 0.10742 h -0.04883 z m -0.05859,0.1074 h 0.05859 v 0.16602 h -0.05859 z m -0.0586,0.166 h 0.05859 v 0.11719 h -0.05859 z m 3.33988,0.1172 h 0.04883 v 0.10742 h -0.04883 z m -0.0586,0.2246 q 0.625,1.328125 1.884765,1.328125 h 0.39063 q 1.113282,0 1.552735,-1.054688 v -0.27344 h -0.16602 q 0,0.966797 -1.660157,1.103516 h -0.16602 q -1.113281,0 -1.396484,-0.9375 v -0.05859 l 0.05859,-0.10742 h -0.49805 z m -3.330106,2.32425 v 0.2832 q 1.455078,-1.376953 1.992187,-2.333984 v -0.10742 q -0.166016,0.04883 -0.9375,1.162109 -0.693359,0.537109 -1.054687,0.996094 z m 3.222706,-1.05465 q -0.01953,0.126953 -1.5625,1.777344 h 0.16602 q 1.49414,-1.357422 1.503906,-1.71875 z m -2.89067,1.777306 h 0.22461 q 0.605468,-0.410156 1.660156,-1.552734 v -0.16602 h -0.05859 z m 5.99607,0 h 0.22461 q 0.791015,-0.791016 1.113281,-1.269531 v -0.11719 h -0.05859 z m -2.4414,-1.162106 q 0,0.126953 -0.947266,1.162109 h 0.22461 q 0.458984,-0.380859 0.888672,-1.103515 v -0.05859 h -0.16602 z m 1.2793,1.11328 v 0.04883 h 0.16602 q 0.55664,-0.429688 0.55664,-0.722656 h -0.05859 q -0.08789,0 -0.664062,0.673828 z m -1.2305,0 v 0.04883 h 0.2832 q 0.126953,0 0.390625,-0.556641 h -0.05859 q -0.498047,0.507813 -0.615235,0.507813 z m 3.3399,0.04883 h 0.27344 Q 26.51369,23.554691 26.51369,23.427738 H 26.4551 q -0.07813,0 -0.439453,0.498047 z m 3.671863,-20.45941 h 3.2031 q 0.214844,0 0.380859,1.3085937 l 1.1426,8.0273003 h 0.04883 q 1.083985,-8.2421878 1.308594,-9.277344 l 0.10742,-0.058594 h 3.252 q 0.244141,0 0.439453,2.1777344 0.15625,0.78125 1.083984,7.1582036 h 0.04883 q 1.142579,-8.9257817 1.308594,-9.2773442 l 0.10742,-0.058594 h 3.2031 q 0.07813,0 0.214844,0.2246093 -3.037109,19.5703129 -3.203125,20.2343749 l -0.10742,0.05859 h -2.9297 q -0.273438,0 -0.439453,-1.787109 -0.38086,-2.03125 -1.240235,-7.978516 h -0.05859 q -1.25,8.769531 -1.40625,9.658203 l -0.16602,0.10742 h -2.9297 q -0.283203,0 -0.488281,-2.060547 -0.05859,-0.06836 -3.095703,-18.2910153 z m 6.19139,0.606 v 0.048828 q 0.05859,0 0.15625,0.058594 0,-0.4394532 0.332031,-0.4394532 v -0.048828 h -0.27344 q -0.214844,0.087891 -0.214844,0.3808594 z m 1.1328,-0.225 h 0.05859 q 0.283203,0 0.322265,-0.15625 h -0.21484 q -0.07813,0 -0.166015,0.15625 z m 1.25,0 h 0.21484 q 0.136719,-0.1074219 0.224609,-0.1074219 v -0.048828 h -0.27344 q -0.07813,0 -0.166016,0.15625 z m -8.30076,0.059 q 0.08789,0.8105469 0.166015,0.8105469 1.367188,-0.15625 2.167969,-0.2148438 0.371094,0.058594 0.488281,0.1074219 V 4.560672 Q 32.744137,3.9063751 32.617184,3.9063751 h -2.6563 z m 6.24026,0 v 0.048828 q 0.05859,0.1660156 0.322265,0.1660156 h 0.05859 Q 36.757835,3.955203 36.855491,3.955203 V 3.906375 h -0.6543 z m 0.7031,0.322 v 0.058594 q 0,0.1171875 0.439453,0.2148437 l 0.70313,-0.5956999 h -0.81055 q -0.07813,0 -0.332031,0.3222656 z m 0.8691,0.488 1.1426,-0.53711 v -0.27344 h -0.43945 q -0.751953,0.5566406 -0.751953,0.8105469 h 0.04883 z m 4.5602,-0.81 v 0.27344 q 1.083984,-0.2246094 1.572265,-0.2246094 v -0.048828 h -1.5723 z m -3.3687,0.273 q 0.05859,0.097656 0.05859,0.15625 0.107421,0 0.107421,-0.1074219 v -0.15625 Q 38.96489,4.1207811 38.96489,4.179375 Z m 5.8107,-0.058 h -0.32227 q -0.263672,0 -2.226563,0.3222656 v 0.22461 l -0.05859,0.38086 q 1.982422,-0.6054687 2.822266,-0.6054687 l 0.05859,-0.37109 z m -8.7404,0.166 q 0,0.2929688 -0.15625,1.1914063 1.542968,0.4589843 3.574218,2.1191406 Q 39.218787,5.8010469 39.082069,5.8010469 36.630897,4.287375 36.035194,4.287375 Z m 6.0254,0 v 0.15625 q 0.107422,-0.048828 0.166015,-0.048828 v -0.10742 h -0.16602 z m -3.9063,0.644 0.86914,0.54688 h 0.10742 Q 39.082026,4.9606769 38.964838,4.4430987 Z m 6.8363,-0.429 v 0.16602 h 0.16602 v -0.16602 z m -12.1488,0.166 v 0.10742 q 0.04883,0 0.15625,0.048828 v -0.15625 h -0.15625 z m 9.2778,0.644 v -0.21484 q -0.107422,0.058594 -0.166016,0.058594 v 0.21484 l 0.10742,-0.058594 h 0.05859 v 0.33203 q 0.9375,-0.2734375 2.763672,-0.5957031 l 0.05859,-0.33203 q -0.556641,0 -2.822266,0.5957031 z m -12.21725,-0.488 v 0.10742 h 0.16602 v -0.15625 q -0.107422,0.048828 -0.166016,0.048828 z m 0.22461,0.166 0.10742,0.54688 q 0.517578,-0.1171875 1.464843,-0.1171875 h 0.654301 l 0.537109,0.058594 q 0,-0.6542969 -0.166015,-0.6542969 -0.205078,-0.048828 -0.429688,-0.048828 h -0.70313 q -0.615234,0 -1.464843,0.2148437 z m 14.75564,0.273 v 0.10742 h 0.16602 q 0,-0.1269531 0.04883,-0.2148438 h -0.10742 Q 44.8826,5.1657169 44.8826,5.2633731 Z m -9.1697,0.157 -0.04883,0.11719 q 0.0098,0.1074219 0.107422,0.1074219 h 0.04883 v -0.10742 q 0,-0.1171875 -0.107422,-0.1171875 z m 6.2987,0.82 v 0.16602 q 1.074219,-0.3808594 2.27539,-0.3808594 h 0.38086 q 0.117188,0 0.166016,-0.6054687 h -0.05859 q -1.09375,0 -2.714844,0.6054687 -0.04883,0.087891 -0.04883,0.2148438 z m -2.8221,-0.654 q 0.06836,0.3808594 0.214843,0.3808594 v -0.10742 l -0.05859,-0.38086 h -0.04883 q -0.107421,0.019531 -0.107421,0.1074218 z m -6.1914,-0.049 v 0.15625 h 0.16602 v -0.15625 z m -2.97856,0.049 q 0.04883,0.1074219 0.04883,0.1660156 h 0.16602 q -0.0586,-0.1074218 -0.0586,-0.1660156 z m 0.26367,0.166 v 0.048828 l 0.05859,0.48828 q 1.015625,-0.1074219 1.40625,-0.1074219 0.458984,0 1.308593,0.1660157 0,-0.6542969 -0.380859,-0.6542969 h -1.4648 q -0.283203,0 -0.927734,0.058594 z m 11.56239,0.107 v 0.16602 h 0.05859 q 0.08789,0 0.15625,-0.3320313 -0.214844,0.087891 -0.214844,0.1660157 z m -6.0253,-0.107 v 0.38086 q 0,0.068359 1.523437,0.703125 0.576172,0.3125 2.167969,1.5722656 h 0.05859 l -0.05859,-0.48828 0.21484,0.10742 V 7.9789376 Q 39.628884,7.7250314 39.511696,7.7055001 v 0.21484 Q 37.050759,6.1039339 35.82029,5.7523714 Z m 8.9553,0.322 v 0.21484 h 0.05859 q 0.107422,0 0.107422,-0.1074219 v -0.10742 h -0.16602 z m -9.1701,0.107 q 0,0.058594 -0.05859,0.1660156 0.05859,0 0.166016,0.058594 v -0.22461 H 35.6055 Z m 6.2401,1.143 h 0.05859 q 1.367187,-0.4882813 1.894531,-0.4882813 h 0.81055 l 0.05859,-0.38086 v -0.16602 h -0.05859 q -1.552734,0 -2.65625,0.4394532 -0.04883,0.4785156 -0.107422,0.5957031 z m -11.66981,-0.918 v 0.15625 h 0.16602 v -0.21484 q -0.107422,0.058594 -0.166016,0.058594 z m 2.92971,0 v 0.21484 Q 32.4219,6.5137931 31.699244,6.4551994 q -0.09766,0 -1.308594,0.1074218 l 0.05859,0.27344 v 0.16602 h 0.10742 q 0.615234,-0.3808593 1.191406,-0.3808593 0.644531,0 1.416016,0.5371093 V 7.1095032 Q 33.105492,6.8165345 33.105492,6.621222 h 0.16602 v -0.10742 q 0,-0.1074219 -0.107422,-0.1074219 H 33.1055 Z m 2.666,0.049 -0.05859,0.27344 v 0.32227 q 1.044922,0.1171875 4.013672,2.4414063 v -0.048828 q 0,-0.7324219 -0.595704,-0.9765625 -1.81641,-1.5527344 -3.359379,-2.0117188 z m 5.9671,0.166 v 0.15625 q 0.107422,-0.048828 0.166015,-0.048828 v -0.21484 h -0.05859 q -0.107422,0.00977 -0.107422,0.1074219 z m 2.871,0.381 v 0.10742 h 0.16602 q 0,-0.1269531 0.05859,-0.2148437 h -0.10742 Q 44.6096,6.9047169 44.6096,7.0023731 Z m -14.053,0.38 q 0,0.1171875 0.107422,0.8105469 0.126953,0 0.380859,-0.4394532 0.3125,-0.1953125 0.595703,-0.2636718 1.181641,0 1.689453,0.703125 v -0.058594 q 0,-0.5859375 -0.820312,-1.0253906 -0.273438,-0.1660157 -0.53711,-0.1660157 h -0.38086 q -0.732421,0 -1.035155,0.4394534 z m 4.9415,-0.38 q 0,0.058594 -0.05859,0.15625 l 0.10742,0.058594 h 0.05859 v -0.21484 h -0.10742 z m -5.21489,0.214 q 0.05859,0.097656 0.05859,0.2148437 l 0.16602,-0.10742 q -0.05859,-0.097656 -0.05859,-0.2148437 z m 11.72839,0.43 q 0,0.078125 0.380859,0.4882812 1.542969,-0.5371093 2.109375,-0.5371093 v -0.48828 q -1.513672,0 -2.490234,0.5371093 z m -6.3475,-0.381 v 0.22461 q 0.380859,0 0.810547,0.6445312 1.318359,0.4101563 3.359375,2.2265628 v -0.10742 q 0,-0.5078127 -0.917969,-1.0351565 -2.109375,-1.6601563 -3.251953,-1.953125 z m -2.4512,0.059 q 0,0.4101562 0.273437,0.6542969 v -0.058594 q -0.03906,-0.5957032 -0.15625,-0.5957032 h -0.11719 z m 8.4177,0.107 v 0.21484 q 0.01953,0.1074219 0.107422,0.1074219 l 0.04883,-0.10742 v -0.21484 h -0.15625 z m -6.24,0.108 v 0.16602 h 0.15625 v -0.16602 z m 9.111,0.107 v 0.22461 h 0.16602 v -0.22461 z m -12.9684,0.166 v 0.10742 q 0.214843,0 0.214843,0.058594 l 0.27344,-0.058594 q 0.390625,0.058594 0.439454,0.058594 h 0.04883 V 7.9197945 Q 31.806634,7.802607 31.806634,7.7537789 q -0.08789,0.058594 -0.273438,0.058594 z m 4.0723,-0.058 q -0.214844,1.09375 -0.214844,1.6894531 0.429687,0.2832032 0.429687,0.7031249 h 0.166021 q 0.107421,0 0.107421,-0.107422 V 9.9321113 q 0,-0.2246094 -0.380859,-0.9765625 v -0.058594 q 0.380859,-0.4101563 0.380859,-0.6542969 0,-0.3125 -0.488281,-0.4882813 z m 6.1821,0.166 -0.21484,1.416 q 0.136718,0 0.380859,0.1074219 l 0.92773,-0.43945 q 0,-0.097656 -0.976562,-1.0253907 z m 0.976,0.488 q 0.15625,0.234375 0.380859,0.4882813 0.283203,-0.097656 1.201172,-0.2734375 0,-0.1367188 0.107422,-0.7031251 h -0.05859 Q 42.763593,8.174 42.763594,8.408375 Z m -12.0409,0.058 q 0.04883,0.2929687 0.04883,0.4296875 0.742187,-0.1660156 1.357422,-0.1660156 h 0.71289 q 0.07813,0 0.214844,-0.2148438 v -0.048828 q -0.11719,-0.2734375 -1.738284,-0.2734375 -0.166015,0 -0.595702,0.2734374 z m 2.6562,-0.107 0.05859,0.26367 0.15625,-0.10742 Q 33.54491,8.4375 33.54491,8.1933594 q -0.07813,0 -0.166016,0.1660156 z m -2.8711,0.049 v 0.16602 q 0.09766,-0.058594 0.15625,-0.058594 v -0.21484 h -0.04883 q -0.107422,0.019531 -0.107422,0.1074219 z m 5.8594,0.058 Q 36.259772,8.6421562 36.259772,8.7886406 37.460944,9.4234062 37.880866,9.7652031 38.369147,9.6577812 38.369147,9.5503594 37.597662,8.8179375 36.367194,8.466375 Z m 3.2524,0.108 q 0.09766,0.3808594 0.214843,0.3808594 v -0.27344 q -0.07813,0 -0.214843,-0.1074219 z m -7.1098,1.357 0.16602,0.10742 h 0.04883 q 0.488281,-0.078125 0.488281,-0.3222656 -0.04883,-0.1074219 -0.04883,-0.1660157 0.244141,-0.2734375 0.322266,-0.2734375 -0.03906,-0.546875 -0.15625,-0.546875 -0.820313,0.5078125 -0.820313,1.2011719 z m 11.8358,-1.201 v 0.16602 h 0.04883 q 0.107422,0 0.107422,-0.1074219 v -0.058594 h -0.15625 z m -13.7304,0.225 v 0.21484 q 0.09766,-0.058594 0.15625,-0.058594 v -0.15625 h -0.15625 z m 0.2149,0.156 q 0.03906,0.546875 0.166015,0.546875 1.357422,-0.1367187 1.357422,-0.3222656 l 0.10742,-0.27344 q -0.117187,-0.058594 -0.595703,-0.1074219 -0.878906,0.15625 -1.035156,0.15625 z m 12.4215,0.273 -0.26367,-0.048828 q -0.292969,0 -1.523438,0.751953 V 9.8238301 h -0.04883 q -0.09766,0 -0.166015,0.3808599 l 0.21484,-0.11719 v 0.05859 q 0,0.244141 -0.214844,1.572266 0.917969,-1.191406 2.822266,-1.7382811 0.06836,0 0.214843,-1.0253907 Q 43.25159,9.091403 43.25159,9.3843717 Z m -7.0992,-0.214 q 0,0.4003906 1.40625,1.191406 l 0.10742,-0.3808597 Q 36.35747,9.1117806 36.152392,9.1117806 v 0.058594 z m -2.6075,0.048 v 0.058594 q 0.04883,0.4785156 0.04883,0.546875 h 0.16602 v -0.16602 q 0,-0.1074219 -0.107422,-0.1074219 l 0.04883,-0.10742 v -0.22461 h -0.15625 z m 7.8707,0 -0.05859,0.22461 0.10742,0.048828 h 0.05859 v -0.15625 q 0,-0.1171875 -0.107422,-0.1171875 z m -6.2496,0.166 -0.04883,0.21484 0.10742,0.058594 h 0.05859 q 0,-0.1269531 0.04883,-0.2148437 l -0.10742,-0.058594 h -0.05859 z m 4.6196,0.215 v 0.058594 q 0.107422,0.3222656 0.214844,0.3222656 v -0.15625 q 0,-0.087891 -0.214844,-0.2246096 z m -9.0629,0.166 v 0.058594 q 0.04883,0.097656 0.04883,0.15625 0.107422,-0.048828 0.166015,-0.048828 -0.05859,-0.1074219 -0.05859,-0.1660156 z m 0.2734,0.166 0.04883,0.53711 0.97656,-0.26367 h 0.27344 v -0.05859 q 0,-0.3808594 -0.429688,-0.3808594 -0.224609,0 -0.86914,0.1660157 z m 4.2871,-0.166 q 0,0.302734 -0.05859,0.595703 h 0.27344 v -0.10742 q 0,-0.4101561 -0.214844,-0.4882811 z m -2.1777,0.44 v 0.04883 l 0.54688,0.10742 Q 33.59378,10.166311 33.59378,9.8733418 33.261749,10.205373 33.105499,10.205373 Z m 4.834,0.049 v 0.05859 q 0,0.107422 0.537109,0.15625 v 0.33203 q 0,0.751953 -1.572266,0.976562 h -0.04883 l -0.27344,-0.22461 q 0.03906,-0.322265 0.107422,-0.322265 -0.06836,-0.761719 -0.537109,-0.761719 h -0.16602 l -0.10742,0.05859 0.04883,0.27344 q -0.04883,0.09766 -0.04883,0.15625 H 35.6641 l -0.33203,-0.26367 h -0.16602 q -0.04883,0.478516 -0.04883,0.595703 0.273437,0.136719 0.273437,0.429688 v 0.43945 q 0,0.478515 -0.595703,1.240234 0,0.38086 -0.05859,0.439453 h 0.05859 q 0.810547,-0.527343 0.869141,-0.86914 h 0.10742 q 0.107422,0 0.107422,0.166015 -0.117188,0.458985 -1.201172,1.132813 0,0.380859 -0.214844,0.380859 -0.214844,-0.08789 -0.214844,-0.322265 -0.24414,0.107421 -0.703125,0.107421 -1.035156,0 -1.904296,-0.546875 v 0.05859 q 0,0.595703 0.380859,0.595703 0.3125,0.08789 1.035156,0.166016 v 0.04883 l -0.10742,0.16602 q 0.07813,0 1.679688,0.380859 0,-0.08789 0.976562,-0.380859 1.00586,-0.888672 1.523438,-2.441406 0.0293,-0.166016 1.513672,-0.810547 0.595703,-0.449219 0.810546,-0.761719 v -0.21484 q 0,-0.546875 -0.917968,-0.7617185 h -0.27344 q -0.214844,0.3222655 -0.322266,0.3222655 z m 6.1821,-0.166 v 0.11719 h 0.05859 q 0.07813,0 0.166015,-0.2246094 h -0.10742 q -0.117187,0.019531 -0.117187,0.1074224 z m -7.7056,-0.049 v 0.10742 q 0.292968,0.224609 0.546875,0.654297 l 0.6543,0.53711 q 0.214843,-0.07813 0.214843,-0.15625 v -0.11719 Q 37.705059,10.80109 36.523419,10.039371 h -0.10742 z m 4.7756,2.06 v -0.21484 q -0.214844,0.08789 -0.214844,0.380859 v 0.04883 q 0.166016,0 0.166016,-0.214843 h 0.04883 v 0.10742 l -0.15625,1.1914 q 1.533203,-2.148438 2.929687,-2.490235 0.107422,-0.517578 0.107422,-0.654297 -1.816406,0.556641 -2.880859,1.845703 z m -6.1818,-1.787 v 0.26367 q 0.05859,0 0.15625,0.05859 v -0.21484 q 0,-0.107422 -0.107422,-0.107422 h -0.04883 z m -1.3086,0.108 v 0.10742 l 0.11719,0.16602 -0.05859,0.26367 q 0.107422,0.478516 0.107422,0.761719 -0.22461,-0.38086 -0.429688,-0.38086 -0.55664,-0.107422 -0.654297,-0.107422 -1.523437,0.22461 -1.523437,0.439454 v 0.04883 q 0.0098,0.05859 0.546875,0.488281 1.005859,-0.322266 1.630859,-0.322266 0.429688,0 0.429688,-0.05859 v -0.10742 h 0.05859 l 0.10742,0.05859 v -0.16602 q 0,-0.224609 -0.166016,-0.429687 l 0.05859,-0.27344 q 0,-0.458984 -0.224609,-0.488281 z m -2.5977,0.322 q 0.03906,0.546875 0.15625,0.546875 0.86914,-0.273438 1.582031,-0.273438 h 0.64453 l 0.10742,0.04883 q 0.107422,-0.175781 0.107422,-0.322265 v -0.10742 q -1.044922,-0.166016 -1.513672,-0.166016 -0.234375,0 -1.083984,0.273438 z m -0.2246,-0.108 v 0.10742 h 0.16602 v -0.21484 h -0.04883 q -0.117188,0.01953 -0.117188,0.107422 z m 9.0727,-0.107 v 0.32227 q 0.15625,0 0.15625,0.107422 -0.04883,0.371094 -0.04883,0.595703 0.07813,0 0.15625,-0.214844 -0.08789,-0.810547 -0.263672,-0.810547 z m -1.9047,0.215 v 0.10742 h 0.05859 v -0.10742 z m 5.9667,0.166 v 0.15625 h 0.05859 q 0.107422,0 0.107422,-0.107422 v -0.10742 q -0.107422,0.05859 -0.166016,0.05859 z m -5.8593,3.8475 q 0.40039,3.642578 0.703125,3.642578 0.40039,0.439453 0.546875,0.488281 v -0.05859 q -0.595703,-1.328125 -0.595703,-2.5 -0.03906,0 -0.166016,-0.917968 0.09766,-0.166016 0.214844,-1.738282 0.224609,-0.771484 1.142578,-2.441406 l -0.04883,-0.27344 q -1.796875,1.933594 -1.796875,3.798828 z m -3.2519,-3.6325 v 0.21484 q 0.0098,0.107422 0.107422,0.107422 h 0.04883 v -0.15625 q 0,-0.07813 -0.15625,-0.166016 z m 5.7522,4.3942 v 0.5957 q 0,0.654297 0.429687,1.630859 0,0.732422 1.357422,2.060547 l 0.10742,0.05859 q 0.107422,-0.3125 0.107422,-0.71289 -0.322266,0 -0.869141,-1.728516 -0.15625,-0.654297 -0.15625,-1.09375 0,-2.080078 1.621094,-3.740234 0.546875,-0.175782 0.546875,-0.703125 0.107422,-0.3125 0.107422,-0.703125 -1.71875,0.732422 -2.978516,2.978515 -0.273437,0.917969 -0.273437,1.357422 z m -3.6917,-4.2282 v 0.15625 h 0.16602 v -0.04883 q 0,-0.107422 -0.117188,-0.107422 h -0.04883 z m -5.918,0.107 v 0.15625 q 0,0.419922 0.214843,0.488281 v -0.04883 q 0,-0.07813 -0.107421,-0.595703 h -0.10742 z m 3.9649,0.381 v 0.15625 q 0.01953,0.107422 0.107422,0.107422 v -0.26367 h -0.10742 z m 4.9898,0 q -1.035156,2.138672 -1.035156,3.632812 0.273437,2.519532 0.605468,2.929688 0.341797,1.123047 1.298828,2.011719 0.800782,0.742187 1.464844,1.132812 0,-0.06836 0.05859,-0.537109 -1.699219,-0.966797 -2.5,-3.095703 -0.185547,-0.664063 -0.273438,-0.810547 0,-2.587891 0.654297,-3.857422 l -0.21484,-1.4063 h -0.05859 z m -6.0738,0.156 v 0.16602 h 0.15625 v -0.16602 z m 0.8691,0.059 v 0.27344 h 0.15625 v -0.22461 q -0.05859,0 -0.15625,-0.04883 z m 2.9785,0.654 q 0.166015,0.917969 0.166015,1.191406 h 0.04883 q 0.253907,-1.064453 0.654297,-1.738281 0.05859,0 0.05859,-0.107422 h -0.05859 q -0.800781,0.322266 -0.86914,0.654297 z m 6.1912,-0.547 -0.16602,0.21484 v 0.10742 q 0.146484,0 0.214843,-0.322266 h -0.04883 z m -12.6462,0.059 q 0.214843,1.464844 0.380859,1.464844 0.957031,0.537109 1.845703,0.537109 0.302735,0 0.644531,-0.107422 -0.04883,-0.546875 -0.15625,-0.546875 h -0.27344 q -0.996093,0 -2.441406,-1.347656 z m 0.9179,0.322 q 0.117187,0.214844 0.273437,0.214844 l 1.4648,-0.16602 -0.04883,-0.10742 v -0.26367 h -0.10742 q -1.582031,0 -1.582031,0.322265 z m 2.7149,-0.107 q 0,0.175781 -0.04883,0.273437 h 0.04883 q 0.107422,-0.175781 0.107422,-0.273437 h -0.10742 z m -0.918,0.215 v 0.16602 h 0.15625 v -0.16602 z m 3.5254,0 q -0.273438,0.517578 -0.595703,3.095703 0.04883,0.07813 0.04883,0.322266 h 0.05859 q 0.214843,-1.728516 0.488281,-3.203125 h 0.05859 v 0.10742 h 0.04883 l 0.05859,-0.26367 -0.10742,-0.05859 h -0.05859 z m 4.346,4.0718 q 0,0.527344 0.751953,2.167969 0.107422,0 0.107422,-0.107422 v -0.16602 l -0.21484,-0.5957 q 0,-0.253906 0.273437,-0.654297 -0.273437,-0.927734 -0.273437,-1.347656 0,-1.933594 1.083984,-2.88086 0.05859,-0.302734 0.05859,-0.429687 h -0.05859 q -1.728516,1.40625 -1.728516,4.013672 z m -7.2269,-3.9648 v 0.21484 l -0.04883,0.38086 h 0.04883 q 0.166015,-0.0293 0.166015,-0.429687 v -0.16602 h -0.16602 z m -1.6211,0.215 v 0.10742 q 0.537109,0.224609 0.917968,0.224609 h 0.10742 l -0.04883,-0.10742 v -0.33203 q -0.107421,0 -0.107421,-0.04883 -0.107422,0.04883 -0.869141,0.15625 z m 4.2286,-0.108 q 0,0.185547 -0.869141,1.796875 v 0.64453 q 0,0.751953 0.380859,1.201172 0.273438,-2.568359 0.546875,-3.583984 v -0.05859 h -0.05859 z m 6.3474,0.547 v 0.10742 q 0.224609,-0.07813 0.224609,-0.488281 -0.224609,0.08789 -0.224609,0.380859 z m -3.252,-0.332 -0.05859,0.27344 v 0.05859 q 0.01953,0.107422 0.117187,0.107422 l 0.04883,-0.27344 v -0.04883 q 0,-0.117188 -0.107421,-0.117188 z m -6.24,0.225 v 0.21484 h 0.16602 v -0.10742 q 0,-0.107422 -0.117188,-0.107422 h -0.04883 z m -2.7734,0.215 v 0.16602 q 0,0.07813 0.166015,0.15625 v -0.15625 q 0,-0.07813 -0.166015,-0.166016 z m 12.1094,0.214 q -0.654297,0.830078 -0.654297,2.392578 0,0.234375 0.166015,0.869141 h 0.04883 l 0.488281,-3.2031 V 13.6714 h -0.04883 z m -3.154,0.059 q -0.429688,1.337891 -0.429688,2.978516 0.53711,2.34375 1.679688,3.310547 0.351562,0.302734 0.820312,0.595703 h 0.04883 l 0.05859,-0.26367 v -0.10742 q -1.357422,-1.083985 -1.738281,-2.607422 -0.380859,-1.00586 -0.380859,-1.679688 v -0.60547 q 0,-0.214844 0.107421,-0.703125 -0.107421,-0.673828 -0.107421,-0.917969 h -0.05859 z m 0.547,0.049 -0.21484,0.5957 h -0.05859 v 0.16602 h 0.16602 q 0.166015,-0.527344 0.166015,-0.703125 v -0.05859 h -0.05859 z m -6.3481,0.2734 v 0.10742 h 0.15625 v -0.21484 h -0.04883 q -0.107422,0.01953 -0.107422,0.107422 z m -0.2734,0.1074 v 0.10742 h 0.16602 v -0.21484 h -0.05859 q -0.107422,0.01953 -0.107422,0.107422 z m 3.6914,-0.0488 -0.05859,0.48828 q 0.107422,0.673828 0.107422,0.917969 h 0.05859 q 0,-0.400391 0.05859,-0.595703 -0.117187,-0.46875 -0.117187,-0.810547 h -0.04883 z m -6.4063,0.2636 v 0.16602 q 0.01953,0.107422 0.107422,0.107422 h 0.05859 v -0.10742 q 0,-0.07813 -0.166016,-0.166016 z m 0.2149,0.3809 q 0.05859,0.107422 0.05859,0.166016 h 0.27344 v -0.05859 q -0.09766,0 -0.332031,-0.107422 z m 4.0234,0.8691 q 0.263672,0.166016 0.263672,0.380859 h 0.16602 Q 36.093764,15.3906 36.093764,15.136694 v -0.21484 h -0.05859 q -0.263672,0.07813 -0.263672,0.703125 z m -4.1797,-0.6445 q 0.04883,0.08789 0.04883,0.214844 h 0.16602 v -0.05859 q -0.05859,-0.107422 -0.05859,-0.15625 h -0.15625 z m 0.2734,0.2148 0.26367,1.7383 0.38086,-0.05859 h 0.48828 q 1.699219,0 3.52539,1.298828 h 0.05859 l 0.16602,-1.4063 Q 34.42379,15.195244 31.865196,15.195244 Z m 3.252,0.3223 q 0.107422,0.107422 0.322265,0.107422 l 0.05859,-0.21484 q -0.107422,-0.05859 -0.166015,-0.05859 -0.214844,0.08789 -0.214844,0.166016 z m 1.6797,1.1914 q 0,0.07813 0.166015,0.166016 v -0.27344 h -0.05859 q -0.107421,0.01953 -0.107421,0.107421 z m -4.8242,0.2734 v 0.16602 h 0.15625 v -0.16602 z m 0.2148,0.2149 q 0,0.488281 0.322265,0.488281 1.699219,0 3.964844,1.25 0,-0.380859 0.04883,-0.429687 -1.904297,-1.357422 -3.574218,-1.357422 h -0.38086 z m 10.8501,-0.0488 q -0.04883,0.380859 -0.04883,0.429687 h 0.15625 q 0,-0.136718 0.05859,-0.429687 h -0.16602 z m -10.9575,0.5371 v 0.16602 h 0.15625 v -0.16602 z m 6.289,0.0586 v 0.04883 q 0.06836,0.654297 0.273437,0.654297 v -0.04883 q 0,-0.117188 -0.214844,-0.654297 z m 4.4535,0.0488 v 0.22461 h 0.05859 v -0.22461 z m -10.5277,0.1172 q 0.107422,0.751953 0.166015,0.751953 2.001953,0.234375 3.847657,1.416016 0,-0.488282 0.107421,-0.810547 -1.835937,-1.123047 -3.90625,-1.308594 -0.09766,-0.04883 -0.214843,-0.04883 z m 10.5857,0.3222 q 0,0.166016 -0.05859,0.166016 0.107422,0.175781 0.107422,0.263671 h 0.05859 q 0,-0.15625 0.04883,-0.371093 l -0.10742,-0.05859 h -0.04883 z m -6.2986,0.0586 v 0.21484 q 0.01953,0.107422 0.107422,0.107422 l 0.05859,-0.27344 -0.10742,-0.04883 h -0.05859 z m -4.3457,0.3711 v 0.11719 q 0.01953,0.107422 0.117187,0.107422 h 0.04883 v -0.10742 q 0,-0.117188 -0.107422,-0.117188 h -0.05859 z m 6.4649,0 q 0.263672,1.904297 0.537109,1.904297 2.128906,2.03125 2.88086,2.275391 v -0.04883 l 0.15625,-0.976559 Q 41.132834,21.04489 38.701194,18.662078 Z m -6.2403,0.2735 q 0,0.654297 0.380859,0.654297 1.699219,0.449219 3.310547,1.513672 0,-0.273438 0.107422,-0.751953 Q 35.2148,19.580106 33.6523,19.150419 32.841753,18.935575 32.460894,18.935575 Z m 4.0137,0.1074 v 0.27344 h 0.10742 l 0.05859,-0.21484 -0.11719,-0.05859 h -0.04883 z m 6.289,0 -0.04883,0.10742 v 0.05859 q 0,0.07813 0.166015,0.166016 v -0.22461 q 0,-0.107422 -0.117187,-0.107422 z m -10.4101,0.4883 q 0.04883,0.107422 0.04883,0.166016 h 0.16602 v -0.05859 q 0,-0.107422 -0.107422,-0.107422 H 32.3535 Z m 0.2637,0.2734 v 0.05859 q 0,0.595703 0.273437,0.595703 1.142578,0.166016 3.095703,1.40625 h 0.04883 v -0.10742 l 0.05859,-0.38086 Q 34.482428,20.341786 32.890631,19.86327 Z m 9.9904,0.2149 q 0,0.0293 -0.05859,0.224609 l 0.16602,0.10742 v -0.22461 q 0,-0.107421 -0.107422,-0.107421 z m -3.8576,0.1074 v 0.05859 q 0,0.292969 0.214844,0.380859 v -0.05859 q -0.06836,-0.380859 -0.214844,-0.380859 z m -2.4414,0.0586 v 0.21484 h 0.05859 q 0.107422,0 0.107422,-0.107422 0,-0.107422 -0.10742,-0.10742 h -0.05859 z m -3.7988,0.2148 q 0.146484,1.083984 0.332031,1.083984 v -0.04883 q 0,-0.117187 -0.166016,-0.703125 l 0.04883,-0.11719 q -0.04883,-0.08789 -0.04883,-0.214843 h -0.16602 z m 0.2734,0.332 q 0,0.664062 1.298828,0.917969 0.869141,0.439453 1.738281,1.035156 h 0.10742 v -0.16602 l 0.05859,-0.38086 Q 34.61913,21.289011 33.05663,20.73237 v -0.05859 q -0.08789,0.05859 -0.273438,0.05859 z m 6.2402,0 q 0.05859,0.04883 0.107422,0.703125 l -0.21484,-0.16602 q 0.06836,0.439453 0.214843,0.439453 v -0.27344 q 2.148438,2.001953 2.88086,2.001953 l 0.04883,-0.26367 q -0.869141,-0.380859 -3.03711,-2.441406 z m 3.4762,0 q 0,0.01953 -0.05859,0.214844 l 0.10742,0.04883 h 0.05859 v -0.15625 q 0,-0.107422 -0.107422,-0.107422 z m -6.3472,0.4883 v 0.10742 q 0.0098,0.107422 0.107422,0.107422 h 0.04883 v -0.10742 q 0,-0.107422 -0.107422,-0.107422 z m 6.1812,0.3223 v 0.21484 q 0.01953,0.107422 0.107422,0.107422 l 0.05859,-0.10742 v -0.04883 q 0,-0.07813 -0.166016,-0.166016 z m -9.0621,0.1074 -0.05859,0.10742 q 0,0.458984 1.201172,0.927734 l 1.3574,0.86914 q 0.04883,-0.419921 0.107421,-0.546875 l 0.10742,0.05859 h 0.04883 q 0,-0.05859 0.05859,-0.166015 l -0.16602,-0.10742 q 0,0.214844 -0.107422,0.214844 -1.689453,-1.152344 -2.548828,-1.357422 z m -0.3223,0.2149 q 0.263672,1.328125 0.263672,1.689453 h 0.48828 q -0.07813,-0.341797 -0.488282,-1.201172 0,-0.263672 -0.26367,-0.488281 z m 6.2891,0.0586 v 0.04883 q 0,0.517578 1.308593,1.582031 h 0.81055 q -1.005859,-0.683594 -2.11914,-1.630859 z m -3.2031,0.0488 v 0.22461 h 0.16602 v -0.16602 q -0.05859,0 -0.166016,-0.05859 z m 3.0468,0.2246 v 0.10742 q 0.06836,0.380859 0.214844,0.380859 v -0.10742 q -0.07813,-0.380859 -0.214844,-0.380859 z m -5.4296,0.4883 q 0.273437,0.810547 0.703125,0.810547 0,0.05859 0.05859,0.05859 h 0.86914 v -0.05859 Q 33.82817,22.685575 33.701217,22.685575 Z m 5.7519,0.2148 v 0.04883 q 0.04883,0.488281 0.04883,0.605469 h 0.60547 q 0,-0.07813 -0.654297,-0.654297 z m 2.7153,0.0488 v 0.16602 q 0.01953,0.107422 0.107422,0.107422 h 0.04883 v -0.15625 q 0,-0.117188 -0.107422,-0.117188 h -0.04883 z m -0.44,0.65434 v 0.05859 l 0.48828,0.10742 v -0.16602 q -0.107422,0 -0.107422,-0.04883 -0.06836,0.04883 -0.380859,0.04883 z m -7.9198,0 q 0.05859,0.107422 0.05859,0.166016 h 0.10742 q 0.15625,0 0.15625,-0.05859 l 0.33203,0.05859 h 0.214841 v -0.05859 q -0.205079,0 -0.322266,-0.107422 h -0.54688 z m 1.7383,0 q 0,0.07813 0.166015,0.166016 h 0.26367 q 0,-0.07813 -0.15625,-0.166016 h -0.27344 z m 4.7165,0 v 0.05859 q 0.08789,0 0.224609,0.107422 h 0.21484 q 0,-0.07813 -0.166016,-0.166016 h -0.27344 z m 6.074465,-20.16614 h 8.6426 q 0.08789,0 0.166015,0.1660156 v 3.1543 q 0,0.078125 -0.166015,0.15625 h -5.4297 v 5.0586004 h 3.75 q 0.380859,0 0.380859,0.654297 v 2.334 q 0,0.419921 -0.224609,0.488281 h -3.9063 v 5.0586 h 5.2148 q 0.302734,0 0.380859,0.214844 v 3.0957 q 0,0.08789 -0.166016,0.166015 h -8.6914 q -0.08789,0 -0.166015,-0.166015 V 3.6522625 q 0,-0.078125 0.214844,-0.2148437 z m 1.47466,0.274 v 0.048828 l 0.26367,0.058594 h 0.22461 q 0.107422,0 0.107422,-0.1074219 h -0.5957 z m 2.2753,0.048 v 0.058594 h 0.16602 l 0.27344,-0.058594 V 3.710547 h -0.16602 z m 1.7383,0 v 0.058594 h 0.27344 l 0.27344,-0.058594 V 3.710547 h -0.16602 z m -5.32224,0.118 v 0.53711 h -0.05859 l -0.10742,-0.048828 v 0.10742 q 0.01953,0.1074219 0.107422,0.1074219 h 0.05859 q 0,-0.1660156 0.05859,-0.1660156 0.488282,0.1074218 3.144532,2.0703125 h 1.7383 Q 50.166037,5.2836239 48.789084,4.473077 48.125021,3.8773739 47.812521,3.8773739 h -1.3574 z m 2.01174,0 q 0.390625,0.3710938 0.654297,0.3710938 0.185547,0 0.644531,-0.3710938 h -1.2988 z m 0.9765,0.703 q 0.166015,0 0.166015,0.1660156 h 0.04883 q 0.09766,0 0.927735,-0.4980469 0.654297,-0.3222656 0.761719,-0.3222656 v -0.048828 h -0.92773 q -0.361329,0 -0.976563,0.703125 z m 0.6543,0.322 q 0.175781,0.3808594 0.429687,0.3808594 2.441407,-1.25 4.13086,-1.2988282 v -0.10742 h -2.168 q -0.830078,0 -2.392578,1.0253907 z m 4.6192,-0.869 v 0.10742 h 0.16602 v -0.10742 z m -3.916,1.582 q 0.136718,0.00977 0.488281,0.4296875 2.529297,-1.25 3.369141,-1.25 v -0.5957 q -1.738282,0.1171875 -3.632813,1.1425781 0,0.029297 -0.224609,0.2734375 z m -4.34574,-0.928 v 0.43945 q 0.03906,0.087891 1.572265,0.8691406 0.273438,0.2148438 1.09375,0.703125 0,-0.078125 0.107422,-0.2148437 V 6.4256529 Q 46.660157,4.6873716 46.455079,4.6873716 Z m 8.26174,0.166 v 0.15625 h 0.16602 v -0.15625 z m -3.0469,1.406 v 0.11719 q 0.01953,0.1074219 0.107422,0.1074219 h 0.71289 q 1.728515,-0.546875 2.060547,-0.546875 h 0.107419 v -0.86914 Q 53.29101,5.194925 51.72851,6.1519562 Z m -5.38086,-1.084 v 0.10742 q 0.01953,0.1074219 0.107422,0.1074219 h 0.05859 v -0.10742 q 0,-0.1074219 -0.107422,-0.1074219 z m 0.16602,0.274 v 0.70313 q 0.0098,0.097656 1.191406,0.4882812 0.615234,0.4492188 1.416016,0.8203125 v -0.48828 Q 47.080079,5.7521156 46.455079,5.4493812 Z m 8.26174,0.488 v 0.16602 h 0.16602 v -0.16602 z m -1.25,0.488 v 0.058594 h 1.1914 v -0.33203 q -0.214844,0 -1.191406,0.2734375 z m -7.17776,-0.214 v 0.048828 q 0.01953,0.1171875 0.107422,0.1171875 h 0.05859 v -0.058594 q 0,-0.1074219 -0.107422,-0.1074219 z m 0.16602,0.214 v 0.54688 q 0.205078,0.1757812 1.796875,0.8691406 0.703125,0.4296875 0.810547,0.4296875 v -0.42969 Q 48.339844,7.323815 46.455079,6.4253775 Z m 2.98824,0.108 q 0,0.087891 0.166015,0.1660156 h 0.21484 Q 49.765581,6.533375 49.501909,6.533375 Z m 2.1192,0 v 0.058594 q 0.01953,0.1074219 0.107422,0.1074219 h 0.22461 q 0,-0.078125 -0.166016,-0.1660157 h -0.16602 z m 0.7617,0.107 v 0.058594 h 0.38086 l 0.38086,-0.10742 V 6.532955 h -0.32227 q -0.05859,0 -0.439453,0.1074219 z m -3.2031,0.166 v 0.21484 q 0.04883,0 0.15625,0.058594 v -0.16602 q 0,-0.1074218 -0.107422,-0.1074218 h -0.04883 z m -2.83206,0.215 v 0.16602 q 0.05859,0 0.166015,0.058594 v -0.16602 q -0.05859,0 -0.166015,-0.058594 z m 0.16602,0.274 v 0.48828 h -0.16602 v 0.10742 q 0.01953,0.1171875 0.107422,0.1171875 h 0.05859 v -0.22461 q 0.9375,0.2441406 2.558593,1.09375 h 0.04883 v -0.27344 q -0.10742,-0.2050781 -2.60742,-1.3085938 z m 2.66604,0.273 v 0.16602 q 0.0098,0.1074219 0.107422,0.1074219 h 0.04883 v -0.21484 q -0.04883,0 -0.15625,-0.058594 z m -2.66604,0.488 v 0.43945 h -0.16602 v 0.10742 q 0.01953,0.1074219 0.107422,0.1074219 h 0.05859 v -0.21484 q 0.07813,0 1.191406,0.4882812 0.498047,-0.097656 0.498047,-0.2246094 0,-0.1757812 -1.689453,-0.703125 z m 2.66604,0.332 v 0.10742 q 0,0.078125 0.15625,0.15625 v -0.21484 q -0.04883,0 -0.15625,-0.048828 z m -2.66604,0.371 v 0.54688 q 0,0.1367188 0.86914,0.3808594 l 0.10742,-0.48828 Q 46.884764,8.9156313 46.455077,8.7593813 Z m 2.66604,0.225 v 0.27344 q 0,0.078125 0.15625,0.15625 v -0.38086 q -0.04883,0 -0.15625,-0.048828 z m -1.416,0.488 v 0.16602 h 0.32227 q 0.05859,0 0.05859,-0.058594 0.214844,0.078125 0.214844,0.1660157 v 0.10742 q 0,0.7226563 -1.083984,0.8691403 h -0.43945 q -0.146485,0 -0.322266,-0.107421 v 2.3926 h 0.05859 q 0.371094,-0.683594 0.371094,-1.25 l -0.04883,-0.27344 q 1.289062,-0.507813 2.226562,-1.464844 V 9.3063819 q 0,-0.1367188 -0.429687,-0.2148438 h -0.22461 q -0.703125,0.2148438 -0.703125,0.3808594 z m -1.41606,-0.107 v 0.21484 q 0.05859,0 0.166015,0.058594 v -0.16602 q 0,-0.1074219 -0.107421,-0.1074219 h -0.05859 z m 0.16602,0.322 v 0.38086 l -0.16602,-0.10742 v 0.38086 q 0,0.07813 0.166015,0.166016 v -0.43945 h 0.05859 q 0.810547,0.205078 0.810547,0.322265 0.214844,-0.07813 0.214844,-0.15625 -0.429688,-0.4394529 -1.025391,-0.5468747 h -0.05859 z m 2.77344,0.108 q 0,0.087891 -0.107422,0.224609 v 0.5957 q 0.15625,-0.05859 0.15625,-0.332031 V 9.7953731 h -0.04883 z m -0.2148,1.093 q -0.986328,1.943359 -0.986328,3.369141 v 0.26367 q 0,2.060546 0.86914,2.880859 v -0.04883 q -0.322265,-1.074219 -0.322265,-1.953125 0,-1.582031 0.488281,-3.642578 v -0.86914 h -0.04883 z m -1.8555,3.7991 q 0,1.035156 0.761719,1.689453 h 0.05859 q -0.214844,-0.712891 -0.214844,-1.689453 v -0.21484 q 0,-1.943359 0.917969,-3.535156 h -0.04883 q -1.00586,0 -1.47461,3.36914 v 0.38086 z m -0.64455,-0.8691 h -0.05859 v -0.70313 h -0.05859 q 0,0.07813 -0.107422,0.214844 v 1.9531 q 0.01953,0.117187 0.107422,0.117187 h 0.05859 v -0.33203 h 0.05859 q 0,0.146485 0.371093,0.332032 h 0.05859 l -0.05859,-0.76172 q 0,-1.376954 0.605469,-3.046875 h -0.05859 q -0.205078,0 -0.429687,1.142578 -0.488281,0.498047 -0.488281,1.083984 z m 2.71485,-2.227 q -0.107422,0.341797 -0.107422,0.546875 0.04883,0.107422 0.04883,0.15625 h 0.05859 l 0.04883,-0.27344 v -0.42969 h -0.04883 z m 1.0352,0.655 v 0.10742 h 0.21484 v -0.10742 z m 1.0253,0 v 0.10742 h 0.22461 v -0.10742 z m 1.0352,0.107 h 0.16602 q 0.107422,0 0.107422,-0.107422 h -0.16602 q -0.107422,0.0098 -0.107422,0.107422 z m -3.0957,0.049 q -0.38086,1.875 -0.38086,2.880859 0,0.273438 0.166016,1.47461 h 0.04883 v -1.3574 q 0,-0.38086 0.380859,-0.38086 h 0.38086 v -0.27344 q 0,-1.201172 0.322266,-2.34375 h -0.91797 z m 1.25,0 q -0.38086,1.25 -0.38086,2.34375 v 0.27344 h 0.54688 v -0.92773 q 0,-0.664062 0.53711,-1.689453 h -0.70313 z m 0.9766,0 q 0,0.166016 -0.38086,0.869141 -0.107422,0.546875 -0.107422,1.09375 v 0.6543 h 0.38086 q 0,-1.542969 0.869141,-2.5 v -0.11719 z m 0.2148,2.2363 v 0.38086 h 0.76172 v -0.05859 q 0,-1.425781 0.761718,-2.285156 v 0.33203 h 0.05859 q 0,-0.08789 0.107422,-0.22461 v -0.26367 q -0.107422,0 -0.107422,0.15625 h -0.05859 v -0.27344 h -0.5957 q -0.927734,1.054688 -0.927734,2.236328 z m 1.4746,-1.4743 q -0.38086,0.927734 -0.38086,1.738281 v 0.11719 h 0.42969 v -1.8555 h -0.04883 z m -6.74803,0.761 h 0.05859 v 1.1426 h -0.05859 z m 6.90433,0.3324 -0.04883,0.38086 q 0.04883,0.361328 0.04883,0.595703 h 0.05859 v -0.97656 h -0.05859 z m -3.418,0.8106 v 0.16602 h 0.15625 v -0.16602 z m 0.8105,0 v 0.16602 h 0.21484 v -0.16602 z m 0.7032,0 v 0.16602 h 0.22461 v -0.16602 z m 1.0937,0 q 0.04883,0.107422 0.04883,0.166016 h 0.22461 v -0.05859 q 0,-0.107422 -0.107422,-0.107422 h -0.16602 z m -6.03514,0.4394 v 1.25 l -0.10742,-0.05859 h -0.05859 v 0.16602 q 0,0.07813 0.166015,0.166016 v -0.27344 q 0.517579,0.205078 2.607422,2.607422 v -1.25 q -1.044926,-1.41602 -2.548832,-2.607426 h -0.05859 z m 0,1.5723 v 0.54688 l -0.16602,-0.10742 v 0.15625 q 0,0.08789 0.166015,0.166016 v -0.21484 q 1.103516,1.015625 2.558594,2.773437 h 0.04883 v -0.43945 q 0,-0.410156 -2.607422,-2.880859 z m 2.66604,0.166 v 0.81055 q 0,0.08789 0.15625,0.166016 v -0.48828 q 0,-0.136719 -0.107422,-0.488282 h -0.04883 z m -2.66604,0.7031 v 0.71289 l -0.16602,-0.11719 v 0.22461 q 0,0.07813 0.166015,0.15625 v -0.26367 q 3.720703,3.857422 4.023438,3.857422 1.484375,0.810547 1.738281,0.810547 0,0.08789 0.166016,0.166015 h 0.42969 v -0.05859 q -1.5625,-0.498047 -3.798828,-2.607422 -1.582032,-1.904296 -2.558594,-2.880859 z m 0,1.084 v 0.82031 l -0.16602,-0.10742 v 0.16602 q 0,0.07813 0.166015,0.15625 v -0.21484 q 3.671875,3.691406 4.785157,3.691406 h 0.27344 l 0.04883,-0.10742 Q 50.41992,22.978497 48.847655,21.484356 48.496092,21.201153 46.455077,19.033184 Z m 2.66604,0.4981 v 0.21484 q 0.03906,0.322266 0.15625,0.322266 v -0.38086 q 0,-0.07813 -0.15625,-0.15625 z m -2.66604,0.6445 v 0.86914 l -0.16602,-0.10742 v 0.22461 q 0,0.07813 0.166015,0.15625 v -0.27344 q 2.128907,2.128906 2.773438,2.128906 l 0.38086,0.37109 h 0.21484 l 0.27344,-0.04883 q -0.136719,-0.205078 -1.738281,-1.357422 -1.845704,-1.96289 -1.904297,-1.96289 z m 2.66604,0.4395 v 0.04883 q 0.08789,0.273437 0.322265,0.273437 0,-0.07813 -0.322265,-0.322265 z m 0.7617,0.166 v 0.04883 q 0.15625,0 0.15625,0.107422 h -0.48828 q 2.421875,2.207031 4.082031,2.451172 0.04883,0 0.429687,0.107422 h 0.5957 v -0.27344 q -2.050781,0 -4.61914,-2.285157 h 0.27344 q 0,-0.07813 -0.166016,-0.15625 h -0.26367 z m 1.8457,0 v 0.04883 l 0.21484,0.05859 v 0.04883 h -1.5234 q 2.285156,1.962891 4.082031,1.962891 h 0.15625 v -1.25 q -1.230469,0 -2.714844,-0.654297 v -0.05859 h 0.48828 v -0.04883 l -0.38086,-0.10742 h -0.32227 z m 2.1777,0 v 0.04883 l 0.26367,0.05859 v 0.04883 h -1.4648 v 0.05859 q 1.240234,0.322266 1.630859,0.322266 h 0.32227 v -0.27344 q -0.126953,0 -0.429687,-0.04883 v -0.05859 h 0.48828 v 0.10742 h 0.16602 v -0.214839 l -0.27344,-0.04883 h -0.70313 z m 0.8106,0.5957 v 0.21484 h 0.16602 v -0.21484 z m -8.26174,0.0488 v 0.6543 l -0.16602,-0.10742 v 0.21484 q 0,0.08789 0.166015,0.166016 v -0.27344 q 1.884766,1.464843 2.011719,1.464843 l 0.54688,-0.04883 v -0.05859 q -0.605469,-0.224609 -2.558594,-2.011719 z m 0,1.0352 v 0.43945 l -0.16602,-0.10742 v 0.21484 q 0,0.07813 0.166015,0.166016 v -0.27344 l 0.76172,0.64453 h 0.5957 l -1.2988,-1.084 H 46.4551 Z m 8.26174,0.4882 v 0.22461 h 0.16602 v -0.22461 z m -8.26174,0.33207 v 0.26367 h 0.10742 q 0.107422,0 0.107422,-0.107422 z m 8.04684,0.32227 h -8.2129 v 0.16602 h 6.0352 q 0.830078,0 2.558593,-0.05859 v -0.16602 z m 2.343785,-20.10714 h 3.9551 q 4.267578,0 5.527343,3.3105469 0.38086,1.0253906 0.38086,2.2167969 v 0.48828 q 0,2.3730472 -1.845703,3.7988282 2.226562,1.396484 2.226562,4.707031 v 0.43945 q 0,3.925781 -3.417969,5.3125 -0.664062,0.214844 -1.132812,0.214844 h -5.9082 q -0.08789,0 -0.166016,-0.166016 V 3.7116363 q 0.09766,-0.2148438 0.38086,-0.2148438 z m 0.04883,0.429 v 0.76172 q 2.11914,-0.4296875 3.144531,-0.4296875 3.535156,0.6445312 5.527344,1.8945312 V 6.0933447 Q 64.111331,3.925376 60.966799,3.925376 h -4.0723 z m 0,1.084 v 0.48828 q 1.113281,-0.3222656 2.548828,-0.3222656 h 0.16602 q 3.291016,0 6.396484,2.0019531 0,-1.0546875 -4.501953,-2.3828125 -0.820312,-0.2734375 -1.679687,-0.2734375 h -0.48828 Q 56.894539,4.79453 56.894539,5.0093737 Z m -0.15625,-0.263 v 0.21484 q 0.107422,0 0.107422,-0.1074219 v -0.10742 h -0.10742 z m 0.15625,0.976 v 0.64453 h 0.05859 q 1.298828,-0.4296875 2.548828,-0.4296875 4.052734,0.3613281 6.71875,2.3242187 V 8.1540163 q 0,-0.6738282 -0.654297,-0.9179688 -0.908203,-0.7714844 -4.003906,-1.6308594 -0.927735,-0.15625 -1.904297,-0.15625 h -0.53711 q -0.986328,0 -2.226562,0.2734369 z m -0.15625,-0.058 v 0.058594 h 0.10742 v -0.16602 q -0.107422,0.00977 -0.107422,0.1074219 z m 0.15625,0.976 v 0.70313 q 0.830078,0 1.357422,-0.5957031 0.742187,-0.3808594 1.25,-0.3808594 0.146484,0 1.02539,0.2148437 h 0.70313 q 1.074219,0 1.679688,0.7617188 0.205078,-0.1074219 0.439453,-0.1074219 h 0.10742 q 0.3125,0 0.761719,0.6542969 1.259765,0.4980469 2.060546,1.1328125 v -0.32227 Q 64.570318,7.2067819 62.207037,6.6892037 60.234381,6.2106881 59.443365,6.2106881 q -0.957031,0 -2.548828,0.4296875 z m 8.78911,-0.381 q 0.195312,0.4785156 0.322265,0.4882812 h 0.04883 V 6.6890622 Q 65.947316,6.3863279 65.683644,6.259375 Z m -8.94536,0.323 v 0.058594 h 0.10742 V 6.474949 Q 56.738282,6.49448 56.738282,6.5823709 Z m 3.19336,0.058 v 0.048828 q 0.380859,0.1171875 0.439453,0.1171875 h 0.26367 v -0.058594 q -0.07813,0 -0.214844,-0.1074219 z m -2.1094,1.299 q 0.04883,0.1660156 0.322265,0.1660156 Q 58.740212,7.8417187 58.740212,7.5096875 59.296853,7.23625 59.443337,7.23625 l 0.332031,0.058594 v -0.60547 h -0.439451 q -1.02539,0 -1.513671,1.0351562 v 0.21484 z m 2.3828,-0.918 v 4.6582 h 1.2988 q 0.966797,0 1.40625,-1.25 0.166015,-0.390625 0.166015,-1.0839844 v -0.048828 q 0,-1.7773437 -1.191406,-2.1679687 Q 61.669859,7.021372 61.289,7.021372 h -1.084 z m -0.4297,0.322 v 0.10742 q 0.0098,0.1074219 0.107422,0.1074219 h 0.04883 v -0.21484 h -0.15625 z m 2.92,0 q 0.107422,0.2441406 0.214843,0.2734375 0.117188,0 0.117188,-0.1074219 z m 3.4179,0 v 0.058594 q 0.06836,0.2636719 0.166015,0.2636719 h 0.04883 v -0.10742 q 0,-0.078125 -0.214843,-0.2148438 z m -9.37496,0.108 v 0.16602 h 0.10742 v -0.16602 z m 2.54886,0.107 v 0.10742 q 0.175781,0 0.263672,0.058594 0.09766,-0.058594 0.224609,-0.058594 v -0.10742 q -0.224609,0 -0.224609,-0.048828 -0.08789,0.048828 -0.263672,0.048828 z m 3.789,-0.049 v 0.048828 q 0.380859,0.6640625 0.380859,1.0351562 0.380859,-0.2734375 0.380859,-0.5957031 -0.166015,-0.4882812 -0.546875,-0.4882812 h -0.21484 z m -6.18161,0.108 v 0.64453 q 0.595703,-0.1269531 0.595703,-0.3710938 0,-0.048828 0.05859,-0.3320312 h -0.10742 z m 2.88081,0.107 v 0.21484 h -0.71289 q -0.126953,0 -0.859375,0.4394531 -1.308594,0 -1.308594,0.2148438 v 0.64453 q 1.591797,-0.7519532 2.880859,-0.7519532 v -0.54688 h 0.15625 v -0.21484 h -0.15625 z m 4.336,0.489 q -0.117188,0.1757812 -0.117188,0.3222656 1.210938,0.6347656 1.63086,0.9765625 Q 66.113297,9.4047812 66.113297,9.2973594 65.341813,8.5649375 64.111344,8.213375 Z m -7.37306,0.214 v 0.10742 q 0.107422,0 0.107422,-0.1074219 v -0.10742 q -0.107422,0.00977 -0.107422,0.1074219 z m 9.54106,-0.048 q 0.08789,0.3710938 0.214843,0.3710938 v -0.15625 q 0,-0.087891 -0.214843,-0.2148438 z m -6.504,0.156 q 0,0.2148438 -0.439453,0.2148438 -1.230469,0.1074218 -2.441407,0.8691406 v 0.058594 q 0,0.068359 0.273438,0.2148437 h 0.10742 q 1.083984,-0.4492187 2.5,-0.6542968 V 8.7013902 h 0.15625 V 8.5353703 h -0.15625 z m 4.1114,0.381 q 0,0.4101563 1.416015,1.191406 l 0.10742,-0.3808597 Q 64.111351,8.8577806 63.886742,8.8577806 v 0.058594 z m -0.3711,0 v 0.5957 l 0.04883,0.38086 h 0.16602 q 0.107422,0 0.107422,-0.1074219 v -0.10742 q 0,-0.234375 -0.273438,-0.7617187 h -0.04883 z m 2.8125,0.214 v 0.43945 q 0.01953,0.1074219 0.107422,0.1074219 h 0.05859 v -0.38086 q 0,-0.078125 -0.166016,-0.1660156 z m -6.5528,0.166 v 0.10742 q 0.0098,0.1074219 0.107422,0.1074219 h 0.04883 v -0.21484 h -0.15625 z m -3.03706,0.167 v 0.32227 q 0.0098,0.1074219 0.107422,0.1074219 v -0.54688 q -0.107422,0.019531 -0.107422,0.1171881 z m 6.55276,-0.059 v 0.48828 q -0.107422,0.527344 -0.107422,0.595703 l 0.10742,0.05859 Q 63.457057,9.8926552 63.457057,9.6192177 63.378932,9.404374 63.291042,9.404374 Z m -5.6836,0.762 q 0,0.07813 0.322265,0.322266 l 1.8457,-0.5468804 v -0.42969 h -0.05859 q -0.449218,0 -1.621093,0.3808594 -0.488282,0.117188 -0.488282,0.273438 z m 8.0762,-0.166 v 0.05859 q 0,0.107422 0.537109,0.15625 l 0.05859,-0.38086 v -0.15625 h -0.27344 q -0.214844,0.322266 -0.322265,0.322266 z m -1.5235,-0.215 v 0.10742 q 0.283203,0.214844 0.546875,0.654297 l 0.64453,0.53711 q 0.214844,-0.07813 0.214844,-0.166016 v -0.10742 Q 65.449205,10.547094 64.267564,9.7853756 Z m -4.3848,0.215 q 0,0.380859 -0.654297,0.380859 -0.605469,0.273438 -0.869141,0.273438 0.07813,0.488281 0.439453,0.488281 0.791016,-0.273437 1.083985,-0.273437 v 0.15625 h 0.15625 v -0.15625 h -0.15625 v -0.5957 q 0,-0.107422 0.15625,-0.107422 v -0.16602 z m -2.88081,0.058 v 1.1914 q 0.06836,0 1.416015,1.240234 1.542969,1.416016 2.978516,1.416016 1.386719,0 2.109375,-1.191406 h 0.11719 q 0.107422,0 0.107422,0.15625 -0.224609,0.615234 -1.191406,1.083984 -0.712891,0.214844 -1.142578,0.214844 -1.78711,0 -3.847657,-2.109375 l -0.54688,-0.48828 v 0.53711 q 2.333985,2.285156 3.417969,2.285156 0.283203,0 0.488281,0.04883 v 0.05859 l -0.05859,0.10742 h 0.60547 q 0.742188,0 1.191406,0.322266 0.742188,-0.107422 1.40625,-0.810547 0,-0.06836 0.322266,-0.595703 l -0.04883,-0.33203 q 0.380859,-0.117188 0.703125,-1.083985 0.917969,-0.361328 1.025391,-0.751953 0,-0.166015 0.107422,-0.380859 h -0.04883 q -0.556641,0.537109 -1.357422,0.537109 h -0.04883 l -0.27344,-0.21484 q 0.03906,-0.322265 0.107422,-0.322265 -0.06836,-0.761719 -0.546875,-0.761719 h -0.15625 l -0.10742,0.05859 0.04883,0.27344 q -0.04883,0.107422 -0.04883,0.15625 h -0.22461 l -0.10742,-0.04883 q 0,0.15625 -0.214844,0.429687 l 0.05859,0.54688 v 0.26367 q -0.22461,1.357422 -1.357422,1.357422 H 61.5039 q -1.005859,0 -2.490234,-1.40625 l -2.0605,-1.7871 h -0.05859 z m 8.89651,0.43 v 0.10742 h 0.04883 v -0.10742 z m -1.084,0.537 v 0.16602 h 0.15625 v -0.04883 q 0,-0.117187 -0.107422,-0.117187 h -0.04883 z m -5.6934,0.381 v 0.05859 q 0,0.04883 0.537109,0.488281 h 0.22461 v -0.86914 q -0.761719,0.214844 -0.761719,0.322266 z m 3.8477,-0.322 -0.10742,0.16602 q 0.04883,0.107422 0.04883,0.15625 h 0.05859 q 0,-0.07813 0.107422,-0.214844 0,-0.107422 -0.107422,-0.107422 z m -6.12306,0.058 v 0.15625 q 0.0098,0.107422 0.107422,0.107422 v -0.15625 q 0,-0.107422 -0.107422,-0.107422 z m 5.84956,0.596 q 0.175781,0 0.273437,0.04883 v -0.27344 h -0.05859 q -0.07813,0 -0.214844,0.224609 z m 2.6563,0.703 v -0.16602 h -0.10742 q 0,0.146484 -0.107422,0.322266 h 0.04883 q 0,-0.07813 0.166016,-0.15625 v 0.04883 q -0.107422,0.175781 -0.107422,0.273437 0.302734,-0.214844 0.86914,-1.132812 -0.205078,0.01953 -0.703125,0.810547 h -0.05859 z m -3.252,-0.654 v 0.10742 h 0.05859 l 0.38086,-0.10742 v -0.04883 h -0.16602 z m -2.1093,0.107 -0.05859,0.10742 0.10742,0.05859 0.27344,-0.05859 v -0.04883 z m 1.5136,0.215 h -1.2988 q -0.107422,0.01953 -0.107422,0.117188 0.107422,0.214843 0.273437,0.214843 l 1.4551,-0.16602 0.97656,0.10742 q 0.05859,-0.06836 0.05859,-0.273437 -0.380859,-0.15625 -0.546875,-0.15625 -0.488281,0.15625 -0.810547,0.15625 z m -4.65816,-0.049 v 0.21484 q 0.0098,0.107422 0.107422,0.107422 v -0.21484 q 0,-0.107422 -0.107422,-0.107422 z m 4.06246,0.596 v 0.10742 q 0.55664,0.214844 0.86914,0.214844 0.488282,0 0.703125,-0.263672 v -0.05859 q -0.703125,-0.09766 -0.703125,-0.166016 -0.107421,0.05859 -0.86914,0.166016 z m -3.90621,-0.108 v 0.91797 q 1.640625,1.191406 2.607422,1.191406 h 0.32227 v -0.04883 q -0.556641,0 -2.929688,-2.060547 z m 7.96871,0.215 q -0.38086,0.351563 -0.38086,0.429688 h 0.05859 q 0.38086,-0.185547 0.38086,-0.429688 z m -0.4882,0.596 v 0.05859 q 0.01953,0.107422 0.107422,0.107422 0.117187,0 0.117187,-0.107422 l -0.11719,-0.05859 z m -7.63676,0.059 v 0.21484 h 0.10742 v -0.21484 z m 8.18356,0.156 -0.05859,0.10742 q 0,0.08789 0.166015,0.166016 h 0.04883 v -0.10742 q 0,-0.07813 -0.156249,-0.166016 z m -0.4394,0.058 q -0.322266,0.664063 -0.322266,0.869141 v 0.48828 q 0,1.083984 0.703125,1.464843 h 0.05859 q -0.214844,-0.791015 -0.214844,-1.142578 0,-0.595703 0.107422,-1.572265 -0.175781,-0.107422 -0.332031,-0.107422 z m -7.58791,0.166 v 0.64453 q 0.380859,0.439453 0.761718,0.439453 0.595704,-0.08789 0.595704,-0.224609 -0.09766,0 -1.298829,-0.859375 h -0.05859 z m 8.18361,0.157 -0.10742,1.0352 q 0.273437,2.167969 0.761718,2.167969 v -0.05859 q -0.166015,-1.054688 -0.166015,-1.679688 v -0.97656 q 0,-0.06836 -0.488281,-0.488281 z m 0.5469,0.2731 v 0.05859 q 0,0.08789 0.166015,0.429687 h 0.04883 v -0.16602 q 0,-0.214843 -0.214843,-0.322265 z m -8.88676,0.1661 v 0.15625 q 0.0098,0.107422 0.107422,0.107422 v -0.15625 q 0,-0.107422 -0.107422,-0.107422 z m 0.15625,1.0839 v 1.7871 h 0.05859 q 1.621093,-0.595703 2.822265,-0.595703 v -1.7383 q 0.15625,0 0.15625,-0.107422 h 1.25 v -0.05859 q -0.07813,0 -0.86914,-0.107422 h -0.32227 q -0.146485,0.332031 -0.976563,0.332031 -0.703125,0 -2.11914,0.488282 z m 6.62111,-0.1074 q 0.263672,0.15625 0.263672,0.371094 h 0.16602 q -0.107422,-0.615235 -0.107422,-0.859375 v -0.22461 h -0.05859 q -0.263672,0.08789 -0.263672,0.71289 z m -6.62111,-0.5469 v 0.32227 h 0.05859 q 0.107422,-0.04883 0.166015,-0.04883 v -0.05859 q 0,-0.07813 -0.224609,-0.214844 z m 8.94531,0.0586 v 0.21484 q 0,2.167969 0.761718,3.037109 h 0.04883 v -0.33203 q 0,-1.660156 -0.810546,-2.919921 z m -3.4082,0.1075 -0.05859,0.10742 q 0.117187,0 0.86914,0.644531 v -0.04883 l -0.16602,-0.27344 q 0.166016,0 0.166016,-0.273437 -0.107422,-0.04883 -0.166016,-0.04883 -0.107422,0.04883 -0.166015,0.04883 v 0.05859 l 0.16602,0.21484 h -0.04883 q -0.175782,-0.166016 -0.273438,-0.166016 l 0.04883,-0.10742 q -0.195312,-0.15625 -0.371094,-0.15625 z m -2.2266,0.0488 v 5.5273 h 1.1426 q 1.298828,0 1.835937,-1.513672 0.166016,-0.478516 0.166016,-1.083984 0,-2.929688 -1.953125,-2.929688 h -1.1914 z m -3.46676,0.166 v 0.27344 h 0.10742 v -0.27344 z m 6.66016,0.7031 q 0.224609,0.380859 0.439453,1.738281 0.986328,0.556641 2.324219,1.728516 0.09766,0.24414 0.380859,0.439453 0.107422,-0.839844 0.107422,-1.25 -1.347656,-1.464844 -1.679688,-1.513672 -0.195312,-0.556641 -1.572265,-1.142578 z m 3.1444,0.0586 v 0.04883 q 0.107422,1.162109 0.273437,1.630859 h 0.05859 v -0.05859 q 0,-0.253906 -0.273437,-1.621093 z m -6.7675,0.752 v 0.16602 h 0.15625 v -0.16602 z m -2.39253,0.7031 v 0.11719 q 0,0.08789 0.380859,0.322266 h 0.10742 q 0.615234,-0.488282 1.787109,-0.488282 h 0.11719 v -0.43945 q -1.552734,0.117188 -2.226562,0.38086 0,0.107422 -0.166016,0.107422 z m -0.64453,-0.1563 v 0.21484 h 0.10742 v -0.21484 z m 3.03706,0.1563 v 0.16602 h 0.15625 v -0.16602 z m 3.7891,0.1172 v 0.15625 q 0,0.07813 0.166015,0.166016 v -0.27344 q -0.05859,0 -0.166015,-0.04883 z m -6.66991,0.0488 v 1.084 q 2.080078,0.878906 3.52539,4.394531 0.175782,0.488281 0.273438,0.488281 h 0.81055 q 0,-0.351562 -0.429688,-1.201171 0,-0.185547 -0.654297,-1.347657 h -0.48828 q -0.07813,0 -0.15625,-0.166015 v -0.76172 l 0.15625,0.10742 v -0.32227 q -0.04883,0 -0.15625,-0.04883 v 0.26367 q -2.578125,-2.460938 -2.880859,-2.490235 z m 1.20121,0.5957 q 0.146484,0.126953 0.537109,0.273437 0.136719,-0.107421 0.810547,-0.166015 l 0.33203,0.05859 v -0.70313 q -1.679688,0.04883 -1.679688,0.537109 z m 5.6836,-0.2148 v 0.48828 q 0.371094,0.0293 2.548828,2.109375 0.107422,-0.400391 0.107422,-0.488281 -1.337891,-1.396485 -2.65625,-2.109375 z m 2.9295,0.3808 v 0.21484 q 0,0.07813 0.166015,0.166016 v -0.22461 q 0,-0.07813 -0.166015,-0.15625 z m -6.9335,0.0489 v 0.16602 h 0.15625 v -0.16602 z m 3.7891,0 q 0,0.126953 -0.04883,0.224609 0.04883,0 0.15625,0.04883 0,-0.117187 0.05859,-0.214843 l -0.10742,-0.05859 h -0.05859 z m -6.82616,0.2246 v 0.21484 h 0.10742 v -0.10742 q 0,-0.107422 -0.107422,-0.107422 z m 2.10936,0.1074 v 0.04883 q 0.195312,0.322266 0.927734,0.322266 v -0.47852 h -0.82031 q -0.107422,0.0098 -0.107422,0.107421 z m 4.8242,0.0488 q 0,0.166016 -0.15625,0.703125 1.787109,1.142578 2.539062,1.738281 l 0.10742,-0.38086 v -0.04883 q -0.08789,0 -1.191406,-1.142578 -1.103516,-0.869141 -1.191406,-0.869141 z m -6.77731,0.166 v 0.53711 q 0.478515,0 2.285156,2.226562 0.458984,0.644532 0.917969,1.845704 h 0.27344 v -0.05859 q -1.279297,-2.617188 -2.275391,-3.740235 -0.585937,-0.46875 -1.201172,-0.810547 z m 2.88081,0.2149 v 0.21484 h 0.15625 v -0.15625 q -0.04883,0 -0.15625,-0.05859 z m -3.03706,0.2734 v 0.10742 q 0.0098,0.107422 0.107422,0.107422 v -0.10742 q 0,-0.107422 -0.107422,-0.107422 z m 2.87106,0 v 0.04883 q 0.07813,0.224609 0.166015,0.224609 v -0.27344 h -0.16602 z m 3.6328,0.1074 v 0.04883 h 0.15625 v -0.15625 h -0.04883 q -0.107422,0.0098 -0.107422,0.107422 z m 0.1075,0.1661 q 0,0.107422 -0.38086,0.595703 1.5625,0.888672 2.548828,1.679688 0.09766,-0.01953 0.38086,-0.488282 v -0.05859 q -0.419922,-0.390625 -2.441406,-1.679687 0,-0.04883 -0.05859,-0.04883 z m -6.45511,0.0488 v 0.54688 q 0.771484,0.244141 2.060547,2.216797 0.439453,0.908203 0.439453,0.976562 v 0.05859 h 0.38086 v -0.05859 Q 59.287112,22.617208 59.062503,21.982442 58.007816,20.498067 56.953128,19.75588 h -0.05859 z m 9.64831,0.166 q 0,0.0293 -0.04883,0.214844 l 0.15625,0.10742 v -0.21484 q 0,-0.107422 -0.107422,-0.107422 z m -9.80456,0.3223 v 0.10742 q 0.0098,0.107422 0.107422,0.107422 v -0.21484 h -0.10742 z m 5.90816,0.1074 0.10742,0.05859 q 0.107422,0 0.107422,-0.107422 v -0.05859 h -0.10742 q -0.107422,0.0098 -0.107422,0.107422 z m 0.0489,0.166 -0.32227,0.27344 v 0.04883 q 0.361328,0 2.597656,1.679688 0.244141,-0.09766 0.380859,-0.322266 -1.777343,-1.347656 -2.65625,-1.679688 z m -5.80081,0.0488 v 0.5957 q 0.693359,0.751953 1.738281,2.392578 h 0.48828 q -0.654297,-1.503906 -2.167969,-2.988281 h -0.05859 z m 4.88281,0.166 q 0.0098,0.107422 0.107422,0.107422 h 0.21484 v -0.04883 l -0.04883,-0.11719 q -0.09766,0.05859 -0.273438,0.05859 z m 4.5508,-0.0585 q -0.04883,0.117187 -0.04883,0.166016 0.04883,0.107421 0.04883,0.166015 h 0.05859 l 0.04883,-0.27344 z m -5.957,0.166 q 0.0098,0.107422 0.107422,0.107422 h 0.15625 q 0,-0.107422 -0.107422,-0.107422 z m 0.4882,0.166 v 0.04883 q 1.230468,0.3125 3.134765,1.630859 0,0.06836 0.38086,0.322266 l 0.38086,-0.32227 q -1.78711,-1.416016 -2.763672,-1.738281 -0.517578,0.05859 -1.132813,0.05859 z m -4.12106,0.1074 v 0.21484 q 0.0098,0.107422 0.107422,0.107422 v -0.21484 q 0,-0.107422 -0.107422,-0.107422 z m 9.31636,0.1563 -0.04883,0.11719 v 0.10742 h 0.04883 q 0.107422,0 0.107422,-0.107422 0,-0.117187 -0.107422,-0.117188 z m -5.039,0.1171 -0.04883,0.10742 q 0,0.439453 1.298828,0.976563 0,0.04883 1.357422,0.859375 0.3125,-0.15625 0.429687,-0.15625 v -0.05859 q -2.402344,-1.728516 -3.037109,-1.728516 z m -4.12111,0.2149 v 0.91797 q 0.761718,0.791016 0.761718,1.035156 h 0.6543 v -0.05859 l -1.357399,-1.8945 h -0.05859 z m 8.62301,0.4883 -0.05859,0.10742 q 0.01953,0.107422 0.107422,0.107422 l 0.05859,-0.10742 q 0,-0.107422 -0.107422,-0.107422 z m -4.1211,0.3222 q 0.283203,0.810547 0.703125,0.810547 0,0.107422 0.439453,0.332031 h 0.04883 q 0.273437,0 0.654297,-0.117187 v -0.04883 q -1.611328,-0.976563 -1.78711,-0.976563 z m -4.65816,0.0586 v 0.15625 q 0.0098,0.107422 0.107422,0.107422 v -0.15625 q 0,-0.107422 -0.107422,-0.107422 z m 8.12496,0.2637 0.10742,0.05859 q 0.107422,0 0.107422,-0.107422 l -0.10742,-0.05859 q -0.107422,0.01953 -0.107422,0.107422 z m -7.96871,0.166 v 0.53711 q 0.01953,0.117187 0.117187,0.117187 h 0.32227 v -0.05859 q -0.166015,-0.341796 -0.439453,-0.595703 z m 7.37301,0.16603 -0.04883,0.10742 0.10742,0.04883 q 0.107422,-0.04883 0.15625,-0.04883 v -0.05859 q -0.185547,-0.04883 -0.214844,-0.04883 z m -7.52926,0.32227 v 0.27344 q 0.0098,0.107422 0.107422,0.107422 h 0.16602 q -0.195313,-0.38086 -0.273438,-0.38086 z m 6.61136,0.04882 v 0.05859 l 0.27344,0.05859 q 0.107422,0 0.107422,-0.117188 -0.05859,0 -0.166016,-0.04883 -0.09766,0.04883 -0.214844,0.04883 z m -1.4649,0.0586 v 0.05859 h 0.10742 v -0.05859 z m -4.44334,0.10742 q 0.04883,0.107422 0.04883,0.166016 h 0.27344 q 0,-0.08789 -0.15625,-0.166016 z m 0.97654,0 v 0.05859 q 0.0098,0.107422 0.107422,0.107422 h 0.21484 q 0,-0.08789 -0.166016,-0.166016 h -0.15625 z m 0.8106,0 v 0.05859 q 0.0098,0.107422 0.107422,0.107422 h 0.10742 v -0.05859 q 0,-0.107422 -0.107422,-0.107422 z m 0.6543,0 v 0.05859 q 0.0098,0.107422 0.107422,0.107422 h 0.15625 q -0.04883,-0.107422 -0.04883,-0.166016 h -0.21484 z m 0.5957,0 v 0.05859 q 0.0098,0.107422 0.107422,0.107422 h 0.10742 v -0.05859 q 0,-0.107422 -0.107422,-0.107422 z m 1.1328,0 v 0.16602 h 0.21484 v -0.16602 z m 0.6543,0 v 0.05859 q 0.07813,0 0.214844,0.107422 h 0.27344 q -0.05859,-0.166016 -0.322266,-0.166016 h -0.16602 z"
       id="path14"
       inkscape:connector-curvature="0" />
  </g>
</svg>
