<?xml version="1.0" encoding="UTF-8" standalone="no"?>
<svg
   xmlns:dc="http://purl.org/dc/elements/1.1/"
   xmlns:cc="http://creativecommons.org/ns#"
   xmlns:rdf="http://www.w3.org/1999/02/22-rdf-syntax-ns#"
   xmlns:svg="http://www.w3.org/2000/svg"
   xmlns="http://www.w3.org/2000/svg"
   xmlns:sodipodi="http://sodipodi.sourceforge.net/DTD/sodipodi-0.dtd"
   xmlns:inkscape="http://www.inkscape.org/namespaces/inkscape"
   viewBox="0 0 260 50"
   preserveAspectRatio="xMidYMid meet"
   class="css-1y5supu"
   id="ebdcdhag"
   version="1.1"
   sodipodi:docname="vizweb_logo.svg"
   width="270"
   height="60"
   inkscape:version="0.92.4 (33fec40, 2019-01-16)">
  <metadata
     id="metadata17">
    <rdf:RDF>
      <cc:Work
         rdf:about="">
        <dc:format>image/svg+xml</dc:format>
        <dc:type
           rdf:resource="http://purl.org/dc/dcmitype/StillImage" />
        <dc:title></dc:title>
      </cc:Work>
    </rdf:RDF>
  </metadata>
  <sodipodi:namedview
     pagecolor="#ffffff"
     bordercolor="#666666"
     borderopacity="1"
     objecttolerance="10"
     gridtolerance="10"
     guidetolerance="10"
     inkscape:pageopacity="0"
     inkscape:pageshadow="2"
     inkscape:window-width="1920"
     inkscape:window-height="1056"
     id="namedview15"
     showgrid="false"
     inkscape:zoom="2.1123696"
     inkscape:cx="101.84374"
     inkscape:cy="77.350061"
     inkscape:window-x="1600"
     inkscape:window-y="24"
     inkscape:window-maximized="1"
     inkscape:current-layer="ebdcdhag" />
  <defs
     id="SvgjsDefs1110" />
  <g
     id="SvgjsG1111"
     featurekey="root"
     style="fill:#c0e2fb" />
  <g
     id="SvgjsG1113"
     featurekey="text1"
     transform="matrix(3.2612746,0,0,3.2612746,5.4548767,-15.028964)"
     style="fill:#ffffff">
    <path
       d="m 14.1,5.32 c 0.14,0.2 0.16,0.44 0.08,0.66 L 8.7,19.52 C 8.58,19.8 8.32,19.96 8.04,19.96 H 6.28 c -0.3,0 -0.56,-0.16 -0.66,-0.44 L 0.14,5.98 C 0.04,5.76 0.06,5.52 0.2,5.32 0.34,5.12 0.56,5 0.78,5 h 6.68 c 0.38,0 0.7,0.32 0.7,0.72 v 1.46 c 0,0.4 -0.32,0.72 -0.7,0.72 H 4.1 L 7.16,15.6 11.18,5.44 C 11.28,5.18 11.54,5 11.84,5 h 1.68 c 0.24,0 0.46,0.12 0.58,0.32 z M 18.12,5 c 0.38,0 0.7,0.32 0.7,0.7 v 13.28 c 0,0.38 -0.32,0.7 -0.7,0.7 h -1.5 c -0.38,0 -0.7,-0.32 -0.7,-0.7 V 5.7 c 0,-0.38 0.32,-0.7 0.7,-0.7 z m 14.8,2.14 c 0,0.16 -0.04,0.32 -0.16,0.44 l -7.72,9.3 h 7.2 c 0.38,0 0.68,0.32 0.68,0.7 v 1.4 c 0,0.38 -0.3,0.7 -0.68,0.7 H 21.72 c -0.38,0 -0.7,-0.32 -0.7,-0.7 v -1.42 c 0,-0.16 0.06,-0.32 0.16,-0.44 L 28.9,7.8 h -7.06 c -0.38,0 -0.7,-0.32 -0.7,-0.7 V 5.7 c 0,-0.38 0.32,-0.7 0.7,-0.7 h 10.4 c 0.38,0 0.68,0.32 0.68,0.7 z M 47.42,5 c 0.38,0 0.7,0.32 0.7,0.7 v 13.4 c 0,0.38 -0.32,0.7 -0.7,0.7 h -1.76 c -0.22,0 -0.44,-0.1 -0.58,-0.28 L 35.3,6.12 C 35.14,5.9 35.12,5.62 35.24,5.38 35.36,5.14 35.6,5 35.86,5 h 1.76 c 0.22,0 0.44,0.1 0.56,0.28 l 7.02,9.54 V 5.7 C 45.2,5.32 45.5,5 45.9,5 Z m -10.04,9.7 c 0.38,0 0.7,0.3 0.7,0.7 v 3.7 c 0,0.38 -0.32,0.7 -0.7,0.7 h -1.52 c -0.38,0 -0.7,-0.32 -0.7,-0.7 v -3.7 c 0,-0.4 0.32,-0.7 0.7,-0.7 z M 61.82,5 c 0.4,0 0.7,0.32 0.7,0.7 v 1.44 c 0,0.38 -0.3,0.7 -0.7,0.7 h -7.56 v 3.06 h 6.68 c 0.4,0 0.7,0.32 0.7,0.7 v 1.46 c 0,0.38 -0.3,0.7 -0.7,0.7 h -6.68 v 3.08 h 7.56 c 0.4,0 0.7,0.32 0.7,0.7 v 1.44 c 0,0.38 -0.3,0.7 -0.7,0.7 h -9.76 c -0.38,0 -0.7,-0.32 -0.7,-0.7 V 5.7 c 0,-0.38 0.32,-0.7 0.7,-0.7 z m 13.26,0 c 0.38,0 0.68,0.32 0.68,0.7 v 1.44 c 0,0.38 -0.3,0.7 -0.68,0.7 h -3.94 v 11.14 c 0,0.38 -0.32,0.7 -0.7,0.7 h -1.5 c -0.4,0 -0.7,-0.32 -0.7,-0.7 V 7.84 H 64.3 c -0.38,0 -0.7,-0.32 -0.7,-0.7 V 5.7 C 63.6,5.32 63.92,5 64.3,5 Z"
       id="path11"
       inkscape:connector-curvature="0" />
  </g>
</svg>
