<?xml version="1.0" encoding="UTF-8" standalone="no"?>
<!-- Generator: Adobe Illustrator 19.1.0, SVG Export Plug-In . SVG Version: 6.00 Build 0)  -->

<svg
   xmlns:dc="http://purl.org/dc/elements/1.1/"
   xmlns:cc="http://creativecommons.org/ns#"
   xmlns:rdf="http://www.w3.org/1999/02/22-rdf-syntax-ns#"
   xmlns:svg="http://www.w3.org/2000/svg"
   xmlns="http://www.w3.org/2000/svg"
   xmlns:sodipodi="http://sodipodi.sourceforge.net/DTD/sodipodi-0.dtd"
   xmlns:inkscape="http://www.inkscape.org/namespaces/inkscape"
   version="1.1"
   id="Layer_1"
   x="0px"
   y="0px"
   viewBox="0 0 250 250"
   style="enable-background:new 0 0 250 250;"
   xml:space="preserve"
   sodipodi:docname="viznet_icon.svg"
   inkscape:version="0.92.4 (33fec40, 2019-01-16)"><metadata
   id="metadata17"><rdf:RDF><cc:Work
       rdf:about=""><dc:format>image/svg+xml</dc:format><dc:type
         rdf:resource="http://purl.org/dc/dcmitype/StillImage" /><dc:title /></cc:Work></rdf:RDF></metadata><defs
   id="defs15" /><sodipodi:namedview
   pagecolor="#ffffff"
   bordercolor="#666666"
   borderopacity="1"
   objecttolerance="10"
   gridtolerance="10"
   guidetolerance="10"
   inkscape:pageopacity="0"
   inkscape:pageshadow="2"
   inkscape:window-width="1920"
   inkscape:window-height="1056"
   id="namedview13"
   showgrid="false"
   inkscape:zoom="1.888"
   inkscape:cx="44.756356"
   inkscape:cy="149.42351"
   inkscape:window-x="1600"
   inkscape:window-y="24"
   inkscape:window-maximized="1"
   inkscape:current-layer="Layer_1" />
<style
   type="text/css"
   id="style2">
	.st0{fill:#3100DD;}
	.st1{fill:#2F00C3;}
	.st2{fill:#FFFFFF;}
</style>
<g
   id="g10">
	<polygon
   class="st0"
   points="125,30 125,30 125,30 31.9,63.2 46.1,186.3 125,230 125,230 125,230 203.9,186.3 218.1,63.2  "
   id="polygon4"
   style="fill:#004bc3;fill-opacity:1" />
	<polygon
   class="st1"
   points="125,30 125,52.2 125,52.1 125,153.4 125,153.4 125,230 125,230 203.9,186.3 218.1,63.2 125,30  "
   id="polygon6"
   style="fill:#0040ac;fill-opacity:1" />
	
</g>
<path
   style="fill:#ffffff;stroke-width:8.94236755"
   d="m 187.09301,73.030703 c 1.25194,1.788469 1.43077,3.934637 0.71539,5.901969 L 138.8042,200.01236 c -1.07307,2.50384 -3.39808,3.93463 -5.90195,3.93463 h -15.73857 c -2.6827,0 -5.00773,-1.43079 -5.90197,-3.93463 L 62.257546,78.932672 c -0.894234,-1.967332 -0.715371,-4.1135 0.536563,-5.901969 1.251907,-1.78847 3.21924,-2.861566 5.186571,-2.861566 h 59.735 c 3.3981,0 6.25965,2.861566 6.25965,6.438504 v 7.055872 c 0,3.576938 -2.86155,6.43851 -6.25965,6.43851 H 89.66934 l 35.36362,90.856237 39.94832,-106.854486 c 0.89423,-2.325005 3.21926,-3.934637 5.90197,-3.934637 h 11.02319 c 2.14617,0 4.11346,1.073096 5.18657,2.861566 z"
   id="path11"
   inkscape:connector-curvature="0"
   sodipodi:nodetypes="cccsscccssssscccssc" /></svg>