<?xml version="1.0" encoding="utf-8"?>
<svg viewBox="0 0 200 81" preserveAspectRatio="xMidYMid meet" class="css-1y5supu" id="hecaebdh"
   xmlns="http://www.w3.org/2000/svg">
  <defs id="SvgjsDefs1089">
    <linearGradient id="SvgjsLinearGradient1092">
      <stop id="SvgjsStop1093" stop-color="#2d388a" offset="0"></stop>
      <stop id="SvgjsStop1094" stop-color="#00aeef" offset="1"></stop>
    </linearGradient>
  </defs>
  <g id="SvgjsG1090" featurekey="root" fill="#fce9ec"></g>
  <g id="SvgjsG1091" featurekey="text1" fill="url(#SvgjsLinearGradient1092)" transform="matrix(2.9391606145392473,0,0,2.9391606145392473,0.00015977111342309675,0.06831996015191777)">
    <path d="M0.16602 3.4373749999999994 l3.2617 0 q0.224609375 0 0.537109375 2.666015625 q1.904296875 11.39648438 1.904296875 11.84570313 l0.058594 0 q1.5234375 -9.658203125 2.333984375 -14.40429688 l0.16602 -0.10742 l3.2031 0 l0 0.058594 l-0.10742 0.15625 q0.107421875 0.13671875 0.107421875 0.224609375 q-0.048828125 0.15625 -0.107421875 0.15625 q0.107421875 0.478515625 0.107421875 0.76171875 q-3.427734375 18.9453125 -3.4765625 19.08203125 l-0.16602 0.10742 l-4.2383 0 q-0.234375 0 -0.654296875 -3.046875 q-3.095703125 -16.93359375 -3.095703125 -17.39257813 z M0.32227 4.306374999999999 l0 0.10742 q1.201171875 -0.634765625 1.58203125 -0.703125 l0 -0.058594 l-0.27344 0 l-1.1914 0.48828 z M8.584 3.6523749999999993 l0 0.058594 q0.537109375 0.029296875 2.724609375 1.796875 l0 -0.16602 q-0.966796875 -0.9375 -2.392578125 -1.689453125 l-0.33203 0 z M11.143 3.6523749999999993 q0 0.068359375 0.2734375 0.224609375 l0.048828 0 l0 -0.058594 q-0.048828125 -0.107421875 -0.048828125 -0.166015625 l-0.27344 0 z M0.43945 4.961375 q0.048828125 0.09765625 0.048828125 0.2734375 q2.109375 -1.201171875 2.939453125 -1.201171875 l0 -0.15625 q-1.85546875 0.46875 -2.98828125 1.083984375 z M8.3691 4.199375 l0 0.10742 l2.2852 1.5234 q0 0.029296875 0.48828125 0.4296875 l0 -0.10742 q-0.87890625 -1.025390625 -2.7734375 -1.953125 z M0.6543 5.830375 q0 -0.05859375 -0.05859375 -0.05859375 l0 0.10742 q0 0.068359375 1.201171875 1.201171875 q0.595703125 0.693359375 0.595703125 0.76171875 q0 0.166015625 -0.76171875 0.4296875 l-0.6543 -0.42969 l0 0.16602 q0.2734375 0.322265625 0.439453125 0.322265625 l0 0.10742 l-0.16602 0.21484 l-0.10742 -0.048828 l-0.058594 0 q0.05859375 0.09765625 0.05859375 0.2734375 l0.048828 0 q1.26953125 -0.99609375 2.83203125 -1.25 q0 -0.1171875 -0.107421875 -0.1171875 q-0.166015625 0 -1.30859375 0.2734375 q-0.107421875 -0.17578125 -0.107421875 -0.322265625 q1.142578125 -0.595703125 1.357421875 -0.595703125 l0 -0.22461 q-1.357421875 0.48828125 -1.572265625 0.712890625 q-0.439453125 -0.439453125 -0.439453125 -0.546875 q0 -0.361328125 1.845703125 -1.03515625 l0 -0.15625 l-2.168 0.91797 l-0.10742 0 q0 -0.13671875 -0.380859375 -0.4296875 l0 -0.058594 q0 -0.322265625 2.119140625 -1.083984375 q0.380859375 -0.05859375 0.380859375 -0.166015625 l0 -0.048828 q-0.5078125 0 -2.83203125 1.083984375 l-0.048828 0 z M8.2031 5.068375 l0 0.10742 q0.01953125 0.068359375 1.201171875 0.654296875 q1.142578125 0.810546875 1.572265625 1.25 q0 -0.05859375 0.05859375 -0.166015625 q-0.44921875 -0.498046875 -1.357421875 -1.03515625 q-0.3125 -0.224609375 -1.416015625 -0.810546875 l-0.058594 0 z M8.0957 5.937374999999999 l0 0.16602 q0.869140625 0.3125 2.724609375 1.787109375 l0.048828 0 l0 -0.10742 q-1.19140625 -1.162109375 -2.7734375 -1.845703125 z M7.9395 6.914375 l0 0.10742 q0 0.068359375 1.083984375 0.48828125 q0.83984375 0.517578125 1.689453125 1.201171875 l0 -0.10742 q-1.23046875 -1.181640625 -2.7734375 -1.689453125 z M7.7734 7.841374999999999 l0 0.048828 q0 0.068359375 1.083984375 0.498046875 q0.8203125 0.439453125 1.58203125 1.298828125 l0 0.058594 q0.107421875 0 0.107421875 -0.107421875 l0 -0.11719 q-1.15234375 -1.19140625 -2.7734375 -1.6796875 z M1.3574 10.127375 q1.943359375 -1.38671875 2.83203125 -1.474609375 l0 -0.10742 l-0.058594 0 q-0.654296875 0 -2.7734375 1.357421875 l0 0.22461 z M7.666 8.652375 q0 0.05859375 -0.05859375 0.166015625 q1.09375 0 1.904296875 1.083984375 q0.17578125 0.712890625 0.2734375 0.712890625 l0.48828 0 q0.09765625 0 0.166015625 -0.380859375 l-0.058594 0 q-0.205078125 0.15625 -0.380859375 0.15625 l-0.10742 0 q-0.205078125 -0.771484375 -0.927734375 -1.357421875 q-0.771484375 -0.380859375 -1.25 -0.380859375 l-0.048828 0 z M1.5723 11.103375 l0 0.16602 q1.162109375 -1.123046875 2.7734375 -1.5234375 l0 -0.16602 q-0.29296875 0 -1.953125 0.76171875 q-0.595703125 0.44921875 -0.8203125 0.76171875 z M7.3926 10.127375 l0.54688 0 q0.390625 0 0.76171875 0.48828125 l0 0.10742 l-0.058594 0 l-1.25 -0.33203 l-0.058594 0 l0 0.11719 q0 0.068359375 0.869140625 0.263671875 q0.478515625 0.224609375 0.546875 0.33203125 l0.10742 -0.058594 l0.10742 0 q0.380859375 0 0.380859375 0.33203125 q-0.380859375 0 -0.64453125 0.595703125 l-0.11719 0 q-0.48828125 -0.41015625 -1.357421875 -0.703125 l0 0.10742 q0 0.087890625 0.48828125 0.21484375 q0.478515625 0.25390625 0.712890625 0.654296875 q0.29296875 0 0.380859375 0.21484375 q0 0.126953125 -0.05859375 0.21484375 q0.712890625 0.869140625 0.8203125 2.0703125 l0.048828 0 q0.05859375 -0.478515625 0.05859375 -0.546875 l-0.21484 -0.92773 l0.32227 -0.26367 l-0.10742 -0.33203 q0.17578125 -0.595703125 0.4296875 -0.595703125 l0 -0.21484 q-0.595703125 0.361328125 -0.595703125 0.76171875 l0.058594 0.32227 l-0.10742 0.058594 l-0.16602 0 q-0.068359375 0 -0.2734375 -0.2734375 l0 -0.16602 l0.16602 -0.21484 l0 -0.10742 q-0.33203125 0 -0.33203125 -0.166015625 q0 -0.48828125 0.8203125 -0.546875 l0 -0.048828 q0 -0.341796875 -0.712890625 -0.76171875 q-0.3125 -0.8203125 -1.1328125 -0.8203125 l-0.11719 0 q-0.263671875 0 -0.322265625 0.224609375 z M1.7969 12.295375 l0 0.33203 l0.048828 0 q0.37109375 -1.025390625 2.5 -2.0703125 l0.10742 0 l0 -0.16602 q-1.826171875 0.615234375 -2.65625 1.904296875 z M2.0117 13.711375 l0.058594 0.27344 l0.048828 0 q0.21484375 -0.751953125 1.30859375 -1.904296875 q0.068359375 0 0.64453125 -0.48828125 q0.41015625 -0.2734375 0.546875 -0.2734375 q-0.0390625 -0.21484375 -0.107421875 -0.21484375 q-1.6015625 0.87890625 -2.5 2.607421875 z M2.7148 15.234375 l0 0.048828 q0 0.400390625 0.33203125 1.416015625 q-0.2734375 0.234375 -0.380859375 0.654296875 q0.15625 1.03515625 0.21484375 1.03515625 q1.220703125 1.083984375 2.5 1.083984375 l0.21484 0 q0.166015625 0.48828125 0.166015625 0.654296875 l0 0.10742 l-0.38086 0.058594 l-0.21484 0 q-0.78125 0 -2.0703125 -0.654296875 l0 0.15625 q0 0.224609375 1.962890625 0.654296875 l0.32227 0 q0.302734375 0 0.8203125 -0.107421875 q0.107421875 0.05859375 0.15625 0.05859375 q0.48828125 0 0.48828125 -0.927734375 q0.1953125 -0.166015625 0.654296875 -0.166015625 q0.37109375 0 0.595703125 0.439453125 l0 0.048828 q0 0.7421875 -2.607421875 1.5234375 l-0.16602 0 q-0.751953125 0 -2.060546875 -0.595703125 l0 0.058594 q0 0.29296875 1.142578125 0.595703125 q0 0.107421875 0.76171875 0.166015625 q1.15234375 0 2.9296875 -1.201171875 q0 -0.107421875 0.224609375 -0.107421875 l0 0.21484 q0 0.5859375 -1.3671875 1.09375 q-0.419921875 0.322265625 -2.275390625 0.322265625 l-0.058594 0 q-0.41015625 0 -1.19140625 -0.21484375 l0 0.048828 q0 0.33203125 0.91796875 0.33203125 q0 0.048828125 0.654296875 0.048828125 l0.10742 0 q1.38671875 0 2.98828125 -0.703125 q0.48828125 -0.52734375 0.48828125 -1.142578125 q-0.283203125 -0.9765625 -0.703125 -0.9765625 q0 -0.068359375 -0.48828125 -0.166015625 q-0.810546875 0 -0.810546875 0.703125 q-0.05859375 0 -0.05859375 0.33203125 q-0.05859375 0 -0.166015625 0.048828125 q-0.46875 0 -0.537109375 -0.703125 l0 -0.32227 q0 -0.05859375 0.048828125 -0.05859375 q0 -0.703125 -0.48828125 -0.703125 q-0.869140625 -0.263671875 -0.869140625 -0.654296875 q-0.48828125 -0.05859375 -0.48828125 -0.166015625 q0.17578125 -0.322265625 0.595703125 -0.322265625 q0.283203125 0 0.9765625 0.322265625 l0 -0.21484 q-0.712890625 -0.322265625 -1.083984375 -0.322265625 q-0.76171875 0.224609375 -0.76171875 0.751953125 l0 0.11719 l0.058594 0 q0.46875 -0.05859375 0.537109375 -0.05859375 l0.10742 0.32227 q0 0.33203125 -0.703125 0.33203125 l-0.10742 0 q-0.3125 0 -0.48828125 -0.546875 q-0.33203125 0 -0.33203125 -0.4296875 l0 -0.058594 q0 -0.546875 0.76171875 -0.703125 q0.361328125 -0.654296875 1.30859375 -0.654296875 q0.244140625 0 0.48828125 0.107421875 l0 -0.058594 l-0.16602 -0.75195 l0 -0.38086 q0 -0.1171875 -0.107421875 -0.1171875 l-0.048828 0.38086 l0 0.49805 q0 0.107421875 -0.107421875 0.107421875 l-0.27344 0 q-0.05859375 -0.302734375 -0.05859375 -0.439453125 q0 -0.361328125 0.439453125 -1.19140625 l0 -0.16602 q-0.654296875 0.791015625 -0.654296875 1.357421875 l0 0.38086 q-0.068359375 0.21484375 -0.48828125 0.21484375 q-0.224609375 -0.48828125 -0.224609375 -0.76171875 q0.29296875 -1.787109375 0.76171875 -1.787109375 q0.341796875 -0.2734375 0.439453125 -0.2734375 l0 -0.21484 q-0.693359375 0.224609375 -1.083984375 0.869140625 l-0.33203 1.25 q0 0.52734375 0.2734375 1.025390625 q-0.185546875 0.439453125 -0.4296875 0.439453125 q-0.380859375 -0.44921875 -0.380859375 -1.25 q0 -1.875 1.513671875 -2.7734375 q0.1171875 0 0.33203125 -0.21484375 q-0.05859375 -0.166015625 -0.107421875 -0.166015625 q-1.962890625 1.044921875 -1.962890625 3.046875 z M7.0703 12.187375 l0 0.10742 q0.576171875 0.3515625 1.025390625 0.76171875 q0.869140625 0.9765625 0.869140625 2.392578125 q-0.0390625 0.927734375 -0.21484375 0.927734375 l-0.27344 0 q-0.078125 0 -0.15625 -0.224609375 q0 -0.01953125 0.048828125 -0.703125 q0 -1.484375 -1.357421875 -2.333984375 l-0.10742 0 l0 0.10742 q0.693359375 0.44921875 0.9765625 1.19140625 q0.2734375 0.37109375 0.2734375 1.09375 q0 0.869140625 -0.322265625 1.357421875 q0 0.478515625 -0.60546875 0.595703125 q0 0.107421875 -0.2734375 0.107421875 q-0.078125 0 -0.15625 -0.166015625 l0 -0.048828 q0.91796875 -0.966796875 0.91796875 -1.5234375 l0 -0.38086 q0 -0.9765625 -0.869140625 -1.6796875 l-0.048828 0 l0 0.21484 q0.76171875 0.76171875 0.76171875 1.572265625 q0 0.888671875 -0.927734375 1.5234375 l-0.16602 -0.21484 l0 -0.16602 q0.712890625 -0.56640625 0.712890625 -1.298828125 q0 -0.546875 -0.48828125 -0.927734375 l0 0.21484 q0.263671875 0.3515625 0.263671875 0.546875 l0 0.16602 q0 0.537109375 -0.595703125 1.1328125 q0 0.13671875 -0.048828125 0.439453125 q0.087890625 0 0.380859375 0.703125 q0.13671875 0.166015625 0.322265625 0.166015625 q0.44921875 -0.2734375 0.595703125 -0.2734375 q0.15625 0.107421875 0.380859375 0.107421875 q0 -0.048828125 0.05859375 -0.048828125 l-0.058594 -0.10742 l0 -0.38086 q0.107421875 -0.546875 0.546875 -0.546875 l0.10742 0 q0.439453125 0 0.439453125 0.654296875 l-0.11719 0.38086 l0.11719 0 q0.048828125 -0.46875 0.15625 -0.8203125 l-0.15625 -0.32227 q0 -0.05859375 0.107421875 -0.927734375 q0 -1.640625 -0.76171875 -2.333984375 q-0.556640625 -0.732421875 -1.357421875 -1.03515625 z M9.9512 12.402375 l0 0.16602 l0.048828 0 l0 -0.16602 l-0.048828 0 z M6.2012 17.626975 q0 0.1171875 -0.05859375 0.21484375 q0.107421875 0.029296875 0.21484375 0.2734375 q0 0.068359375 -0.322265625 0.380859375 l0 0.16602 q0.29296875 -0.2734375 1.083984375 -0.2734375 q-0.009765625 -0.126953125 -0.537109375 -0.33203125 q0 -0.205078125 -0.33203125 -0.4296875 l-0.048828 0 z M4.7266 18.330075 q0.791015625 0.33203125 0.9765625 0.33203125 l0 0.15625 q0 0.439453125 -0.322265625 0.439453125 l-0.21484 0 q-0.400390625 0 -1.357421875 -0.380859375 l0 -0.10742 q0.732421875 -0.13671875 0.91796875 -0.439453125 z M5.166 23.437495 l-0.38086 0 q-0.380859375 0 -1.03515625 -0.15625 l0 0.21484 q0.859375 0.166015625 1.416015625 0.166015625 q2.5 -0.37109375 2.5 -0.654296875 q0.537109375 -0.263671875 0.537109375 -0.546875 q-0.078125 0 -0.703125 0.48828125 q-1.484375 0.48828125 -2.333984375 0.48828125 z M7.832 23.710935 l0 0.058594 l0.10742 0 l0.048828 -0.10742 q-0.107421875 0.048828125 -0.15625 0.048828125 z M13.90624625 3.4373749999999994 l2.8809 0 q0.380859375 0 0.380859375 0.380859375 l0 20 q0 0.087890625 -0.15625 0.166015625 l-3.1543 0 q-0.087890625 0 -0.166015625 -0.166015625 l0 -20.166 q0 -0.078125 0.21484375 -0.21484375 z M14.13085625 3.8773750000000007 l0 0.91797 q1.89453125 -0.546875 2.607421875 -0.546875 l0 -0.37109 l-2.6074 0 z M16.78710625 4.248374999999999 l0 0.11719 l0.10742 0 l0 -0.11719 l-0.10742 0 z M14.13085625 5.068375 l0 0.54688 l0.048828 0 q1.689453125 -0.546875 2.55859375 -0.546875 l0 -0.5957 q-0.625 0 -2.607421875 0.595703125 z M13.90624625 5.009374999999999 l0 0.11719 q0.107421875 -0.05859375 0.166015625 -0.05859375 l0 -0.16602 l-0.058594 0 q-0.107421875 0.01953125 -0.107421875 0.107421875 z M16.78710625 5.068375 l0 0.16602 l0.10742 0 l0 -0.16602 l-0.10742 0 z M14.13085625 5.879375 l0 0.71289 q1.4453125 -0.576171875 2.607421875 -0.76171875 l0 -0.54688 q-0.693359375 0 -2.607421875 0.595703125 z M13.90624625 5.830375 l0 0.10742 l0.058594 0 q0.107421875 0 0.107421875 -0.107421875 l0 -0.10742 l-0.058594 0 q-0.107421875 0.009765625 -0.107421875 0.107421875 z M16.78710625 5.879375 l0 0.16602 l0.10742 0 l0 -0.16602 l-0.10742 0 z M14.13085625 6.914375 l0 0.5957 l0.048828 0 q0.9375 -0.322265625 1.796875 -0.48828125 q0.498046875 -0.498046875 0.76171875 -0.537109375 l0 -0.38086 q-2.05078125 0.400390625 -2.607421875 0.810546875 z M16.78710625 6.5333749999999995 l0 0.10742 l0.10742 0 l0 -0.21484 q-0.107421875 0.01953125 -0.107421875 0.107421875 z M13.90624625 6.699375 l0 0.21484 q0.107421875 -0.048828125 0.166015625 -0.048828125 l0 -0.22461 q-0.107421875 0.05859375 -0.166015625 0.05859375 z M16.02540625 7.675374999999999 l0 0.10742 q0.05859375 0.166015625 0.33203125 0.166015625 q0.3515625 -0.13671875 0.380859375 -0.2734375 l0 -0.91797 q-0.712890625 0.48828125 -0.712890625 0.91796875 z M14.13085625 7.7833749999999995 l0 0.6543 l0.048828 0 q1.5234375 -0.498046875 1.5234375 -0.595703125 q0 -0.13671875 0.05859375 -0.439453125 l-0.11719 0 q-0.419921875 0 -1.513671875 0.380859375 z M13.90624625 7.675374999999999 l0 0.16602 l0.058594 0 q0.107421875 0 0.107421875 -0.107421875 l0 -0.10742 q-0.107421875 0.048828125 -0.166015625 0.048828125 z M16.84570625 7.627375000000001 l-0.058594 0.26367 l0 0.058594 q0.107421875 0 0.107421875 -0.107421875 l0 -0.21484 l-0.048828 0 z M14.17968625 8.818375 q0 0.09765625 0.48828125 0.439453125 l0.058594 0 l1.4063 -0.60547 l0.60547 -0.15625 l0 -0.43945 q0 0.146484375 -1.416015625 0.21484375 q-0.5078125 0.17578125 -1.142578125 0.546875 z M16.78710625 8.603375 l0 0.10742 q0.107421875 0 0.107421875 -0.107421875 l0 -0.10742 q-0.107421875 0.009765625 -0.107421875 0.107421875 z M13.90624625 8.652375 l0 0.33203 q0.05859375 0 0.166015625 0.048828125 l0 -0.48828 l-0.058594 0 q-0.107421875 0.01953125 -0.107421875 0.107421875 z M15.10740625 9.521375 q0 0.068359375 0.2734375 0.224609375 l0.10742 0 q1.25 -0.400390625 1.25 -0.48828125 l0 -0.49805 l-0.058594 0 q-0.322265625 0 -1.572265625 0.712890625 l0 0.048828 z M14.13085625 9.140375 l0 1.0352 q1.962890625 1.806640625 2.607421875 2.34375 l0 -1.2012 q-1.54296875 -1.484375 -2.607421875 -2.177734375 z M16.78710625 9.414375 l0 0.10742 l0.10742 0 l0 -0.21484 q-0.107421875 0.01953125 -0.107421875 0.107421875 z M15.81050625 10.019375 q0 0.078125 0.322265625 0.322265625 q0.537109375 -0.166015625 0.60546875 -0.166015625 l0 -0.53711 q-0.927734375 0.1953125 -0.927734375 0.380859375 z M13.90624625 10.127375 l0 0.15625 q0 0.087890625 0.166015625 0.166015625 l0 -0.16602 q0 -0.078125 -0.166015625 -0.15625 z M16.78710625 10.175375 l0 0.21484 q0.107421875 0 0.107421875 -0.107421875 l0 -0.10742 l-0.10742 0 z M16.46480625 10.507375 q0 0.29296875 0.2734375 0.4296875 l0 -0.48828 q-0.09765625 0.05859375 -0.2734375 0.05859375 z M14.13085625 10.615375 l0 0.5957 q1.19140625 0.927734375 2.2265625 1.904296875 q0.322265625 0.2734375 0.380859375 0.2734375 l0 -0.54688 q-0.3125 -0.166015625 -2.451171875 -2.177734375 l-0.10742 -0.048828 l-0.048828 0 z M16.78710625 11.045375 l0 0.22461 q0.01953125 0.107421875 0.107421875 0.107421875 l0 -0.33203 l-0.10742 0 z M13.90624625 11.152375 l0 0.16602 q0.01953125 0.107421875 0.107421875 0.107421875 l0.058594 0 l0 -0.21484 q-0.05859375 0 -0.166015625 -0.05859375 z M14.13085625 11.591375 l0 0.81055 q1.25 1.279296875 2.607421875 1.904296875 l0 -0.5957 q-0.17578125 0 -1.904296875 -1.572265625 q-0.478515625 -0.41015625 -0.703125 -0.546875 z M13.90624625 12.295375 l0 0.22461 q0 0.078125 0.166015625 0.15625 l0 -0.21484 q0 -0.078125 -0.166015625 -0.166015625 z M16.78710625 12.675375 l0 0.16602 q0.01953125 0.107421875 0.107421875 0.107421875 l0 -0.16602 q0 -0.107421875 -0.107421875 -0.107421875 z M14.13085625 12.841375 l0 0.5957 q1.298828125 1.30859375 1.73828125 1.30859375 q0.595703125 -0.087890625 0.595703125 -0.224609375 q-1.25 -0.771484375 -2.333984375 -1.6796875 z M13.90624625 13.330375 l0 0.21484 q0 0.087890625 0.166015625 0.166015625 l0 -0.21484 q0 -0.087890625 -0.166015625 -0.166015625 z M16.78710625 13.496375 l0 0.21484 q0.01953125 0.107421875 0.107421875 0.107421875 l0 -0.21484 q0 -0.107421875 -0.107421875 -0.107421875 z M14.13085625 13.877375 l0 0.42969 q0.64453125 0.712890625 0.64453125 0.76171875 l0.54688 -0.10742 l0 -0.058594 q0 -0.087890625 -1.19140625 -1.025390625 z M13.90624625 14.199175 l0 0.21484 q0 0.087890625 0.166015625 0.166015625 l0 -0.21484 q0 -0.087890625 -0.166015625 -0.166015625 z M16.78710625 14.414075 l0 0.43945 l0.10742 0 l0 -0.43945 l-0.10742 0 z M14.13085625 14.746075 l0 0.6543 l0.048828 0 q0.244140625 -0.1171875 0.2734375 -0.224609375 q-0.05859375 -0.17578125 -0.322265625 -0.4296875 z M14.13085625 15.830075 l0 0.82031 q0 0.1171875 1.083984375 0.48828125 q1.083984375 -0.439453125 1.5234375 -0.439453125 l0 -1.7969 q-2.607421875 0.60546875 -2.607421875 0.927734375 z M13.90624625 15.283175 l0 0.54688 q0.107421875 -0.048828125 0.166015625 -0.048828125 l0 -0.33203 q0 -0.078125 -0.166015625 -0.166015625 z M13.90624625 16.650375 l0 0.15625 q0.01953125 0.107421875 0.107421875 0.107421875 l0.058594 0 l0 -0.21484 q-0.05859375 0 -0.166015625 -0.048828125 z M16.78710625 16.699175 l0 0.16602 l0.10742 0 l0 -0.16602 l-0.10742 0 z M15.59570625 17.294875 l0 0.10742 q0 0.09765625 0.380859375 0.33203125 l0.10742 0 q0.419921875 -0.33203125 0.654296875 -0.33203125 l0 -0.48828 q-0.302734375 0.01953125 -1.142578125 0.380859375 z M14.13085625 17.031275 l0 1.084 q0.64453125 0 2.607421875 1.572265625 l0 -0.86914 q-1.318359375 -1.34765625 -2.451171875 -1.787109375 l-0.15625 0 z M16.78710625 17.402375 l0 0.16602 l0.10742 0 l0 -0.16602 l-0.10742 0 z M16.29880625 18.056675 q0.3125 0.224609375 0.439453125 0.224609375 l0 -0.60547 l-0.058594 0 q-0.17578125 0 -0.380859375 0.380859375 z M13.90624625 18.056675 l0 0.16602 q0.05859375 0 0.166015625 0.05859375 l0 -0.11719 q0 -0.107421875 -0.107421875 -0.107421875 l-0.058594 0 z M14.13085625 18.330075 l0 0.54688 q1.26953125 0.380859375 2.548828125 1.845703125 l0 0.058594 l0.058594 0 l0 -0.6543 q-0.91796875 -1.044921875 -2.236328125 -1.630859375 q-0.107421875 0 -0.37109375 -0.166015625 z M16.78710625 18.388675 l0 0.32227 q0.01953125 0.107421875 0.107421875 0.107421875 l0 -0.42969 l-0.10742 0 z M13.90624625 18.818375 l0 0.10742 q0.01953125 0.107421875 0.107421875 0.107421875 l0.058594 0 l0 -0.10742 q0 -0.107421875 -0.107421875 -0.107421875 l-0.058594 0 z M14.13085625 19.150375 l0 0.48828 q1.58203125 0.60546875 2.607421875 2.119140625 l0 -0.43945 q0 -0.458984375 -1.58203125 -1.6796875 q-0.8984375 -0.48828125 -1.025390625 -0.48828125 z M13.90624625 19.580075 l0 0.16602 q0.01953125 0.107421875 0.107421875 0.107421875 l0.058594 0 l0 -0.21484 q-0.05859375 0 -0.166015625 -0.05859375 z M16.78710625 19.912075 l0 0.21484 q0.01953125 0.107421875 0.107421875 0.107421875 l0 -0.21484 q0 -0.107421875 -0.107421875 -0.107421875 z M14.13085625 19.960975 l0 0.43945 q0.673828125 0.185546875 1.73828125 1.572265625 q0.244140625 0.458984375 0.869140625 1.201171875 l0 -0.6543 q-0.341796875 -0.99609375 -1.689453125 -2.119140625 q-0.625 -0.439453125 -0.91796875 -0.439453125 z M13.90624625 20.341775 l0 0.21484 q0.05859375 0 0.166015625 0.05859375 l0 -0.27344 l-0.16602 0 z M14.13085625 20.722675 l0 0.82031 q0.283203125 0 1.630859375 1.630859375 q0.15625 0.322265625 0.15625 0.37109375 l0.6543 0 l0 -0.048828 q-1.142578125 -1.689453125 -1.796875 -2.392578125 q-0.078125 0 -0.595703125 -0.380859375 l-0.048828 0 z M16.78710625 20.937475 l0 0.22461 q0.01953125 0.107421875 0.107421875 0.107421875 l0 -0.22461 q0 -0.107421875 -0.107421875 -0.107421875 z M13.90624625 21.484375 l0 0.10742 q0.01953125 0.107421875 0.107421875 0.107421875 l0.058594 0 l0 -0.10742 q0 -0.107421875 -0.107421875 -0.107421875 l-0.058594 0 z M14.13085625 21.865275 l0 0.5957 l1.1328 1.084 l0.33203 0 l0 -0.048828 q0 -0.322265625 -1.416015625 -1.630859375 l-0.048828 0 z M16.78710625 21.972675 l0 0.27344 l0.058594 0.27344 l0.048828 0 l0 -0.27344 l-0.048828 -0.27344 l-0.058594 0 z M13.90624625 22.353475 l0 0.16602 q0 0.078125 0.166015625 0.15625 l0 -0.15625 q0 -0.087890625 -0.166015625 -0.166015625 z M14.13085625 22.841775 l0 0.70313 l0.70313 0 l0 -0.048828 q-0.234375 -0.3125 -0.703125 -0.654296875 z M16.78710625 23.437495 q0 0.087890625 -0.107421875 0.224609375 q0.01953125 0.107421875 0.107421875 0.107421875 l0.10742 0 l0 -0.22461 q0 -0.107421875 -0.107421875 -0.107421875 z M13.90624625 23.496095 l0 0.27344 l0.27344 0 q0 -0.068359375 -0.2734375 -0.2734375 z M15.00000625 23.603515 q0 0.078125 0.15625 0.166015625 l0.10742 0 l0 -0.058594 q0 -0.107421875 -0.107421875 -0.107421875 l-0.15625 0 z M15.70310625 23.603515 q0.05859375 0.107421875 0.05859375 0.166015625 l0.26367 0 q-0.048828125 -0.107421875 -0.048828125 -0.166015625 l-0.27344 0 z M19.2089875 3.4373749999999994 l8.2617 0 q0.29296875 0 0.380859375 0.21484375 l0 2.9395 q0 0.2734375 -5.05859375 12.82226563 l-0.42969 1.1426 l5.2734 0 q0.078125 0 0.21484375 0.224609375 l0 3.0371 q0 0.078125 -0.166015625 0.166015625 l-8.9648 0 q-0.078125 0 -0.166015625 -0.166015625 l0 -3.0371 q0 -0.087890625 5.48828125 -13.8671875 l-5.3223 0 q-0.078125 0 -0.166015625 -0.15625 l0 -3.1055 q0 -0.21484375 0.654296875 -0.21484375 z M21.6503875 3.7113750000000003 l0 0.048828 l0.27344 0.058594 l0 0.058594 l-2.9297 0 l0 0.26367 q0 0.09765625 1.572265625 0.439453125 q1.640625 0.52734375 2.7734375 1.416015625 q0.634765625 0.537109375 1.142578125 0.537109375 l0.10742 0.16602 l0 0.058594 l-0.058594 0.10742 l2.0703 1.4648 q0.25390625 0 0.4296875 -0.8203125 q-1.54296875 -1.6015625 -2.98828125 -2.3828125 q-0.771484375 -0.72265625 -2.119140625 -1.201171875 l0 -0.048828 l0.82031 0 l-0.058594 0.10742 q0.419921875 0.21484375 0.546875 0.21484375 q0.078125 0 0.322265625 -0.322265625 l-0.81055 0 l0.10742 -0.16602 l-0.33203 0 l-0.15625 0.10742 q-0.048828125 0 -0.439453125 -0.107421875 l-0.27344 0 z M23.7206875 3.8773750000000007 l0.10742 0 q0.283203125 0 0.322265625 -0.166015625 l-0.27344 0 q-0.078125 0 -0.15625 0.166015625 z M26.3866875 3.8773750000000007 l0.32227 0 l0 0.048828 q-1.1328125 0.29296875 -2.0703125 1.25 q0.166015625 0 0.166015625 0.166015625 l0.058594 0 q0.087890625 0 1.298828125 -0.712890625 q1.25 -0.390625 1.25 -0.48828125 l0 -0.26367 l-0.70313 0 l0 -0.058594 l0.27344 -0.058594 l0 -0.048828 l-0.27344 0 q-0.322265625 0.029296875 -0.322265625 0.166015625 z M23.5546875 4.414375 q0.52734375 0.439453125 0.76171875 0.439453125 l1.6309 -0.86914 l0.27344 -0.058594 l0 -0.048828 l-2.0117 0 q-0.25390625 0 -0.48828125 0.37109375 q-0.078125 0 -0.166015625 0.166015625 z M27.4706875 4.306374999999999 l0 0.058594 q0.107421875 -0.05859375 0.166015625 -0.05859375 l0 -0.10742 l-0.058594 0 q-0.107421875 0.01953125 -0.107421875 0.107421875 z M18.7695275 4.248374999999999 l0 0.16602 l0.16602 0 l0 -0.16602 l-0.16602 0 z M18.9941375 4.4723749999999995 l0 0.42969 q0 0.09765625 1.298828125 0.33203125 q1.396484375 0.52734375 2.7734375 1.25 l0.48828 0 q-1.787109375 -1.416015625 -3.583984375 -1.796875 q-0.087890625 0 -0.9765625 -0.21484375 z M25.2929875 5.507375 q0.17578125 0.37109375 0.439453125 0.37109375 q1.611328125 -0.751953125 1.6796875 -0.751953125 l0 -0.6543 q-0.439453125 0 -2.119140625 1.03515625 z M18.7695275 5.009374999999999 l0 0.058594 q0.01953125 0.107421875 0.107421875 0.107421875 l0.058594 0 l0 -0.16602 l-0.16602 0 z M27.4706875 5.127375000000001 l0 0.15625 q0.107421875 -0.048828125 0.166015625 -0.048828125 l0 -0.16602 q-0.107421875 0.05859375 -0.166015625 0.05859375 z M18.9941375 5.234375 l0 0.64453 q0.869140625 0.15625 0.869140625 0.33203125 l-0.11719 0.048828 q-0.56640625 -0.048828125 -0.751953125 -0.15625 l0 0.42969 q0.986328125 -0.048828125 1.25 -0.048828125 l0 -0.058594 q-0.283203125 0 -0.33203125 -0.166015625 l0 -0.10742 l0.10742 0 q0.13671875 0 1.03515625 0.33203125 l1.3574 0 l0 -0.058594 q-2.3828125 -1.142578125 -3.310546875 -1.142578125 q0 -0.048828125 -0.107421875 -0.048828125 z M26.0058875 6.211375 q0.126953125 0.009765625 0.48828125 0.4296875 q0.8984375 -0.400390625 0.91796875 -0.48828125 l0 -0.76172 l-0.048828 0 q-1.19140625 0.46875 -1.357421875 0.8203125 z M18.7695275 5.830375 l0 0.10742 q0.01953125 0.107421875 0.107421875 0.107421875 l0.058594 0 l0 -0.10742 q0 -0.107421875 -0.107421875 -0.107421875 l-0.058594 0 z M27.4706875 6.211375 l0 0.16602 l0.048828 0 q0.1171875 0 0.1171875 -0.1171875 l0 -0.10742 q-0.107421875 0.05859375 -0.166015625 0.05859375 z M26.8749875 6.865375 l0 0.10742 q0 0.078125 0.322265625 0.322265625 q0.21484375 -0.654296875 0.21484375 -0.703125 l0 -0.10742 l-0.048828 0 q-0.37109375 0.146484375 -0.48828125 0.380859375 z M20.6249875 6.5333749999999995 l0 0.058594 q0.380859375 0.107421875 0.4296875 0.107421875 l0.16602 0 q-0.05859375 -0.166015625 -0.33203125 -0.166015625 l-0.26367 0 z M22.6855875 6.5333749999999995 l0 0.058594 q0.087890625 0 0.21484375 0.107421875 l0.33203 0 q-0.05859375 -0.166015625 -0.33203125 -0.166015625 l-0.21484 0 z M23.7694875 6.5333749999999995 l0 0.058594 q0.087890625 0 0.224609375 0.107421875 l0.21484 0 q-0.05859375 -0.166015625 -0.33203125 -0.166015625 l-0.10742 0 z M24.3163875 6.806374999999999 l0 0.10742 q0.01953125 0.107421875 0.107421875 0.107421875 l0.058594 -0.10742 q0 -0.107421875 -0.107421875 -0.107421875 l-0.058594 0 z M24.4237875 7.080375 l-0.048828 0.27344 l0 0.048828 q0.205078125 0 1.6796875 1.25 q0.05859375 0 0.166015625 0.05859375 l0.10742 -0.16602 l0 -0.10742 q-0.146484375 -0.048828125 -1.904296875 -1.357421875 z M24.1015875 7.402374999999999 q0.009765625 0.107421875 0.107421875 0.107421875 l0.048828 0 l0 -0.21484 l-0.048828 0 q-0.107421875 0.01953125 -0.107421875 0.107421875 z M27.1386875 7.402374999999999 q0 0.126953125 -0.048828125 0.224609375 l0.10742 0.048828 l0.058594 0 l0.048828 -0.21484 l-0.10742 -0.058594 l-0.058594 0 z M24.2089875 7.675374999999999 q-0.107421875 0.224609375 -0.107421875 0.33203125 q0.771484375 0.390625 1.572265625 1.025390625 q0.078125 0 0.166015625 -0.15625 q-1.38671875 -1.25 -1.630859375 -1.25 l0 0.048828 z M23.8769875 7.949375 q0 0.05859375 -0.048828125 0.166015625 l0.10742 0.048828 l0.058594 0 q0 -0.05859375 0.048828125 -0.15625 l-0.10742 -0.058594 l-0.058594 0 z M26.7089875 8.603375 q0.21484375 -0.087890625 0.322265625 -0.380859375 l-0.048828 0 q-0.185546875 0 -0.2734375 0.380859375 z M23.9941875 8.271375 l-0.16602 0.38086 q1.279296875 0.76171875 1.416015625 0.76171875 q0.107421875 0 0.107421875 -0.15625 q0 -0.3125 -1.357421875 -0.986328125 z M23.6132875 8.603375 l0 0.15625 l0.048828 0 q0.107421875 0 0.107421875 -0.107421875 q-0.05859375 0 -0.15625 -0.048828125 z M23.2323875 14.853475 l0 0.27344 q0 0.751953125 0.15625 1.572265625 l0.058594 0 q0.48828125 -1.181640625 0.48828125 -2.9296875 q0.185546875 -1.455078125 1.357421875 -3.10546875 q0.46875 -0.361328125 0.76171875 -0.48828125 l0 0.058594 l-0.10742 0.27344 l0.058594 0 q0.263671875 -0.263671875 0.263671875 -0.439453125 l-0.21484 0.10742 l0 -0.10742 q0.48828125 -1.103515625 0.48828125 -1.30859375 q-1.396484375 0.869140625 -2.333984375 2.7734375 q-0.9765625 1.81640625 -0.9765625 3.3203125 z M23.7206875 8.925375 l-0.10742 0.27344 q0.830078125 0.283203125 1.19140625 0.76171875 q0.107421875 -0.13671875 0.107421875 -0.166015625 l0 -0.10742 q-0.556640625 -0.576171875 -1.19140625 -0.810546875 l0 0.048828 z M23.3886875 9.140375 q0 0.17578125 -0.21484375 0.654296875 q0.185546875 0 0.380859375 -0.595703125 l-0.10742 -0.058594 l-0.058594 0 z M23.2323875 10.234375 q0.048828125 0 0.048828125 -0.05859375 q0.224609375 0.087890625 0.224609375 0.166015625 l0 0.10742 q0 0.5078125 -0.76171875 0.869140625 q0 0.05859375 -0.166015625 0.48828125 q1.904296875 -0.99609375 1.904296875 -1.630859375 q-0.25390625 -0.48828125 -0.654296875 -0.48828125 l-0.32227 0 q-0.166015625 0 -0.2734375 0.546875 z M22.5780875 11.269375 l0.048828 0 q0.146484375 0 0.498046875 -0.986328125 l-0.11719 0 q-0.087890625 0 -0.380859375 0.869140625 q-0.048828125 0 -0.048828125 0.1171875 z M24.1015875 14.902375 l0 0.058594 l0.048828 0 q0.48828125 -1.396484375 1.689453125 -4.296875 l-0.058594 0 q-0.99609375 0.9765625 -1.40625 2.55859375 z M22.3632875 15.283175 q0 1.03515625 0.76171875 1.689453125 l0.048828 0 q-0.21484375 -0.703125 -0.21484375 -1.689453125 l0 -0.21484 q0 -1.93359375 0.91796875 -3.53515625 l-0.048828 0 q-1.005859375 0 -1.46484375 3.369140625 l0 0.38086 z M22.0898875 12.734375 l0 0.048828 l0.048828 0 l0.27344 -0.81055 q-0.25390625 0 -0.322265625 0.76171875 z M21.6503875 14.902375 l0 0.60547 q0 0.302734375 0.439453125 0.48828125 l0.048828 0 l-0.048828 -0.76172 q0 -1.3671875 0.595703125 -3.046875 l-0.058594 0 q-0.1953125 0 -0.4296875 1.142578125 q-0.546875 0.498046875 -0.546875 1.572265625 z M21.8163875 13.388375 q-0.546875 0.9375 -0.546875 1.19140625 l0.10742 -0.058594 q0 0.05859375 0.05859375 0.05859375 q0.107421875 -0.41015625 0.439453125 -1.142578125 l0 -0.048828 l-0.058594 0 z M21.3280875 14.853475 l-0.16602 0.54688 l0.16602 0 l0.048828 -0.38086 l0 -0.16602 l-0.048828 0 z M20.9472875 15.341775 l-0.058594 0.10742 l0 0.058594 q0.01953125 0.107421875 0.107421875 0.107421875 l0.058594 -0.10742 l0 -0.058594 q0 -0.107421875 -0.107421875 -0.107421875 z M23.9941875 15.341775 q-0.166015625 0.517578125 -0.166015625 0.654296875 l0 0.15625 l0.048828 0 l0.16602 -0.53711 l0 -0.27344 l-0.048828 0 z M20.9960875 15.664075 l-0.37109 1.0352 l0.048828 0 q0.732421875 0.3515625 2.119140625 1.58203125 q0.33203125 -0.76171875 0.33203125 -0.927734375 q-1.142578125 -1.142578125 -2.12890625 -1.689453125 z M20.4003875 16.650375 l0 0.048828 q0.01953125 0.107421875 0.107421875 0.107421875 l0.058594 -0.10742 l0 -0.048828 l-0.16602 0 z M20.5077875 16.865275 q-0.107421875 0.380859375 -0.107421875 0.4296875 l0 0.058594 q0.634765625 0.1953125 2.119140625 1.6796875 q0.107421875 -0.3515625 0.107421875 -0.48828125 q-1.38671875 -1.279296875 -2.119140625 -1.6796875 z M23.2323875 17.402375 q0.009765625 0.1171875 0.107421875 0.1171875 q0 -0.13671875 0.166015625 -0.439453125 q-0.05859375 -0.107421875 -0.05859375 -0.166015625 q-0.1171875 0 -0.21484375 0.48828125 z M20.1269875 17.294875 l0 0.10742 q0.01953125 0.1171875 0.1171875 0.1171875 q0.048828125 -0.1953125 0.048828125 -0.224609375 l-0.16602 0 z M20.2441875 17.626975 l-0.22461 0.53711 q1.005859375 0.390625 2.119140625 1.58203125 l0 0.048828 q0.126953125 0 0.224609375 -0.48828125 q-1.181640625 -1.435546875 -1.85546875 -1.572265625 q0 -0.107421875 -0.263671875 -0.107421875 z M19.8046875 18.115275 l0 0.10742 q0.01953125 0.107421875 0.107421875 0.107421875 q0 -0.05859375 0.05859375 -0.166015625 q-0.05859375 0 -0.166015625 -0.048828125 z M19.9120875 18.388675 q0 0.126953125 -0.166015625 0.48828125 q0.64453125 0.3125 2.12890625 1.73828125 l0.21484 -0.54688 q-1.181640625 -1.298828125 -2.177734375 -1.6796875 z M22.7929875 18.388675 l-0.048828 0.27344 q0.009765625 0.107421875 0.107421875 0.107421875 l0.048828 -0.22461 q-0.048828125 -0.09765625 -0.048828125 -0.15625 l-0.058594 0 z M19.5312475 18.818375 q0 0.029296875 -0.048828125 0.21484375 l0.10742 0.058594 l0.048828 0 q0 -0.1171875 0.05859375 -0.21484375 q-0.05859375 0 -0.166015625 -0.05859375 z M19.6386875 19.150375 q-0.21484375 0.458984375 -0.21484375 0.703125 q0.400390625 0.05859375 3.701171875 3.154296875 q0.6640625 0.537109375 0.703125 0.537109375 l0.76172 0 q-1.19140625 -0.966796875 -2.28515625 -2.060546875 q-1.07421875 -1.26953125 -1.845703125 -1.73828125 q-0.7421875 -0.595703125 -0.8203125 -0.595703125 z M22.4706875 19.150375 l0 0.15625 q0.01953125 0.107421875 0.107421875 0.107421875 l0.048828 -0.21484 l-0.10742 -0.048828 l-0.048828 0 z M19.1503875 19.794875 l0 0.16602 l0.058594 0 q0.107421875 0 0.107421875 -0.107421875 l-0.10742 -0.058594 l-0.058594 0 z M22.1972875 19.912075 q0 0.01953125 -0.05859375 0.21484375 l0.10742 0.048828 l0.058594 -0.10742 l0 -0.048828 q0 -0.107421875 -0.107421875 -0.107421875 z M19.2578175 20.126975 q-0.21484375 0.4296875 -0.21484375 0.595703125 l0 0.058594 q0.224609375 0 1.953125 1.298828125 q1.650390625 1.46484375 1.904296875 1.46484375 l0.48828 0 q-3.798828125 -3.4765625 -4.130859375 -3.4765625 l0 0.058594 z M18.7695275 20.722675 l0 0.16602 q0.05859375 0 0.166015625 0.048828125 l0 -0.21484 l-0.16602 0 z M21.8749875 20.722675 l0 0.058594 l0.21484 0.15625 l0 -0.048828 z M22.7929875 20.781275 q0 0.078125 0.166015625 0.15625 l0.27344 0 q0 -0.078125 -0.166015625 -0.15625 l-0.27344 0 z M23.7206875 20.781275 q0 0.078125 0.15625 0.15625 l0.22461 0 q0 -0.078125 -0.166015625 -0.15625 l-0.21484 0 z M24.5312875 20.781275 q0 0.078125 0.166015625 0.15625 l0.21484 0 q0 -0.078125 -0.15625 -0.15625 l-0.22461 0 z M26.1620875 20.781275 q0 0.078125 0.166015625 0.15625 l0.32227 0 q0 -0.078125 -0.15625 -0.15625 l-0.33203 0 z M22.2460875 20.996075 q2.03125 2.0703125 2.890625 2.548828125 l0.70313 0 l0 -0.048828 q-0.44921875 -0.068359375 -2.939453125 -2.5 l-0.6543 0 z M23.3886875 20.996075 q1.806640625 2.001953125 2.880859375 2.44140625 l0.38086 0.10742 l0.27344 0 l0 -0.048828 q-0.771484375 -0.166015625 -3.095703125 -2.5 l-0.43945 0 z M24.2577875 20.996075 l0 0.048828 q2.197265625 2.1484375 3.154296875 2.392578125 l0 -0.26367 l-1.4063 -0.98633 q-1.23046875 -0.927734375 -1.30859375 -1.19140625 l-0.43945 0 z M25.0780875 20.996075 q0.224609375 0.341796875 1.5234375 1.357421875 q0.126953125 0.0390625 0.76171875 0.439453125 l0.048828 0 l0 -1.0352 l-1.084 -0.76172 l-1.25 0 z M26.8749875 20.996075 l0 0.048828 l0.53711 0.27344 l0 -0.32227 l-0.53711 0 z M18.9941375 21.044875 l0 0.82031 q1.50390625 0.48828125 2.763671875 1.6796875 l0.48828 0 q-2.490234375 -2.216796875 -3.251953125 -2.5 z M27.4706875 21.425775 l0 0.27344 q0.05859375 0 0.166015625 0.05859375 l0 -0.27344 q-0.05859375 0 -0.166015625 -0.05859375 z M18.7695275 21.806675 l0 0.10742 q0.01953125 0.1171875 0.107421875 0.1171875 l0.058594 0 l0 -0.11719 q0 -0.107421875 -0.107421875 -0.107421875 l-0.058594 0 z M18.9941375 22.138675 l0 0.53711 q0.693359375 0.126953125 1.6796875 0.869140625 l0.6543 0 q-1.123046875 -1.03515625 -2.333984375 -1.40625 z M18.7695275 22.675775 l0 0.22461 l0.16602 0 l0 -0.10742 q0 -0.1171875 -0.107421875 -0.1171875 l-0.058594 0 z M27.4706875 22.900375 l0 0.15625 q0.01953125 0.1171875 0.107421875 0.1171875 l0.058594 0 l0 -0.22461 q-0.05859375 0 -0.166015625 -0.048828125 z M18.9941375 23.007815 l0 0.38086 l0.53711 0.15625 l0.6543 0 q-0.791015625 -0.537109375 -1.19140625 -0.537109375 z M18.7695275 23.330075 l0 0.27344 l0.5957 0.16602 l0.33203 0 l0 -0.058594 l-0.38086 -0.10742 l-0.38086 0 q0 -0.2734375 -0.166015625 -0.2734375 z M27.1972875 23.603515 l0 0.058594 l0.38086 0.10742 l0.058594 0 l0 -0.10742 l-0.058594 -0.11719 q-0.21484375 0.05859375 -0.380859375 0.05859375 z M20.4003875 23.603515 l0 0.058594 q0.087890625 0 0.224609375 0.107421875 l0.21484 0 q0 -0.078125 -0.166015625 -0.166015625 l-0.27344 0 z M21.4941875 23.603515 q0 0.078125 0.15625 0.166015625 l0.27344 0 l0 -0.058594 q-0.087890625 0 -0.21484375 -0.107421875 l-0.21484 0 z M22.4706875 23.603515 q0 0.078125 0.15625 0.166015625 l0.33203 0 q-0.05859375 -0.166015625 -0.33203125 -0.166015625 l-0.15625 0 z M23.6132875 23.603515 q0.048828125 0.166015625 0.322265625 0.166015625 l0.21484 0 l0 -0.058594 q-0.3515625 -0.107421875 -0.48828125 -0.107421875 l-0.048828 0 z M24.8046875 23.603515 l0 0.058594 q0.087890625 0 0.21484375 0.107421875 l0.33203 0 l0 -0.058594 q-0.087890625 0 -0.21484375 -0.107421875 l-0.33203 0 z M26.1132875 23.603515 l0 0.058594 q0.078125 0 0.21484375 0.107421875 l0.42969 0 l0 -0.058594 q-0.078125 0 -0.21484375 -0.107421875 l-0.42969 0 z M29.580074375 3.3793749999999996 l3.2227 0 q0.21484375 0 0.380859375 1.30859375 l1.1426 8.0664 l0.058594 0 q1.083984375 -8.28125 1.30859375 -9.31640625 l0.10742 -0.058594 l3.2715 0 q0.244140625 0 0.4296875 2.177734375 q0.166015625 0.791015625 1.09375 7.197265625 l0.048828 0 q1.15234375 -8.96484375 1.30859375 -9.31640625 l0.11719 -0.058594 l3.2129 0 q0.078125 0 0.21484375 0.21484375 q-3.046875 19.66796875 -3.212890625 20.33203125 l-0.10742 0.058594 l-2.9492 0 q-0.2734375 0 -0.4296875 -1.796875 q-0.380859375 -2.03125 -1.259765625 -8.017578125 l-0.048828 0 q-1.259765625 8.80859375 -1.416015625 9.70703125 q-0.13671875 0.107421875 -0.166015625 0.107421875 l-2.9492 0 q-0.263671875 0 -0.48828125 -2.0703125 l-3.1055 -18.262 l0 -0.058594 q0 -0.078125 0.21484375 -0.21484375 z M30.400434375 3.5933750000000018 q1.7578125 1.552734375 2.783203125 2.890625 l0 -0.21484 q-0.810546875 -1.201171875 -2.6171875 -2.67578125 l-0.16602 0 z M31.220734375 3.5933750000000018 q0.859375 0.68359375 1.796875 1.689453125 l0 -0.048828 q0 -0.37109375 -1.58203125 -1.640625 l-0.21484 0 z M32.363234375 3.5933750000000018 l0 0.058594 q0.107421875 0 0.439453125 0.322265625 l0 -0.10742 q0 -0.068359375 -0.2734375 -0.2734375 l-0.16602 0 z M35.849634375 3.5933750000000018 l0 0.16602 q1.09375 1.3671875 1.09375 1.689453125 q-0.21484375 0.2734375 -0.380859375 0.2734375 q-0.5078125 -0.80078125 -0.869140625 -1.09375 l0 0.16602 q0.64453125 0.849609375 0.64453125 1.03515625 l0 0.16602 q0 0.068359375 -0.4296875 0.322265625 q-0.2734375 -0.48828125 -0.2734375 -0.537109375 q-0.107421875 0 -0.107421875 0.15625 q0.166015625 0.2734375 0.166015625 0.439453125 q-0.33203125 0.5859375 -0.33203125 0.712890625 l0.058594 0 q1.708984375 -1.748046875 3.701171875 -2.841796875 l-0.10742 -0.6543 l-0.10742 0 l0 0.058594 q0.107421875 0.17578125 0.107421875 0.322265625 l0 0.058594 q0 0.166015625 -0.439453125 0.21484375 q-0.380859375 -0.654296875 -0.4296875 -0.654296875 l-0.22461 0 l0.49805 0.76172 q-0.166015625 0.390625 -0.498046875 0.390625 l-0.76172 -1.1523 l-0.27344 0 q0.76171875 0.888671875 0.76171875 1.3671875 q-0.3125 0.2734375 -0.537109375 0.2734375 q-0.380859375 -0.654296875 -1.201171875 -1.58203125 l0 -0.058594 l-0.058594 0 z M42.011234375 4.091374999999999 l0 0.15625 q1.455078125 -0.595703125 1.85546875 -0.595703125 l0 -0.058594 l-0.33203 0 q-0.3515625 0 -1.5234375 0.498046875 z M41.953234375 4.687374999999999 l0 0.21484 q1.845703125 -1.03515625 2.998046875 -1.03515625 q0.33203125 -0.09765625 0.33203125 -0.21484375 l-0.10742 0 q-1.435546875 0.068359375 -3.22265625 1.03515625 z M29.423828375 3.7013749999999987 q0.048828125 0.09765625 0.048828125 0.224609375 l0.058594 0 l0 -0.22461 l-0.10742 0 z M29.638674375 3.8183749999999996 l0 0.048828 q0 0.205078125 0.8203125 0.76171875 q1.943359375 1.962890625 2.451171875 3.1640625 q0.2734375 0.21484375 0.2734375 0.48828125 l0 0.058594 q0 0.09765625 -1.201171875 0.2734375 q-0.439453125 -0.8203125 -1.640625 -2.177734375 q-0.25390625 -0.380859375 -0.322265625 -0.380859375 l0 0.048828 q0 0.244140625 0.8203125 1.201171875 q0.771484375 0.888671875 0.869140625 1.30859375 l-0.16602 0.10742 q-0.107421875 0 -1.083984375 -1.201171875 l-0.22461 -0.21484 l0 0.10742 q0.87890625 1.103515625 0.87890625 1.3671875 l0 0.048828 l-0.27344 0.058594 l-0.058594 0 l-0.32227 -0.33203 l0 0.058594 q0.048828125 0.302734375 0.048828125 0.48828125 l0 0.058594 l0.058594 0 q2.060546875 -0.546875 2.666015625 -0.546875 l0.27344 0 q0 -0.3515625 -0.9765625 -1.748046875 q-0.478515625 -1.201171875 -2.890625 -3.046875 z M41.797234375 5.781375000000001 q1.904296875 -1.162109375 3.37890625 -1.3671875 l0 -0.10742 l-0.058594 0 q-1.015625 0 -3.271484375 1.201171875 z M41.689234375 6.650375 l0 0.16602 q1.240234375 -1.19140625 3.046875 -1.533203125 q0.2734375 0 0.2734375 -0.107421875 l0 -0.048828 l-0.058594 0 q-1.455078125 0.1171875 -2.880859375 1.142578125 q0 0.048828125 -0.380859375 0.380859375 z M37.871134375 6.709375000000001 l0 0.048828 l0.10742 0 q1.23046875 -0.9765625 1.3671875 -0.9765625 l0 -0.16602 l-0.058594 0 q-0.78125 0.419921875 -1.416015625 1.09375 z M41.523234375 7.6853750000000005 l0 0.058594 q0.068359375 0 1.201171875 0.654296875 q0 -0.46875 1.46484375 -0.986328125 q0.05859375 0 0.05859375 0.05859375 q0.029296875 0.13671875 0.380859375 0.2734375 l0 -0.22461 q-0.2734375 -0.0390625 -0.2734375 -0.4296875 l0 -0.058594 q0 -0.205078125 0.546875 -0.869140625 l0 -0.16602 l-0.058594 0 q-0.80078125 0.107421875 -2.392578125 1.142578125 q-0.64453125 0.546875 -0.927734375 0.546875 z M44.521234375 6.269375 l0 0.048828 q-0.244140625 0.25390625 -0.439453125 0.927734375 q-0.791015625 0.29296875 -1.5234375 0.87890625 l-0.21484 0 q-0.2734375 -0.13671875 -0.2734375 -0.439453125 q1.46484375 -1.25 2.451171875 -1.416015625 z M38.798834375 6.923375 l-0.22461 0 q-1.73828125 0 -3.212890625 0.654296875 l-0.058594 0.10742 l0.058594 0 q1.337890625 -0.654296875 3.056640625 -0.654296875 q0.46875 0 1.142578125 0.107421875 q0 -0.09765625 -0.380859375 -0.21484375 l0 -0.10742 l0.27344 -0.33203 l0 -0.10742 l-0.058594 0 q-0.166015625 0.068359375 -0.595703125 0.546875 z M43.105234375 8.662375 l-0.10742 -0.048828 l0 0.048828 q0.15625 0.15625 0.595703125 0.439453125 l0.048828 0 q-0.107421875 -0.13671875 -0.107421875 -0.21484375 q0 -0.380859375 1.03515625 -0.712890625 l0 -0.16602 q-0.13671875 0 -1.357421875 0.654296875 l-0.10742 0 z M35.576134375 8.994375 q-0.341796875 -0.107421875 -0.4296875 -0.107421875 l0 0.048828 q0 0.068359375 1.5234375 0.712890625 q2.900390625 1.591796875 3.65234375 3.212890625 l0.058594 0 l0 -0.10742 q0 -0.107421875 -0.390625 -0.76171875 l0 -0.10742 l0.11719 0 l0.10742 0.048828 l0 -0.15625 q-0.5859375 -0.1171875 -0.869140625 -0.439453125 q-0.068359375 0 -0.439453125 -0.439453125 l0.10742 -0.048828 l0.16602 0 q0.107421875 0 0.927734375 0.21484375 l0 -0.058594 q0 -0.185546875 -1.689453125 -0.4296875 l-0.22461 -0.27344 l0 -0.058594 l0.38086 -0.048828 l0.27344 0 q0.29296875 0 1.142578125 0.107421875 l0 -0.16602 q-0.810546875 -0.107421875 -1.357421875 -0.107421875 l-0.10742 0 q-0.537109375 0.107421875 -0.60546875 0.107421875 q-0.283203125 0 -0.869140625 -0.546875 q0 -0.17578125 1.25 -0.322265625 q1.015625 0.068359375 1.58203125 0.2734375 l0 -0.16602 q-0.76171875 -0.21484375 -1.845703125 -0.21484375 q-0.654296875 0 -1.30859375 0.322265625 q-0.8203125 -0.244140625 -0.8203125 -0.4296875 q1.07421875 -0.60546875 2.177734375 -0.8203125 q0.41015625 0 1.640625 0.21484375 l0 -0.16602 q-1.259765625 -0.21484375 -1.3671875 -0.21484375 q-0.888671875 0 -2.783203125 0.927734375 z M41.357234375000004 8.935375 l0 0.11719 l1.3672 0.81055 q0.771484375 0.556640625 1.416015625 1.09375 l0 -0.10742 q-1.474609375 -1.396484375 -2.783203125 -1.9140625 z M43.916234375 9.375375 q0.33203125 0.380859375 0.33203125 0.48828125 l0.048828 0 l0 -0.15625 q-0.107421875 0 -0.107421875 -0.1171875 l0 -0.15625 q0 -0.13671875 0.224609375 -0.166015625 l0 -0.16602 l-0.058594 0 z M30.781234375 10.468375 l0 0.21484 l0.27344 -0.058594 q0.05859375 0 0.05859375 0.05859375 l0.10742 -0.058594 q0.48828125 0.15625 0.48828125 0.546875 l0 0.10742 q-0.068359375 0.166015625 -0.654296875 0.771484375 l0.54688 0.53711 l0 0.11719 q0 0.595703125 -0.380859375 0.595703125 q0.009765625 0.25390625 0.48828125 0.654296875 q0 0.654296875 0.380859375 0.654296875 q0.654296875 0 0.8203125 0.595703125 q0 0.126953125 -0.05859375 0.224609375 q0.087890625 0.21484375 0.166015625 0.21484375 l0.10742 0 q0.546875 -0.927734375 1.5234375 -0.927734375 q0.908203125 0 1.259765625 1.09375 l0 0.10742 q0 0.517578125 -0.869140625 0.8203125 q0 0.458984375 -0.546875 1.083984375 q-0.166015625 0.615234375 -0.166015625 0.986328125 q0 1.806640625 1.904296875 2.392578125 l0.058594 -0.27344 l0 -0.10742 q-0.166015625 0.05859375 -0.166015625 0.107421875 q-0.322265625 -0.068359375 -0.322265625 -0.15625 l0.5957 -0.60547 l0 -0.10742 l-0.86914 0.54688 l-0.058594 0 q-0.2734375 -0.09765625 -0.2734375 -0.33203125 q0.15625 0 0.712890625 -0.654296875 q0.1171875 0 0.654296875 -0.48828125 l0 -0.16602 q-0.791015625 0.5078125 -1.416015625 1.15234375 q-0.107421875 0 -0.107421875 0.048828125 q-0.2734375 -0.107421875 -0.2734375 -0.4296875 q0.693359375 -0.64453125 1.904296875 -1.3671875 l0 -0.21484 l-0.058594 0 l-1.9629 1.3086 q-0.0390625 -0.439453125 -0.107421875 -0.439453125 q0 -0.751953125 0.712890625 -1.03515625 q0.830078125 -0.68359375 1.630859375 -1.03515625 l0 -0.21484 l-0.048828 0 q-0.234375 0.21484375 -0.439453125 0.21484375 q0 -0.05859375 -0.48828125 -0.439453125 q0.17578125 -0.52734375 0.2734375 -0.595703125 q0.13671875 0 0.703125 0.654296875 l0.058594 0 l0 -0.16602 l-1.5234 -1.6895 q-0.5078125 -0.21484375 -0.712890625 -0.21484375 l-0.16602 0 q-0.283203125 0 -0.48828125 0.048828125 q-0.283203125 -0.048828125 -0.546875 -0.048828125 l-0.38086 0 l-0.32227 0.048828 q-0.546875 -0.15625 -0.8203125 -0.15625 l0 -0.33203 q0.5859375 -0.21484375 1.25 -0.21484375 l0.16602 0 q0.64453125 0 0.869140625 0.107421875 l0 -0.16602 q-0.810546875 -0.107421875 -1.19140625 -0.107421875 q-0.44921875 0 -1.201171875 0.107421875 l-0.27344 -0.32227 q0 -0.712890625 1.09375 -0.712890625 l0.32227 0 q0.3125 0 1.09375 0.107421875 l0 -0.15625 l-1.1523 -0.11719 q-0.60546875 0.05859375 -1.142578125 0.05859375 q-0.205078125 -0.48828125 -0.380859375 -0.48828125 l0 -0.22461 l0.27344 0.058594 q0.888671875 -0.2734375 1.3671875 -0.2734375 l0.86914 0 l0 -0.16602 l-0.38086 0 q-0.5859375 0 -1.9140625 0.166015625 q0.33203125 -0.419921875 0.33203125 -0.595703125 q1.2109375 -0.166015625 1.58203125 -0.166015625 l0.27344 0 l0 -0.16602 q-0.439453125 0 -1.9140625 0.166015625 l-0.32227 -0.43945 q1.357421875 -0.48828125 1.962890625 -0.48828125 l0.16602 0 l0 -0.058594 q0 -0.107421875 -0.166015625 -0.107421875 q-0.7421875 0.09765625 -2.40234375 0.546875 q-0.21484375 0.05859375 -0.380859375 0.05859375 z M41.250234375 9.921375 l0 0.048828 q0.9375 0.56640625 2.724609375 2.021484375 l0 -0.10742 q-0.751953125 -0.751953125 -2.40234375 -1.85546875 q-0.21484375 -0.107421875 -0.322265625 -0.107421875 z M34.980434375 10.088375 l0 0.15625 q1.81640625 0.60546875 3.212890625 1.962890625 q2.0703125 1.923828125 2.0703125 2.94921875 l0 0.27344 q0 0.078125 -0.21484375 0.21484375 l-0.058594 0 q-0.556640625 -1.484375 -2.0703125 -3.10546875 q-0.87890625 -0.751953125 -2.119140625 -1.30859375 q-0.634765625 -0.2734375 -0.927734375 -0.2734375 q0 0.048828125 -0.05859375 0.166015625 q1.34765625 0.087890625 3.486328125 2.01171875 q0.849609375 1.23046875 1.42578125 2.177734375 l0 0.27344 q0 0.166015625 -0.439453125 0.224609375 q-0.263671875 -1.0546875 -1.640625 -2.294921875 l0 0.16602 q1.337890625 1.4453125 1.42578125 2.0703125 l0 0.16602 l-0.38086 0.048828 l-0.11719 0 q-0.1171875 -0.01953125 -0.537109375 -0.91796875 l-0.16602 -0.11719 l0 0.058594 q0 0.13671875 0.380859375 0.76171875 l0.048828 0.33203 q-0.13671875 0.107421875 -0.21484375 0.107421875 l0 0.21484 q1.0546875 -0.439453125 1.58203125 -0.439453125 l0.058594 0 q-0.224609375 0.60546875 -0.224609375 0.771484375 l0.058594 0.27344 l-1.3086 0.32227 l0 0.16602 q1.025390625 -0.33203125 1.904296875 -0.33203125 l0.82031 0 q0.078125 0 0.166015625 0.224609375 q-0.05859375 0.322265625 -0.166015625 0.322265625 l-0.33203 0 q-0.48828125 0 -2.28515625 0.33203125 l0 0.21484 q0.76171875 0 1.142578125 1.09375 l0 0.26367 q0 0.25390625 -0.322265625 0.498046875 q0.048828125 0.15625 0.107421875 0.15625 q1.42578125 -0.810546875 1.962890625 -2.451171875 l0 -0.48828 q-0.126953125 -0.869140625 -0.654296875 -0.869140625 l-0.058594 0 q-0.17578125 0 -0.76171875 0.107421875 l0 -0.10742 q0 -0.341796875 0.546875 -0.76171875 q0.009765625 -0.205078125 0.8203125 -0.33203125 l0.10742 0 q0.1171875 0 0.48828125 0.21484375 q0.869140625 0 1.09375 1.3671875 q-0.439453125 0.64453125 -0.439453125 1.5234375 q0 0.712890625 -1.630859375 1.58203125 q-0.654296875 0.419921875 -0.654296875 1.30859375 q0.2734375 1.03515625 1.30859375 1.03515625 q0.9765625 0 0.9765625 -0.322265625 l0 -0.058594 q-0.0390625 0 -0.322265625 0.05859375 q-1.1328125 -0.68359375 -1.748046875 -0.87890625 l0 -0.10742 l0.058594 -0.27344 q1.083984375 0 2.01171875 0.87890625 l0.058594 0 l0.15625 -1.1523 q-0.29296875 0 -1.25 -0.537109375 l0 -0.11719 q0.146484375 0 0.439453125 -0.2734375 l0.048828 0 q0.166015625 0 0.87890625 0.498046875 l0 -0.16602 q0 -0.068359375 -0.654296875 -0.48828125 q0 -0.29296875 0.2734375 -0.439453125 l0.048828 0 q0.166015625 0 0.439453125 0.166015625 l0 -0.22461 q-0.224609375 0 -0.33203125 -0.21484375 q0.107421875 -0.48828125 0.224609375 -0.48828125 q0.17578125 0.107421875 0.2734375 0.107421875 l0 -0.16602 q-0.166015625 0 -0.33203125 -0.2734375 l0 -0.21484 q0 -0.078125 0.21484375 -0.21484375 l0.11719 0 l0.10742 0.048828 l0 -0.10742 q0 -0.078125 -0.166015625 -0.166015625 l0.058594 -0.10742 l0 -0.6543 l-0.058594 -0.10742 q0.107421875 0 0.107421875 -0.048828125 l0.10742 0.048828 l0.10742 0 q0 -0.1171875 0.05859375 -0.21484375 q-0.05859375 0 -0.05859375 0.048828125 q-0.361328125 0 -0.810546875 -0.595703125 l0 -0.16602 q0.17578125 -0.205078125 1.083984375 -0.595703125 l0 -0.22461 q-0.17578125 0 -0.4296875 -0.4296875 q-1.474609375 -1.09375 -2.236328125 -1.416015625 l-0.058594 0.10742 q0.810546875 0.2734375 2.509765625 1.796875 q0 0.17578125 -0.546875 0.2734375 q-0.09765625 -0.380859375 -1.796875 -1.3671875 q0 -0.078125 -0.21484375 -0.21484375 l0 0.16602 q0.48828125 1.38671875 0.48828125 1.5234375 l-0.058594 0 q-0.419921875 0.166015625 -0.546875 0.166015625 q-0.15625 0 -0.48828125 -1.03515625 q-1.97265625 -3.095703125 -5.17578125 -4.140625 z M41.142234375 10.576375 l0 0.16602 q1.07421875 0.693359375 1.630859375 1.142578125 q0.517578125 0.56640625 1.03515625 0.9765625 l0 -0.21484 q-1.93359375 -1.796875 -2.666015625 -2.0703125 z M41.035234375 11.338375 l0 0.16602 q0.771484375 0.205078125 2.724609375 1.962890625 l0 -0.16602 q-1.58203125 -1.54296875 -2.724609375 -1.962890625 z M34.765634375 11.718375 l0 0.16602 q0.380859375 0 2.6171875 1.58203125 l0 -0.16602 q-0.91796875 -0.849609375 -2.568359375 -1.58203125 l-0.048828 0 z M40.918234375 12.099375 l0 0.21484 q0.87890625 0.33203125 2.67578125 1.9140625 q0 -0.05859375 0.048828125 -0.05859375 q-0.771484375 -0.966796875 -2.34375 -1.85546875 z M34.599634375 12.812375 l0 0.21484 q0.72265625 0.09765625 1.962890625 0.869140625 q0.341796875 0.41015625 0.654296875 0.60546875 l0 -0.16602 q-0.859375 -1.044921875 -2.451171875 -1.474609375 q-0.05859375 0 -0.166015625 -0.048828125 z M34.433634375 13.847375 l0 0.15625 q1.38671875 0.2734375 2.67578125 1.474609375 l0 -0.10742 q-0.498046875 -0.869140625 -2.568359375 -1.5234375 l-0.10742 0 z M41.191234375 14.062475 q1.03515625 0.33203125 1.3671875 0.986328125 l0 0.10742 q-0.05859375 0 -0.166015625 0.048828125 l-0.97656 -0.5957 q-0.224609375 -0.263671875 -0.224609375 -0.546875 z M33.339834375 14.658175 l0.27344 0.058594 q-0.087890625 0.244140625 -0.322265625 0.380859375 l-0.10742 0 q-0.126953125 0 -0.224609375 -0.380859375 z M41.465234375 14.882775 q0.3125 0 0.712890625 0.48828125 q-0.05859375 0 -0.05859375 0.05859375 q-0.654296875 -0.048828125 -0.654296875 -0.498046875 l0 -0.048828 z M31.650434375 15.751975 l0 0.16602 l0.16602 0 q0.625 0 0.927734375 0.703125 q-0.107421875 0.185546875 -0.107421875 0.33203125 l0 0.058594 l0.10742 0 q0.166015625 0 0.21484375 -0.439453125 q0 -0.37109375 -0.810546875 -0.869140625 l-0.10742 0 z M40.644234374999996 16.621075 q0.068359375 0 0.2734375 0.2734375 l-0.10742 0.058594 l-0.92773 0 l0 -0.058594 q0 -0.224609375 0.76171875 -0.2734375 z M35.742234375 16.679675 q0.21484375 0 0.439453125 0.33203125 l0 0.10742 q0 0.087890625 -0.33203125 0.21484375 q-0.4296875 -0.234375 -0.4296875 -0.546875 q0.17578125 -0.107421875 0.322265625 -0.107421875 z M35.195334375 17.119175 l0.10742 0 q0.2734375 0.15625 0.2734375 0.380859375 l-0.10742 0.048828 l-0.048828 0 q-0.13671875 0 -0.224609375 -0.4296875 z M34.980434375 17.499975 l0.10742 0 q0.107421875 0.009765625 0.107421875 0.107421875 l0 0.16602 l-0.10742 0 q-0.107421875 0 -0.107421875 -0.1171875 l0 -0.15625 z M31.982434375 17.656275 l0 0.27344 q0.166015625 0 0.439453125 0.2734375 l-0.22461 0.92773 l0.058594 0.33203 l0.048828 0 q0.15625 -0.8203125 0.2734375 -0.8203125 l0.11719 0.32227 q-0.09765625 0.654296875 -0.33203125 0.87890625 l0 0.32227 q0.48828125 -0.478515625 0.48828125 -1.03515625 l0 -0.048828 q-0.068359375 -1.1328125 -0.869140625 -1.42578125 z M34.814434375 17.880875 l0.058594 0.10742 l-0.10742 0.058594 l-0.058594 0 l0 -0.058594 q0.009765625 -0.107421875 0.107421875 -0.107421875 z M40.644234374999996 17.880875 q0.33203125 0.048828125 0.33203125 0.166015625 q-0.068359375 0.4296875 -0.380859375 0.4296875 q-0.029296875 0 -0.712890625 -0.048828125 q-0.068359375 0 -0.537109375 0.048828125 q-0.224609375 -0.078125 -0.33203125 -0.2734375 q0 -0.244140625 1.630859375 -0.322265625 z M40.381234375 18.583975 q0.21484375 0.087890625 0.21484375 0.166015625 q-0.41015625 0.8203125 -0.869140625 0.8203125 q0 -0.205078125 -0.166015625 -0.712890625 l0 -0.10742 q0 -0.166015625 0.8203125 -0.166015625 z M41.084234375 20.165975 q1.30859375 0.41015625 1.30859375 0.60546875 l-0.048828 0.27344 l0 0.21484 l0.048828 0.10742 l-0.048828 0 q-1.513671875 -0.8203125 -1.69921875 -0.8203125 l0 -0.048828 q0.224609375 -0.33203125 0.439453125 -0.33203125 z M32.802734375 22.509775 l0 0.27344 l0.048828 0 q1.03515625 -1.484375 1.03515625 -1.630859375 l-0.048828 0 z M32.578134375 21.201175 l0 0.10742 q0.1171875 0 0.1171875 -0.107421875 l-0.11719 0 z M40.429234375 21.474575 l0.058594 0 q0.341796875 0 1.142578125 0.546875 l0 0.058594 q0 0.107421875 -0.107421875 0.107421875 l-0.22461 0 q-0.869140625 -0.107421875 -0.869140625 -0.712890625 z M32.959034375 23.544925 l0 0.22461 q1.2890625 -1.201171875 1.42578125 -1.85546875 l-0.058594 0 q-0.68359375 0.95703125 -1.3671875 1.630859375 z M35.146534375 22.236375 q0 0.185546875 -1.416015625 1.533203125 l0.32227 0 q0 -0.15625 0.8203125 -0.87890625 q0.185546875 -0.244140625 0.380859375 -0.654296875 l-0.10742 0 z M34.814434375 23.769535 l0.22461 0 q1.03515625 -0.927734375 1.03515625 -1.3671875 l0 -0.048828 q-0.8203125 0.9765625 -1.259765625 1.416015625 z M39.072234375 22.734375 q0.048828125 0.107421875 0.048828125 0.15625 q0.107421875 0 0.166015625 -0.322265625 l-0.058594 0 q-0.0390625 0 -0.15625 0.166015625 z M39.228534375 23.769535 l0.11719 0 q0.33203125 -0.263671875 0.4296875 -0.2734375 q0.107421875 0.13671875 0.107421875 0.2734375 l0.33203 0 q-0.107421875 -0.2734375 -0.166015625 -0.2734375 q0.05859375 -0.107421875 0.05859375 -0.166015625 l0.048828 0 q0.126953125 0 0.224609375 0.439453125 l0.21484 0 l-0.058594 -0.27344 l0 -0.27344 l0.16602 0 q0.21484375 0.048828125 0.21484375 0.546875 l0.27344 0 q-0.15625 -0.29296875 -0.15625 -0.546875 l0.10742 -0.058594 l0.10742 0 q0.09765625 0 0.2734375 0.60546875 l0.21484 0 l0 -0.058594 q-0.107421875 -0.17578125 -0.107421875 -0.322265625 l0 -0.27344 l0.21484 0 l0.33203 0.42969 q0 -0.1171875 0.048828125 -0.595703125 l-0.6543 -0.058594 l-0.048828 0 q-2.294921875 0.185546875 -2.294921875 0.87890625 z M47.177730625 3.4373749999999994 l8.6426 0 q0.087890625 0 0.166015625 0.166015625 l0 3.1543 q0 0.078125 -0.166015625 0.15625 l-5.4297 0 l0 5.0586 l3.75 0 q0.380859375 0 0.380859375 0.654296875 l0 2.334 q0 0.419921875 -0.224609375 0.48828125 l-3.9063 0 l0 5.0586 l5.2148 0 q0.302734375 0 0.380859375 0.21484375 l0 3.0957 q0 0.087890625 -0.166015625 0.166015625 l-8.6914 0 q-0.087890625 0 -0.166015625 -0.166015625 l0 -20.166 q0 -0.078125 0.21484375 -0.21484375 z M48.652390625 3.7113750000000003 l0 0.048828 l0.26367 0.058594 l0.22461 0 q0.107421875 0 0.107421875 -0.107421875 l-0.5957 0 z M50.927690625 3.7593749999999986 l0 0.058594 l0.16602 0 l0.27344 -0.058594 l0 -0.048828 l-0.16602 0 z M52.665990625 3.7593749999999986 l0 0.058594 l0.27344 0 l0.27344 -0.058594 l0 -0.048828 l-0.16602 0 z M47.343750625 3.8773750000000007 l0 0.53711 l-0.058594 0 l-0.10742 -0.048828 l0 0.10742 q0.01953125 0.107421875 0.107421875 0.107421875 l0.058594 0 q0 -0.166015625 0.05859375 -0.166015625 q0.48828125 0.107421875 3.14453125 2.0703125 l1.7383 0 q-1.23046875 -1.201171875 -2.607421875 -2.01171875 q-0.6640625 -0.595703125 -0.9765625 -0.595703125 l-1.3574 0 z M49.355490625 3.8773750000000007 q0.390625 0.37109375 0.654296875 0.37109375 q0.185546875 0 0.64453125 -0.37109375 l-1.2988 0 z M50.331990625 4.580375 q0.166015625 0 0.166015625 0.166015625 l0.048828 0 q0.09765625 0 0.927734375 -0.498046875 q0.654296875 -0.322265625 0.76171875 -0.322265625 l0 -0.048828 l-0.92773 0 q-0.361328125 0 -0.9765625 0.703125 z M50.986290625 4.902374999999999 q0.17578125 0.380859375 0.4296875 0.380859375 q2.44140625 -1.25 4.130859375 -1.298828125 l0 -0.10742 l-2.168 0 q-0.830078125 0 -2.392578125 1.025390625 z M55.605490625 4.0333749999999995 l0 0.10742 l0.16602 0 l0 -0.10742 l-0.16602 0 z M51.689490625 5.615375 q0.13671875 0.009765625 0.48828125 0.4296875 q2.529296875 -1.25 3.369140625 -1.25 l0 -0.5957 q-1.73828125 0.1171875 -3.6328125 1.142578125 q0 0.029296875 -0.224609375 0.2734375 z M47.343750625 4.687374999999999 l0 0.43945 q0.0390625 0.087890625 1.572265625 0.869140625 q0.2734375 0.21484375 1.09375 0.703125 q0 -0.078125 0.107421875 -0.21484375 l0 -0.058594 q-2.568359375 -1.73828125 -2.7734375 -1.73828125 z M55.605490625 4.853375 l0 0.15625 l0.16602 0 l0 -0.15625 l-0.16602 0 z M52.558590625 6.259374999999999 l0 0.11719 q0.01953125 0.107421875 0.107421875 0.107421875 l0.71289 0 q1.728515625 -0.546875 2.060546875 -0.546875 l0.10742 0 l0 -0.86914 q-1.3671875 0.126953125 -2.9296875 1.083984375 z M47.177730625 5.175374999999999 l0 0.10742 q0.01953125 0.107421875 0.107421875 0.107421875 l0.058594 0 l0 -0.10742 q0 -0.107421875 -0.107421875 -0.107421875 l-0.058594 0 z M47.343750625 5.449375 l0 0.70313 q0.009765625 0.09765625 1.19140625 0.48828125 q0.615234375 0.44921875 1.416015625 0.8203125 l0 -0.48828 q-1.982421875 -1.220703125 -2.607421875 -1.5234375 z M55.605490625 5.937374999999999 l0 0.16602 l0.16602 0 l0 -0.16602 l-0.16602 0 z M54.355490625 6.425374999999999 l0 0.058594 l1.1914 0 l0 -0.33203 q-0.21484375 0 -1.19140625 0.2734375 z M47.177730625 6.211375 l0 0.048828 q0.01953125 0.1171875 0.107421875 0.1171875 l0.058594 0 l0 -0.058594 q0 -0.107421875 -0.107421875 -0.107421875 l-0.058594 0 z M47.343750625 6.425374999999999 l0 0.54688 q0.205078125 0.17578125 1.796875 0.869140625 q0.703125 0.4296875 0.810546875 0.4296875 l0 -0.42969 q-0.72265625 -0.517578125 -2.607421875 -1.416015625 z M50.331990625 6.5333749999999995 q0 0.087890625 0.166015625 0.166015625 l0.21484 0 q-0.05859375 -0.166015625 -0.322265625 -0.166015625 l-0.058594 0 z M52.451190625 6.5333749999999995 l0 0.058594 q0.01953125 0.107421875 0.107421875 0.107421875 l0.22461 0 q0 -0.078125 -0.166015625 -0.166015625 l-0.16602 0 z M53.212890625 6.640374999999999 l0 0.058594 l0.38086 0 l0.38086 -0.10742 l0 -0.058594 l-0.32227 0 q-0.05859375 0 -0.439453125 0.107421875 z M50.009790625 6.806374999999999 l0 0.21484 q0.048828125 0 0.15625 0.05859375 l0 -0.16602 q0 -0.107421875 -0.107421875 -0.107421875 l-0.048828 0 z M47.177730625 7.021374999999999 l0 0.16602 q0.05859375 0 0.166015625 0.05859375 l0 -0.16602 q-0.05859375 0 -0.166015625 -0.05859375 z M47.343750625 7.295375 l0 0.48828 l-0.16602 0 l0 0.10742 q0.01953125 0.1171875 0.107421875 0.1171875 l0.058594 0 l0 -0.22461 q0.9375 0.244140625 2.55859375 1.09375 l0.048828 0 l0 -0.27344 q-0.107421875 -0.205078125 -2.607421875 -1.30859375 z M50.009790625 7.568375 l0 0.16602 q0.009765625 0.107421875 0.107421875 0.107421875 l0.048828 0 l0 -0.21484 q-0.048828125 0 -0.15625 -0.05859375 z M47.343750625 8.056375 l0 0.43945 l-0.16602 0 l0 0.10742 q0.01953125 0.107421875 0.107421875 0.107421875 l0.058594 0 l0 -0.21484 q0.078125 0 1.19140625 0.48828125 q0.498046875 -0.09765625 0.498046875 -0.224609375 q0 -0.17578125 -1.689453125 -0.703125 z M50.009790625 8.388375 l0 0.10742 q0 0.078125 0.15625 0.15625 l0 -0.21484 q-0.048828125 0 -0.15625 -0.048828125 z M47.343750625 8.759375 l0 0.54688 q0 0.13671875 0.869140625 0.380859375 l0.10742 -0.48828 q-0.546875 -0.283203125 -0.9765625 -0.439453125 z M50.009790625 8.984375 l0 0.27344 q0 0.078125 0.15625 0.15625 l0 -0.38086 q-0.048828125 0 -0.15625 -0.048828125 z M48.593790625 9.472375 l0 0.16602 l0.32227 0 q0.05859375 0 0.05859375 -0.05859375 q0.21484375 0.078125 0.21484375 0.166015625 l0 0.10742 q0 0.72265625 -1.083984375 0.869140625 l-0.43945 0 q-0.146484375 0 -0.322265625 -0.107421875 l0 2.3926 l0.058594 0 q0.37109375 -0.68359375 0.37109375 -1.25 l-0.048828 -0.27344 q1.2890625 -0.5078125 2.2265625 -1.46484375 l0 -0.71289 q0 -0.13671875 -0.4296875 -0.21484375 l-0.22461 0 q-0.703125 0.21484375 -0.703125 0.380859375 z M47.177730625 9.365375 l0 0.21484 q0.05859375 0 0.166015625 0.05859375 l0 -0.16602 q0 -0.107421875 -0.107421875 -0.107421875 l-0.058594 0 z M47.343750625 9.687375 l0 0.38086 l-0.16602 -0.10742 l0 0.38086 q0 0.078125 0.166015625 0.166015625 l0 -0.43945 l0.058594 0 q0.810546875 0.205078125 0.810546875 0.322265625 q0.21484375 -0.078125 0.21484375 -0.15625 q-0.4296875 -0.439453125 -1.025390625 -0.546875 l-0.058594 0 z M50.117190625 9.795375 q0 0.087890625 -0.107421875 0.224609375 l0 0.5957 q0.15625 -0.05859375 0.15625 -0.33203125 l0 -0.48828 l-0.048828 0 z M49.902390625 10.888375 q-0.986328125 1.943359375 -0.986328125 3.369140625 l0 0.26367 q0 2.060546875 0.869140625 2.880859375 l0 -0.048828 q-0.322265625 -1.07421875 -0.322265625 -1.953125 q0 -1.58203125 0.48828125 -3.642578125 l0 -0.86914 l-0.048828 0 z M48.046890625 14.687475 q0 1.03515625 0.76171875 1.689453125 l0.058594 0 q-0.21484375 -0.712890625 -0.21484375 -1.689453125 l0 -0.21484 q0 -1.943359375 0.91796875 -3.53515625 l-0.048828 0 q-1.005859375 0 -1.474609375 3.369140625 l0 0.38086 z M47.402340625 13.818375 l-0.058594 0 l0 -0.70313 l-0.058594 0 q0 0.078125 -0.107421875 0.21484375 l0 1.9531 q0.01953125 0.1171875 0.107421875 0.1171875 l0.058594 0 l0 -0.33203 l0.058594 0 q0 0.146484375 0.37109375 0.33203125 l0.058594 0 l-0.058594 -0.76172 q0 -1.376953125 0.60546875 -3.046875 l-0.058594 0 q-0.205078125 0 -0.4296875 1.142578125 q-0.48828125 0.498046875 -0.48828125 1.083984375 z M50.117190625 11.591375 q-0.107421875 0.341796875 -0.107421875 0.546875 q0.048828125 0.107421875 0.048828125 0.15625 l0.058594 0 l0.048828 -0.27344 l0 -0.42969 l-0.048828 0 z M51.152390625 12.246375 l0 0.10742 l0.21484 0 l0 -0.10742 l-0.21484 0 z M52.177690625 12.246375 l0 0.10742 l0.22461 0 l0 -0.10742 l-0.22461 0 z M53.212890625 12.353375 l0.16602 0 q0.107421875 0 0.107421875 -0.107421875 l-0.16602 0 q-0.107421875 0.009765625 -0.107421875 0.107421875 z M50.117190625 12.402375 q-0.380859375 1.875 -0.380859375 2.880859375 q0 0.2734375 0.166015625 1.474609375 l0.048828 0 l0 -1.3574 q0 -0.380859375 0.380859375 -0.380859375 l0.38086 0 l0 -0.27344 q0 -1.201171875 0.322265625 -2.34375 l-0.91797 0 z M51.367190625 12.402375 q-0.380859375 1.25 -0.380859375 2.34375 l0 0.27344 l0.54688 0 l0 -0.92773 q0 -0.6640625 0.537109375 -1.689453125 l-0.70313 0 z M52.343790625 12.402375 q0 0.166015625 -0.380859375 0.869140625 q-0.107421875 0.546875 -0.107421875 1.09375 l0 0.6543 l0.38086 0 q0 -1.54296875 0.869140625 -2.5 l0 -0.11719 l-0.76172 0 z M52.558590625 14.638675 l0 0.38086 l0.76172 0 l0 -0.058594 q0 -1.42578125 0.76171875 -2.28515625 l0 0.33203 l0.058594 0 q0 -0.087890625 0.107421875 -0.224609375 l0 -0.26367 q-0.107421875 0 -0.107421875 0.15625 l-0.058594 0 l0 -0.27344 l-0.5957 0 q-0.927734375 1.0546875 -0.927734375 2.236328125 z M54.033190625 13.164375 q-0.380859375 0.927734375 -0.380859375 1.73828125 l0 0.11719 l0.42969 0 l0 -1.8555 l-0.048828 0 z M47.285160625 13.925375 l0.058594 0 l0 1.1426 l-0.058594 0 l0 -1.1426 z M54.189490625 14.257775 l-0.048828 0.38086 q0.048828125 0.361328125 0.048828125 0.595703125 l0.058594 0 l0 -0.97656 l-0.058594 0 z M50.771490625 15.068375 l0 0.16602 l0.15625 0 l0 -0.16602 l-0.15625 0 z M51.581990625 15.068375 l0 0.16602 l0.21484 0 l0 -0.16602 l-0.21484 0 z M52.285190625 15.068375 l0 0.16602 l0.22461 0 l0 -0.16602 l-0.22461 0 z M53.378890625 15.068375 q0.048828125 0.107421875 0.048828125 0.166015625 l0.22461 0 l0 -0.058594 q0 -0.107421875 -0.107421875 -0.107421875 l-0.16602 0 z M47.343750625 15.507775 l0 1.25 l-0.10742 -0.058594 l-0.058594 0 l0 0.16602 q0 0.078125 0.166015625 0.166015625 l0 -0.27344 q0.517578125 0.205078125 2.607421875 2.607421875 l0 -1.25 q-1.044921875 -1.416015625 -2.548828125 -2.607421875 l-0.058594 0 z M47.343750625 17.080075 l0 0.54688 l-0.16602 -0.10742 l0 0.15625 q0 0.087890625 0.166015625 0.166015625 l0 -0.21484 q1.103515625 1.015625 2.55859375 2.7734375 l0.048828 0 l0 -0.43945 q0 -0.41015625 -2.607421875 -2.880859375 z M50.009790625 17.246075 l0 0.81055 q0 0.087890625 0.15625 0.166015625 l0 -0.48828 q0 -0.13671875 -0.107421875 -0.48828125 l-0.048828 0 z M47.343750625 17.949175 l0 0.71289 l-0.16602 -0.11719 l0 0.22461 q0 0.078125 0.166015625 0.15625 l0 -0.26367 q3.720703125 3.857421875 4.0234375 3.857421875 q1.484375 0.810546875 1.73828125 0.810546875 q0 0.087890625 0.166015625 0.166015625 l0.42969 0 l0 -0.058594 q-1.5625 -0.498046875 -3.798828125 -2.607421875 q-1.58203125 -1.904296875 -2.55859375 -2.880859375 z M47.343750625 19.033175 l0 0.82031 l-0.16602 -0.10742 l0 0.16602 q0 0.078125 0.166015625 0.15625 l0 -0.21484 q3.671875 3.69140625 4.78515625 3.69140625 l0.27344 0 l0.048828 -0.10742 q-1.142578125 -0.458984375 -2.71484375 -1.953125 q-0.3515625 -0.283203125 -2.392578125 -2.451171875 z M50.009790625 19.531275 l0 0.21484 q0.0390625 0.322265625 0.15625 0.322265625 l0 -0.38086 q0 -0.078125 -0.15625 -0.15625 z M47.343750625 20.175775 l0 0.86914 l-0.16602 -0.10742 l0 0.22461 q0 0.078125 0.166015625 0.15625 l0 -0.27344 q2.12890625 2.12890625 2.7734375 2.12890625 l0.38086 0.37109 l0.21484 0 l0.27344 -0.048828 q-0.13671875 -0.205078125 -1.73828125 -1.357421875 q-1.845703125 -1.962890625 -1.904296875 -1.962890625 z M50.009790625 20.615275 l0 0.048828 q0.087890625 0.2734375 0.322265625 0.2734375 q0 -0.078125 -0.322265625 -0.322265625 z M50.771490625 20.781275 l0 0.048828 q0.15625 0 0.15625 0.107421875 l-0.48828 0 q2.421875 2.20703125 4.08203125 2.451171875 q0.048828125 0 0.4296875 0.107421875 l0.5957 0 l0 -0.27344 q-2.05078125 0 -4.619140625 -2.28515625 l0.27344 0 q0 -0.078125 -0.166015625 -0.15625 l-0.26367 0 z M52.617190625 20.781275 l0 0.048828 l0.21484 0.058594 l0 0.048828 l-1.5234 0 q2.28515625 1.962890625 4.08203125 1.962890625 l0.15625 0 l0 -1.25 q-1.23046875 0 -2.71484375 -0.654296875 l0 -0.058594 l0.48828 0 l0 -0.048828 l-0.38086 -0.10742 l-0.32227 0 z M54.794890625 20.781275 l0 0.048828 l0.26367 0.058594 l0 0.048828 l-1.4648 0 l0 0.058594 q1.240234375 0.322265625 1.630859375 0.322265625 l0.32227 0 l0 -0.27344 q-0.126953125 0 -0.4296875 -0.048828125 l0 -0.058594 l0.48828 0 l0 0.10742 l0.16602 0 l0 -0.21484 l-0.27344 -0.048828 l-0.70313 0 z M55.605490625 21.376975 l0 0.21484 l0.16602 0 l0 -0.21484 l-0.16602 0 z M47.343750625 21.425775 l0 0.6543 l-0.16602 -0.10742 l0 0.21484 q0 0.087890625 0.166015625 0.166015625 l0 -0.27344 q1.884765625 1.46484375 2.01171875 1.46484375 l0.54688 -0.048828 l0 -0.058594 q-0.60546875 -0.224609375 -2.55859375 -2.01171875 z M47.343750625 22.460975 l0 0.43945 l-0.16602 -0.10742 l0 0.21484 q0 0.078125 0.166015625 0.166015625 l0 -0.27344 l0.76172 0.64453 l0.5957 0 l-1.2988 -1.084 l-0.058594 0 z M55.605490625 22.949175 l0 0.22461 l0.16602 0 l0 -0.22461 l-0.16602 0 z M47.343750625 23.281245 l0 0.26367 l0.10742 0 q0.107421875 0 0.107421875 -0.107421875 z M55.390590625 23.603515 l-8.2129 0 l0 0.16602 l6.0352 0 q0.830078125 0 2.55859375 -0.05859375 l0 -0.16602 z M57.734375625 3.4963750000000005 l3.9551 0 q4.267578125 0 5.52734375 3.310546875 q0.380859375 1.025390625 0.380859375 2.216796875 l0 0.48828 q0 2.373046875 -1.845703125 3.798828125 q2.2265625 1.396484375 2.2265625 4.70703125 l0 0.43945 q0 3.92578125 -3.41796875 5.3125 q-0.6640625 0.21484375 -1.1328125 0.21484375 l-5.9082 0 q-0.087890625 0 -0.166015625 -0.166015625 l0 -20.107 q0.09765625 -0.21484375 0.380859375 -0.21484375 z M57.783205625 3.925374999999999 l0 0.76172 q2.119140625 -0.4296875 3.14453125 -0.4296875 q3.53515625 0.64453125 5.52734375 1.89453125 l0 -0.058594 q-1.455078125 -2.16796875 -4.599609375 -2.16796875 l-4.0723 0 z M57.783205625 5.009374999999999 l0 0.48828 q1.11328125 -0.322265625 2.548828125 -0.322265625 l0.16602 0 q3.291015625 0 6.396484375 2.001953125 q0 -1.0546875 -4.501953125 -2.3828125 q-0.8203125 -0.2734375 -1.6796875 -0.2734375 l-0.48828 0 q-2.44140625 0.2734375 -2.44140625 0.48828125 z M57.626955625 4.7463750000000005 l0 0.21484 q0.107421875 0 0.107421875 -0.107421875 l0 -0.10742 l-0.10742 0 z M57.783205625 5.7223749999999995 l0 0.64453 l0.058594 0 q1.298828125 -0.4296875 2.548828125 -0.4296875 q4.052734375 0.361328125 6.71875 2.32421875 l0 -0.10742 q0 -0.673828125 -0.654296875 -0.91796875 q-0.908203125 -0.771484375 -4.00390625 -1.630859375 q-0.927734375 -0.15625 -1.904296875 -0.15625 l-0.53711 0 q-0.986328125 0 -2.2265625 0.2734375 z M57.626955625 5.664375 l0 0.058594 l0.10742 0 l0 -0.16602 q-0.107421875 0.009765625 -0.107421875 0.107421875 z M57.783205625 6.640374999999999 l0 0.70313 q0.830078125 0 1.357421875 -0.595703125 q0.7421875 -0.380859375 1.25 -0.380859375 q0.146484375 0 1.025390625 0.21484375 l0.70313 0 q1.07421875 0 1.6796875 0.76171875 q0.205078125 -0.107421875 0.439453125 -0.107421875 l0.10742 0 q0.3125 0 0.76171875 0.654296875 q1.259765625 0.498046875 2.060546875 1.1328125 l0 -0.32227 q-1.708984375 -1.494140625 -4.072265625 -2.01171875 q-1.97265625 -0.478515625 -2.763671875 -0.478515625 q-0.95703125 0 -2.548828125 0.4296875 z M66.572315625 6.259374999999999 q0.1953125 0.478515625 0.322265625 0.48828125 l0.048828 0 l0 -0.058594 q-0.107421875 -0.302734375 -0.37109375 -0.4296875 z M57.626955625 6.582374999999999 l0 0.058594 l0.10742 0 l0 -0.16602 q-0.107421875 0.01953125 -0.107421875 0.107421875 z M60.820315625 6.640374999999999 l0 0.048828 q0.380859375 0.1171875 0.439453125 0.1171875 l0.26367 0 l0 -0.058594 q-0.078125 0 -0.21484375 -0.107421875 l-0.48828 0 z M58.710915625 7.939374999999998 q0.048828125 0.166015625 0.322265625 0.166015625 q0.595703125 -0.263671875 0.595703125 -0.595703125 q0.556640625 -0.2734375 0.703125 -0.2734375 l0.33203 0.058594 l0 -0.60547 l-0.43945 0 q-1.025390625 0 -1.513671875 1.03515625 l0 0.21484 z M61.093715625 7.021374999999999 l0 4.6582 l1.2988 0 q0.966796875 0 1.40625 -1.25 q0.166015625 -0.390625 0.166015625 -1.083984375 l0 -0.048828 q0 -1.77734375 -1.19140625 -2.16796875 q-0.21484375 -0.107421875 -0.595703125 -0.107421875 l-1.084 0 z M60.664015625 7.343375000000002 l0 0.10742 q0.009765625 0.107421875 0.107421875 0.107421875 l0.048828 0 l0 -0.21484 l-0.15625 0 z M63.584015625 7.343375000000002 q0.107421875 0.244140625 0.21484375 0.2734375 q0.1171875 0 0.1171875 -0.107421875 z M67.001915625 7.343375000000002 l0 0.058594 q0.068359375 0.263671875 0.166015625 0.263671875 l0.048828 0 l0 -0.10742 q0 -0.078125 -0.21484375 -0.21484375 z M57.626955625 7.451374999999999 l0 0.16602 l0.10742 0 l0 -0.16602 l-0.10742 0 z M60.175815625 7.558375000000002 l0 0.10742 q0.17578125 0 0.263671875 0.05859375 q0.09765625 -0.05859375 0.224609375 -0.05859375 l0 -0.10742 q-0.224609375 0 -0.224609375 -0.048828125 q-0.087890625 0.048828125 -0.263671875 0.048828125 z M63.964815625 7.509374999999999 l0 0.048828 q0.380859375 0.6640625 0.380859375 1.03515625 q0.380859375 -0.2734375 0.380859375 -0.595703125 q-0.166015625 -0.48828125 -0.546875 -0.48828125 l-0.21484 0 z M57.783205625 7.617374999999999 l0 0.64453 q0.595703125 -0.126953125 0.595703125 -0.37109375 q0 -0.048828125 0.05859375 -0.33203125 l-0.10742 0 z M60.664015625 7.724374999999998 l0 0.21484 l-0.71289 0 q-0.126953125 0 -0.859375 0.439453125 q-1.30859375 0 -1.30859375 0.21484375 l0 0.64453 q1.591796875 -0.751953125 2.880859375 -0.751953125 l0 -0.54688 l0.15625 0 l0 -0.21484 l-0.15625 0 z M65.000015625 8.213375 q-0.1171875 0.17578125 -0.1171875 0.322265625 q1.2109375 0.634765625 1.630859375 0.9765625 q0.48828125 -0.107421875 0.48828125 -0.21484375 q-0.771484375 -0.732421875 -2.001953125 -1.083984375 z M57.626955625 8.427375 l0 0.10742 q0.107421875 0 0.107421875 -0.107421875 l0 -0.10742 q-0.107421875 0.009765625 -0.107421875 0.107421875 z M67.168015625 8.379375 q0.087890625 0.37109375 0.21484375 0.37109375 l0 -0.15625 q0 -0.087890625 -0.21484375 -0.21484375 z M60.664015625 8.535375 q0 0.21484375 -0.439453125 0.21484375 q-1.23046875 0.107421875 -2.44140625 0.869140625 l0 0.058594 q0 0.068359375 0.2734375 0.21484375 l0.10742 0 q1.083984375 -0.44921875 2.5 -0.654296875 l0 -0.53711 l0.15625 0 l0 -0.16602 l-0.15625 0 z M64.775415625 8.916375 q0 0.41015625 1.416015625 1.19140625 l0.10742 -0.38086 q-1.298828125 -0.869140625 -1.5234375 -0.869140625 l0 0.058594 z M64.404315625 8.916375 l0 0.5957 l0.048828 0.38086 l0.16602 0 q0.107421875 0 0.107421875 -0.107421875 l0 -0.10742 q0 -0.234375 -0.2734375 -0.76171875 l-0.048828 0 z M67.216815625 9.130375 l0 0.43945 q0.01953125 0.107421875 0.107421875 0.107421875 l0.058594 0 l0 -0.38086 q0 -0.078125 -0.166015625 -0.166015625 z M60.664015625 9.296375 l0 0.10742 q0.009765625 0.107421875 0.107421875 0.107421875 l0.048828 0 l0 -0.21484 l-0.15625 0 z M57.626955625 9.463375 l0 0.32227 q0.009765625 0.107421875 0.107421875 0.107421875 l0 -0.54688 q-0.107421875 0.01953125 -0.107421875 0.1171875 z M64.179715625 9.404375 l0 0.48828 q-0.107421875 0.52734375 -0.107421875 0.595703125 l0.10742 0.058594 q0.166015625 -0.654296875 0.166015625 -0.927734375 q-0.078125 -0.21484375 -0.166015625 -0.21484375 z M58.496115625 10.166375 q0 0.078125 0.322265625 0.322265625 l1.8457 -0.54688 l0 -0.42969 l-0.058594 0 q-0.44921875 0 -1.62109375 0.380859375 q-0.48828125 0.1171875 -0.48828125 0.2734375 z M66.572315625 10.000375 l0 0.058594 q0 0.107421875 0.537109375 0.15625 l0.058594 -0.38086 l0 -0.15625 l-0.27344 0 q-0.21484375 0.322265625 -0.322265625 0.322265625 z M65.048815625 9.785375 l0 0.10742 q0.283203125 0.21484375 0.546875 0.654296875 l0.64453 0.53711 q0.21484375 -0.078125 0.21484375 -0.166015625 l0 -0.10742 q-0.1171875 -0.263671875 -1.298828125 -1.025390625 l-0.10742 0 z M60.664015625 10.000375 q0 0.380859375 -0.654296875 0.380859375 q-0.60546875 0.2734375 -0.869140625 0.2734375 q0.078125 0.48828125 0.439453125 0.48828125 q0.791015625 -0.2734375 1.083984375 -0.2734375 l0 0.15625 l0.15625 0 l0 -0.15625 l-0.15625 0 l0 -0.5957 q0 -0.107421875 0.15625 -0.107421875 l0 -0.16602 l-0.15625 0 z M57.783205625 10.058375 l0 1.1914 q0.068359375 0 1.416015625 1.240234375 q1.54296875 1.416015625 2.978515625 1.416015625 q1.38671875 0 2.109375 -1.19140625 l0.11719 0 q0.107421875 0 0.107421875 0.15625 q-0.224609375 0.615234375 -1.19140625 1.083984375 q-0.712890625 0.21484375 -1.142578125 0.21484375 q-1.787109375 0 -3.84765625 -2.109375 l-0.54688 -0.48828 l0 0.53711 q2.333984375 2.28515625 3.41796875 2.28515625 q0.283203125 0 0.48828125 0.048828125 l0 0.058594 l-0.058594 0.10742 l0.60547 0 q0.7421875 0 1.19140625 0.322265625 q0.7421875 -0.107421875 1.40625 -0.810546875 q0 -0.068359375 0.322265625 -0.595703125 l-0.048828 -0.33203 q0.380859375 -0.1171875 0.703125 -1.083984375 q0.91796875 -0.361328125 1.025390625 -0.751953125 q0 -0.166015625 0.107421875 -0.380859375 l-0.048828 0 q-0.556640625 0.537109375 -1.357421875 0.537109375 l-0.048828 0 l-0.27344 -0.21484 q0.0390625 -0.322265625 0.107421875 -0.322265625 q-0.068359375 -0.76171875 -0.546875 -0.76171875 l-0.15625 0 l-0.10742 0.058594 l0.048828 0.27344 q-0.048828125 0.107421875 -0.048828125 0.15625 l-0.22461 0 l-0.10742 -0.048828 q0 0.15625 -0.21484375 0.4296875 l0.058594 0.54688 l0 0.26367 q-0.224609375 1.357421875 -1.357421875 1.357421875 l-0.27344 0 q-1.005859375 0 -2.490234375 -1.40625 l-2.0605 -1.7871 l-0.058594 0 z M66.679715625 10.488375 l0 0.10742 l0.048828 0 l0 -0.10742 l-0.048828 0 z M65.595715625 11.025375 l0 0.16602 l0.15625 0 l0 -0.048828 q0 -0.1171875 -0.107421875 -0.1171875 l-0.048828 0 z M59.902315625 11.406375 l0 0.058594 q0 0.048828125 0.537109375 0.48828125 l0.22461 0 l0 -0.86914 q-0.76171875 0.21484375 -0.76171875 0.322265625 z M63.750015625 11.084375 l-0.10742 0.16602 q0.048828125 0.107421875 0.048828125 0.15625 l0.058594 0 q0 -0.078125 0.107421875 -0.21484375 q0 -0.107421875 -0.107421875 -0.107421875 z M57.626955625 11.142375 l0 0.15625 q0.009765625 0.107421875 0.107421875 0.107421875 l0 -0.15625 q0 -0.107421875 -0.107421875 -0.107421875 z M63.476515625 11.738375 q0.17578125 0 0.2734375 0.048828125 l0 -0.27344 l-0.058594 0 q-0.078125 0 -0.21484375 0.224609375 z M66.132815625 12.441375 l0 -0.16602 l-0.10742 0 q0 0.146484375 -0.107421875 0.322265625 l0.048828 0 q0 -0.078125 0.166015625 -0.15625 l0 0.048828 q-0.107421875 0.17578125 -0.107421875 0.2734375 q0.302734375 -0.21484375 0.869140625 -1.1328125 q-0.205078125 0.01953125 -0.703125 0.810546875 l-0.058594 0 z M62.880815625 11.787375 l0 0.10742 l0.058594 0 l0.38086 -0.10742 l0 -0.048828 l-0.16602 0 z M60.771515625 11.894375 l-0.058594 0.10742 l0.10742 0.058594 l0.27344 -0.058594 l0 -0.048828 z M62.285115625 12.109375 l-1.2988 0 q-0.107421875 0.01953125 -0.107421875 0.1171875 q0.107421875 0.21484375 0.2734375 0.21484375 l1.4551 -0.16602 l0.97656 0.10742 q0.05859375 -0.068359375 0.05859375 -0.2734375 q-0.380859375 -0.15625 -0.546875 -0.15625 q-0.48828125 0.15625 -0.810546875 0.15625 z M57.626955625 12.060375 l0 0.21484 q0.009765625 0.107421875 0.107421875 0.107421875 l0 -0.21484 q0 -0.107421875 -0.107421875 -0.107421875 z M61.689415625 12.656375 l0 0.10742 q0.556640625 0.21484375 0.869140625 0.21484375 q0.48828125 0 0.703125 -0.263671875 l0 -0.058594 q-0.703125 -0.09765625 -0.703125 -0.166015625 q-0.107421875 0.05859375 -0.869140625 0.166015625 z M57.783205625 12.548375 l0 0.91797 q1.640625 1.19140625 2.607421875 1.19140625 l0.32227 0 l0 -0.048828 q-0.556640625 0 -2.9296875 -2.060546875 z M65.751915625 12.763375 q-0.380859375 0.3515625 -0.380859375 0.4296875 l0.058594 0 q0.380859375 -0.185546875 0.380859375 -0.4296875 l-0.058594 0 z M65.263715625 13.359375 l0 0.058594 q0.01953125 0.107421875 0.107421875 0.107421875 q0.1171875 0 0.1171875 -0.107421875 l-0.11719 -0.058594 l-0.10742 0 z M57.626955625 13.418375 l0 0.21484 l0.10742 0 l0 -0.21484 l-0.10742 0 z M65.810515625 13.574375 l-0.058594 0.10742 q0 0.087890625 0.166015625 0.166015625 l0.048828 0 l0 -0.10742 q0 -0.078125 -0.15625 -0.166015625 z M65.371115625 13.632375 q-0.322265625 0.6640625 -0.322265625 0.869140625 l0 0.48828 q0 1.083984375 0.703125 1.46484375 l0.058594 0 q-0.21484375 -0.791015625 -0.21484375 -1.142578125 q0 -0.595703125 0.107421875 -1.572265625 q-0.17578125 -0.107421875 -0.33203125 -0.107421875 z M57.783205625 13.798375 l0 0.64453 q0.380859375 0.439453125 0.76171875 0.439453125 q0.595703125 -0.087890625 0.595703125 -0.224609375 q-0.09765625 0 -1.298828125 -0.859375 l-0.058594 0 z M65.966815625 13.955375 l-0.10742 1.0352 q0.2734375 2.16796875 0.76171875 2.16796875 l0 -0.058594 q-0.166015625 -1.0546875 -0.166015625 -1.6796875 l0 -0.97656 q0 -0.068359375 -0.48828125 -0.48828125 z M66.513715625 14.228475 l0 0.058594 q0 0.087890625 0.166015625 0.4296875 l0.048828 0 l0 -0.16602 q0 -0.21484375 -0.21484375 -0.322265625 z M57.626955625 14.394575 l0 0.15625 q0.009765625 0.107421875 0.107421875 0.107421875 l0 -0.15625 q0 -0.107421875 -0.107421875 -0.107421875 z M57.783205625 15.478475 l0 1.7871 l0.058594 0 q1.62109375 -0.595703125 2.822265625 -0.595703125 l0 -1.7383 q0.15625 0 0.15625 -0.107421875 l1.25 0 l0 -0.058594 q-0.078125 0 -0.869140625 -0.107421875 l-0.32227 0 q-0.146484375 0.33203125 -0.9765625 0.33203125 q-0.703125 0 -2.119140625 0.48828125 z M64.404315625 15.371075 q0.263671875 0.15625 0.263671875 0.37109375 l0.16602 0 q-0.107421875 -0.615234375 -0.107421875 -0.859375 l0 -0.22461 l-0.058594 0 q-0.263671875 0.087890625 -0.263671875 0.712890625 z M57.783205625 14.824175 l0 0.32227 l0.058594 0 q0.107421875 -0.048828125 0.166015625 -0.048828125 l0 -0.058594 q0 -0.078125 -0.224609375 -0.21484375 z M66.728515625 14.882775 l0 0.21484 q0 2.16796875 0.76171875 3.037109375 l0.048828 0 l0 -0.33203 q0 -1.66015625 -0.810546875 -2.919921875 z M63.320315625 14.990275 l-0.058594 0.10742 q0.1171875 0 0.869140625 0.64453125 l0 -0.048828 l-0.16602 -0.27344 q0.166015625 0 0.166015625 -0.2734375 q-0.107421875 -0.048828125 -0.166015625 -0.048828125 q-0.107421875 0.048828125 -0.166015625 0.048828125 l0 0.058594 l0.16602 0.21484 l-0.048828 0 q-0.17578125 -0.166015625 -0.2734375 -0.166015625 l0.048828 -0.10742 q-0.1953125 -0.15625 -0.37109375 -0.15625 z M61.093715625 15.039075 l0 5.5273 l1.1426 0 q1.298828125 0 1.8359375 -1.513671875 q0.166015625 -0.478515625 0.166015625 -1.083984375 q0 -2.9296875 -1.953125 -2.9296875 l-1.1914 0 z M57.626955625 15.205075 l0 0.27344 l0.10742 0 l0 -0.27344 l-0.10742 0 z M64.287115625 15.908175 q0.224609375 0.380859375 0.439453125 1.73828125 q0.986328125 0.556640625 2.32421875 1.728515625 q0.09765625 0.244140625 0.380859375 0.439453125 q0.107421875 -0.83984375 0.107421875 -1.25 q-1.34765625 -1.46484375 -1.6796875 -1.513671875 q-0.1953125 -0.556640625 -1.572265625 -1.142578125 z M67.431515625 15.966775 l0 0.048828 q0.107421875 1.162109375 0.2734375 1.630859375 l0.058594 0 l0 -0.058594 q0 -0.25390625 -0.2734375 -1.62109375 l-0.058594 0 z M60.664015625 16.718775 l0 0.16602 l0.15625 0 l0 -0.16602 l-0.15625 0 z M58.271485625 17.421875 l0 0.11719 q0 0.087890625 0.380859375 0.322265625 l0.10742 0 q0.615234375 -0.48828125 1.787109375 -0.48828125 l0.11719 0 l0 -0.43945 q-1.552734375 0.1171875 -2.2265625 0.380859375 q0 0.107421875 -0.166015625 0.107421875 z M57.626955625 17.265575 l0 0.21484 l0.10742 0 l0 -0.21484 l-0.10742 0 z M60.664015625 17.421875 l0 0.16602 l0.15625 0 l0 -0.16602 l-0.15625 0 z M64.453115625 17.539075 l0 0.15625 q0 0.078125 0.166015625 0.166015625 l0 -0.27344 q-0.05859375 0 -0.166015625 -0.048828125 z M57.783205625 17.587875 l0 1.084 q2.080078125 0.87890625 3.525390625 4.39453125 q0.17578125 0.48828125 0.2734375 0.48828125 l0.81055 0 q0 -0.3515625 -0.4296875 -1.201171875 q0 -0.185546875 -0.654296875 -1.34765625 l-0.48828 0 q-0.078125 0 -0.15625 -0.166015625 l0 -0.76172 l0.15625 0.10742 l0 -0.32227 q-0.048828125 0 -0.15625 -0.048828125 l0 0.26367 q-2.578125 -2.4609375 -2.880859375 -2.490234375 z M58.984415625 18.183575 q0.146484375 0.126953125 0.537109375 0.2734375 q0.13671875 -0.107421875 0.810546875 -0.166015625 l0.33203 0.058594 l0 -0.70313 q-1.6796875 0.048828125 -1.6796875 0.537109375 z M64.668015625 17.968775 l0 0.48828 q0.37109375 0.029296875 2.548828125 2.109375 q0.107421875 -0.400390625 0.107421875 -0.48828125 q-1.337890625 -1.396484375 -2.65625 -2.109375 z M67.597515625 18.349575 l0 0.21484 q0 0.078125 0.166015625 0.166015625 l0 -0.22461 q0 -0.078125 -0.166015625 -0.15625 z M60.664015625 18.398475 l0 0.16602 l0.15625 0 l0 -0.16602 l-0.15625 0 z M64.453115625 18.398475 q0 0.126953125 -0.048828125 0.224609375 q0.048828125 0 0.15625 0.048828125 q0 -0.1171875 0.05859375 -0.21484375 l-0.10742 -0.058594 l-0.058594 0 z M57.626955625 18.623075 l0 0.21484 l0.10742 0 l0 -0.10742 q0 -0.107421875 -0.107421875 -0.107421875 z M59.736315625 18.730475 l0 0.048828 q0.1953125 0.322265625 0.927734375 0.322265625 l0 -0.47852 l-0.82031 0 q-0.107421875 0.009765625 -0.107421875 0.107421875 z M64.560515625 18.779275 q0 0.166015625 -0.15625 0.703125 q1.787109375 1.142578125 2.5390625 1.73828125 l0.10742 -0.38086 l0 -0.048828 q-0.087890625 0 -1.19140625 -1.142578125 q-1.103515625 -0.869140625 -1.19140625 -0.869140625 l-0.10742 0 z M57.783205625 18.945275 l0 0.53711 q0.478515625 0 2.28515625 2.2265625 q0.458984375 0.64453125 0.91796875 1.845703125 l0.27344 0 l0 -0.058594 q-1.279296875 -2.6171875 -2.275390625 -3.740234375 q-0.5859375 -0.46875 -1.201171875 -0.810546875 z M60.664015625 19.160175 l0 0.21484 l0.15625 0 l0 -0.15625 q-0.048828125 0 -0.15625 -0.05859375 z M57.626955625 19.433575 l0 0.10742 q0.009765625 0.107421875 0.107421875 0.107421875 l0 -0.10742 q0 -0.107421875 -0.107421875 -0.107421875 z M60.498015625 19.433575 l0 0.048828 q0.078125 0.224609375 0.166015625 0.224609375 l0 -0.27344 l-0.16602 0 z M64.130815625 19.540975 l0 0.048828 l0.15625 0 l0 -0.15625 l-0.048828 0 q-0.107421875 0.009765625 -0.107421875 0.107421875 z M64.238315625 19.707075 q0 0.107421875 -0.380859375 0.595703125 q1.5625 0.888671875 2.548828125 1.6796875 q0.09765625 -0.01953125 0.380859375 -0.48828125 l0 -0.058594 q-0.419921875 -0.390625 -2.44140625 -1.6796875 q0 -0.048828125 -0.05859375 -0.048828125 l-0.048828 0 z M57.783205625 19.755875 l0 0.54688 q0.771484375 0.244140625 2.060546875 2.216796875 q0.439453125 0.908203125 0.439453125 0.9765625 l0 0.058594 l0.38086 0 l0 -0.058594 q-0.48828125 -0.87890625 -0.712890625 -1.513671875 q-1.0546875 -1.484375 -2.109375 -2.2265625 l-0.058594 0 z M67.431515625 19.921875 q0 0.029296875 -0.048828125 0.21484375 l0.15625 0.10742 l0 -0.21484 q0 -0.107421875 -0.107421875 -0.107421875 z M57.626955625 20.244175 l0 0.10742 q0.009765625 0.107421875 0.107421875 0.107421875 l0 -0.21484 l-0.10742 0 z M63.535115625 20.351575 l0.10742 0.058594 q0.107421875 0 0.107421875 -0.107421875 l0 -0.058594 l-0.10742 0 q-0.107421875 0.009765625 -0.107421875 0.107421875 z M63.584015625 20.517575 l-0.32227 0.27344 l0 0.048828 q0.361328125 0 2.59765625 1.6796875 q0.244140625 -0.09765625 0.380859375 -0.322265625 q-1.77734375 -1.34765625 -2.65625 -1.6796875 z M57.783205625 20.566375 l0 0.5957 q0.693359375 0.751953125 1.73828125 2.392578125 l0.48828 0 q-0.654296875 -1.50390625 -2.16796875 -2.98828125 l-0.058594 0 z M62.666015625 20.732375 q0.009765625 0.107421875 0.107421875 0.107421875 l0.21484 0 l0 -0.048828 l-0.048828 -0.11719 q-0.09765625 0.05859375 -0.2734375 0.05859375 z M67.216815625 20.673875 q-0.048828125 0.1171875 -0.048828125 0.166015625 q0.048828125 0.107421875 0.048828125 0.166015625 l0.058594 0 l0.048828 -0.27344 z M61.259815625 20.839875 q0.009765625 0.107421875 0.107421875 0.107421875 l0.15625 0 q0 -0.107421875 -0.107421875 -0.107421875 l-0.15625 0 z M61.748015625 21.005875 l0 0.048828 q1.23046875 0.3125 3.134765625 1.630859375 q0 0.068359375 0.380859375 0.322265625 l0.38086 -0.32227 q-1.787109375 -1.416015625 -2.763671875 -1.73828125 q-0.517578125 0.05859375 -1.1328125 0.05859375 z M57.626955625 21.113275 l0 0.21484 q0.009765625 0.107421875 0.107421875 0.107421875 l0 -0.21484 q0 -0.107421875 -0.107421875 -0.107421875 z M66.943315625 21.269575 l-0.048828 0.11719 l0 0.10742 l0.048828 0 q0.107421875 0 0.107421875 -0.107421875 q0 -0.1171875 -0.107421875 -0.1171875 z M61.904315625 21.386675 l-0.048828 0.10742 q0 0.439453125 1.298828125 0.9765625 q0 0.048828125 1.357421875 0.859375 q0.3125 -0.15625 0.4296875 -0.15625 l0 -0.058594 q-2.40234375 -1.728515625 -3.037109375 -1.728515625 z M57.783205625 21.601575 l0 0.91797 q0.76171875 0.791015625 0.76171875 1.03515625 l0.6543 0 l0 -0.058594 l-1.3574 -1.8945 l-0.058594 0 z M66.406215625 22.089875 l-0.058594 0.10742 q0.01953125 0.107421875 0.107421875 0.107421875 l0.058594 -0.10742 q0 -0.107421875 -0.107421875 -0.107421875 z M62.285115625 22.412075 q0.283203125 0.810546875 0.703125 0.810546875 q0 0.107421875 0.439453125 0.33203125 l0.048828 0 q0.2734375 0 0.654296875 -0.1171875 l0 -0.048828 q-1.611328125 -0.9765625 -1.787109375 -0.9765625 l-0.058594 0 z M57.626955625 22.470675 l0 0.15625 q0.009765625 0.107421875 0.107421875 0.107421875 l0 -0.15625 q0 -0.107421875 -0.107421875 -0.107421875 z M65.751915625 22.734375 l0.10742 0.058594 q0.107421875 0 0.107421875 -0.107421875 l-0.10742 -0.058594 q-0.107421875 0.01953125 -0.107421875 0.107421875 z M57.783205625 22.900375 l0 0.53711 q0.01953125 0.1171875 0.1171875 0.1171875 l0.32227 0 l0 -0.058594 q-0.166015625 -0.341796875 -0.439453125 -0.595703125 z M65.156215625 23.066405 l-0.048828 0.10742 l0.10742 0.048828 q0.107421875 -0.048828125 0.15625 -0.048828125 l0 -0.058594 q-0.185546875 -0.048828125 -0.21484375 -0.048828125 z M57.626955625 23.388675 l0 0.27344 q0.009765625 0.107421875 0.107421875 0.107421875 l0.16602 0 q-0.1953125 -0.380859375 -0.2734375 -0.380859375 z M64.238315625 23.437495 l0 0.058594 l0.27344 0.058594 q0.107421875 0 0.107421875 -0.1171875 q-0.05859375 0 -0.166015625 -0.048828125 q-0.09765625 0.048828125 -0.21484375 0.048828125 z M62.773415625 23.496095 l0 0.058594 l0.10742 0 l0 -0.058594 l-0.10742 0 z M58.330075625 23.603515 q0.048828125 0.107421875 0.048828125 0.166015625 l0.27344 0 q0 -0.087890625 -0.15625 -0.166015625 l-0.16602 0 z M59.306615625 23.603515 l0 0.058594 q0.009765625 0.107421875 0.107421875 0.107421875 l0.21484 0 q0 -0.087890625 -0.166015625 -0.166015625 l-0.15625 0 z M60.117215625 23.603515 l0 0.058594 q0.009765625 0.107421875 0.107421875 0.107421875 l0.10742 0 l0 -0.058594 q0 -0.107421875 -0.107421875 -0.107421875 l-0.10742 0 z M60.771515625 23.603515 l0 0.058594 q0.009765625 0.107421875 0.107421875 0.107421875 l0.15625 0 q-0.048828125 -0.107421875 -0.048828125 -0.166015625 l-0.21484 0 z M61.367215625 23.603515 l0 0.058594 q0.009765625 0.107421875 0.107421875 0.107421875 l0.10742 0 l0 -0.058594 q0 -0.107421875 -0.107421875 -0.107421875 l-0.10742 0 z M62.500015625 23.603515 l0 0.16602 l0.21484 0 l0 -0.16602 l-0.21484 0 z M63.154315625 23.603515 l0 0.058594 q0.078125 0 0.21484375 0.107421875 l0.27344 0 q-0.05859375 -0.166015625 -0.322265625 -0.166015625 l-0.16602 0 z"></path>
  </g>
</svg>
